<svg width="382" height="233" viewBox="0 0 382 233" fill="none" xmlns="http://www.w3.org/2000/svg">
<path d="M1.232 27V15.72H5.424C7.312 15.72 8.768 16.2053 9.792 17.176C10.8267 18.1467 11.344 19.5387 11.344 21.352C11.344 23.1547 10.8267 24.5467 9.792 25.528C8.768 26.5093 7.312 27 5.424 27H1.232ZM3.28 25.304H5.296C7.89867 25.304 9.2 23.9867 9.2 21.352C9.2 18.728 7.89867 17.416 5.296 17.416H3.28V25.304ZM17.0835 27.16C16.1982 27.16 15.4355 26.9947 14.7955 26.664C14.1555 26.3333 13.6595 25.864 13.3075 25.256C12.9662 24.648 12.7955 23.928 12.7955 23.096C12.7955 22.2853 12.9608 21.576 13.2915 20.968C13.6328 20.36 14.0968 19.8853 14.6835 19.544C15.2808 19.192 15.9582 19.016 16.7155 19.016C17.8248 19.016 18.6995 19.368 19.3395 20.072C19.9902 20.776 20.3155 21.736 20.3155 22.952V23.544H14.7155C14.8648 24.9413 15.6648 25.64 17.1155 25.64C17.5528 25.64 17.9902 25.576 18.4275 25.448C18.8648 25.3093 19.2648 25.096 19.6275 24.808L20.1875 26.152C19.8142 26.4613 19.3448 26.7067 18.7795 26.888C18.2142 27.0693 17.6488 27.16 17.0835 27.16ZM16.7955 20.376C16.2088 20.376 15.7342 20.5573 15.3715 20.92C15.0088 21.2827 14.7902 21.7733 14.7155 22.392H18.6515C18.6088 21.7413 18.4275 21.2453 18.1075 20.904C17.7982 20.552 17.3608 20.376 16.7955 20.376ZM16.0595 18.136L17.7075 14.888H19.6755L17.4035 18.136H16.0595ZM21.8994 29.88V19.176H23.8514V20.424C24.0754 19.9973 24.4114 19.656 24.8594 19.4C25.318 19.144 25.8354 19.016 26.4114 19.016C27.094 19.016 27.6914 19.1813 28.2034 19.512C28.726 19.8427 29.1314 20.312 29.4194 20.92C29.7074 21.5173 29.8514 22.2373 29.8514 23.08C29.8514 23.912 29.7074 24.6373 29.4194 25.256C29.1314 25.864 28.7314 26.3333 28.2194 26.664C27.7074 26.9947 27.1047 27.16 26.4114 27.16C25.8567 27.16 25.3554 27.0427 24.9074 26.808C24.47 26.5627 24.134 26.2373 23.8994 25.832V29.88H21.8994ZM25.8514 25.64C26.4487 25.64 26.9287 25.4267 27.2914 25C27.654 24.5627 27.8354 23.9227 27.8354 23.08C27.8354 22.2267 27.654 21.592 27.2914 21.176C26.9287 20.7493 26.4487 20.536 25.8514 20.536C25.254 20.536 24.774 20.7493 24.4114 21.176C24.0487 21.592 23.8674 22.2267 23.8674 23.08C23.8674 23.9227 24.0487 24.5627 24.4114 25C24.774 25.4267 25.254 25.64 25.8514 25.64ZM35.0611 27.16C34.2505 27.16 33.5465 26.9947 32.9491 26.664C32.3518 26.3333 31.8878 25.864 31.5571 25.256C31.2265 24.6373 31.0611 23.912 31.0611 23.08C31.0611 22.248 31.2265 21.528 31.5571 20.92C31.8878 20.312 32.3518 19.8427 32.9491 19.512C33.5465 19.1813 34.2505 19.016 35.0611 19.016C35.8718 19.016 36.5758 19.1813 37.1731 19.512C37.7705 19.8427 38.2345 20.312 38.5651 20.92C38.8958 21.528 39.0611 22.248 39.0611 23.08C39.0611 23.912 38.8958 24.6373 38.5651 25.256C38.2345 25.864 37.7705 26.3333 37.1731 26.664C36.5758 26.9947 35.8718 27.16 35.0611 27.16ZM35.0611 25.64C35.6585 25.64 36.1385 25.4267 36.5011 25C36.8638 24.5627 37.0451 23.9227 37.0451 23.08C37.0451 22.2267 36.8638 21.592 36.5011 21.176C36.1385 20.7493 35.6585 20.536 35.0611 20.536C34.4638 20.536 33.9838 20.7493 33.6211 21.176C33.2585 21.592 33.0771 22.2267 33.0771 23.08C33.0771 23.9227 33.2585 24.5627 33.6211 25C33.9838 25.4267 34.4638 25.64 35.0611 25.64ZM43.5759 27.16C42.9145 27.16 42.2959 27.08 41.7199 26.92C41.1439 26.76 40.6639 26.5307 40.2799 26.232L40.7919 24.92C41.1865 25.1867 41.6292 25.3947 42.1199 25.544C42.6105 25.6827 43.1012 25.752 43.5919 25.752C44.1039 25.752 44.4825 25.6667 44.7279 25.496C44.9839 25.3147 45.1119 25.08 45.1119 24.792C45.1119 24.344 44.7812 24.056 44.1199 23.928L42.5199 23.624C41.1652 23.368 40.4879 22.664 40.4879 21.512C40.4879 21 40.6265 20.5573 40.9039 20.184C41.1919 19.8107 41.5865 19.5227 42.0879 19.32C42.5892 19.1173 43.1652 19.016 43.8159 19.016C44.3705 19.016 44.9039 19.096 45.4159 19.256C45.9279 19.4053 46.3652 19.6347 46.7279 19.944L46.1839 21.256C45.8745 21 45.5012 20.7973 45.0639 20.648C44.6372 20.4987 44.2265 20.424 43.8319 20.424C43.3092 20.424 42.9199 20.5147 42.6639 20.696C42.4185 20.8773 42.2959 21.1173 42.2959 21.416C42.2959 21.8853 42.5999 22.1733 43.2079 22.28L44.8079 22.584C45.5012 22.712 46.0239 22.9467 46.3759 23.288C46.7385 23.6293 46.9199 24.088 46.9199 24.664C46.9199 25.4427 46.6159 26.056 46.0079 26.504C45.3999 26.9413 44.5892 27.16 43.5759 27.16ZM52.3804 27.16C51.495 27.16 50.7324 26.9947 50.0924 26.664C49.4524 26.3333 48.9564 25.864 48.6044 25.256C48.263 24.648 48.0924 23.928 48.0924 23.096C48.0924 22.2853 48.2577 21.576 48.5884 20.968C48.9297 20.36 49.3937 19.8853 49.9804 19.544C50.5777 19.192 51.255 19.016 52.0124 19.016C53.1217 19.016 53.9964 19.368 54.6364 20.072C55.287 20.776 55.6124 21.736 55.6124 22.952V23.544H50.0124C50.1617 24.9413 50.9617 25.64 52.4124 25.64C52.8497 25.64 53.287 25.576 53.7244 25.448C54.1617 25.3093 54.5617 25.096 54.9244 24.808L55.4844 26.152C55.111 26.4613 54.6417 26.7067 54.0764 26.888C53.511 27.0693 52.9457 27.16 52.3804 27.16ZM52.0924 20.376C51.5057 20.376 51.031 20.5573 50.6684 20.92C50.3057 21.2827 50.087 21.7733 50.0124 22.392H53.9484C53.9057 21.7413 53.7244 21.2453 53.4044 20.904C53.095 20.552 52.6577 20.376 52.0924 20.376ZM57.1963 27V19.176H59.1483V20.552C59.5323 19.624 60.3536 19.112 61.6123 19.016L62.2203 18.968L62.3483 20.664L61.1963 20.776C59.8843 20.904 59.2283 21.576 59.2283 22.792V27H57.1963ZM70.6064 27.16C68.6864 27.16 67.7264 26.0827 67.7264 23.928V19.176H69.7264V23.96C69.7264 24.5147 69.8384 24.9253 70.0624 25.192C70.2864 25.4587 70.6437 25.592 71.1344 25.592C71.6677 25.592 72.105 25.4107 72.4464 25.048C72.7877 24.6747 72.9584 24.184 72.9584 23.576V19.176H74.9584V27H73.0064V25.832C72.4837 26.7173 71.6837 27.16 70.6064 27.16ZM77.04 27V19.176H78.992V20.392C79.2587 19.944 79.616 19.6027 80.064 19.368C80.5227 19.1333 81.0347 19.016 81.6 19.016C83.4453 19.016 84.368 20.088 84.368 22.232V27H82.368V22.328C82.368 21.72 82.2507 21.2773 82.016 21C81.792 20.7227 81.44 20.584 80.96 20.584C80.3733 20.584 79.904 20.7707 79.552 21.144C79.2107 21.5067 79.04 21.992 79.04 22.6V27H77.04ZM94.5199 27L89.4959 15.72H91.6879L95.4159 24.376L99.1439 15.72H101.256L96.2319 27H94.5199ZM107.277 27.16C106.104 27.16 105.096 26.9253 104.253 26.456C103.421 25.976 102.781 25.304 102.333 24.44C101.885 23.5653 101.661 22.536 101.661 21.352C101.661 20.168 101.885 19.144 102.333 18.28C102.781 17.416 103.421 16.7493 104.253 16.28C105.096 15.8 106.104 15.56 107.277 15.56C108.034 15.56 108.749 15.6773 109.421 15.912C110.104 16.1467 110.664 16.4827 111.101 16.92L110.429 18.552C109.949 18.1467 109.458 17.8533 108.957 17.672C108.456 17.48 107.917 17.384 107.341 17.384C106.2 17.384 105.33 17.7307 104.733 18.424C104.136 19.1067 103.837 20.0827 103.837 21.352C103.837 22.6213 104.136 23.6027 104.733 24.296C105.33 24.9893 106.2 25.336 107.341 25.336C107.917 25.336 108.456 25.2453 108.957 25.064C109.458 24.872 109.949 24.5733 110.429 24.168L111.101 25.8C110.664 26.2267 110.104 26.5627 109.421 26.808C108.749 27.0427 108.034 27.16 107.277 27.16ZM115.325 27.16C113.405 27.16 112.445 26.0827 112.445 23.928V19.176H114.445V23.96C114.445 24.5147 114.557 24.9253 114.781 25.192C115.005 25.4587 115.362 25.592 115.853 25.592C116.386 25.592 116.824 25.4107 117.165 25.048C117.506 24.6747 117.677 24.184 117.677 23.576V19.176H119.677V27H117.725V25.832C117.202 26.7173 116.402 27.16 115.325 27.16ZM126.271 27.16C125.695 27.16 125.177 27.032 124.719 26.776C124.271 26.52 123.935 26.1733 123.711 25.736V27H121.759V15.72H123.759V20.328C123.993 19.9333 124.329 19.6187 124.767 19.384C125.215 19.1387 125.716 19.016 126.271 19.016C126.964 19.016 127.567 19.1813 128.079 19.512C128.591 19.8427 128.991 20.312 129.279 20.92C129.567 21.5173 129.711 22.2373 129.711 23.08C129.711 23.912 129.567 24.6373 129.279 25.256C128.991 25.864 128.585 26.3333 128.063 26.664C127.551 26.9947 126.953 27.16 126.271 27.16ZM125.711 25.64C126.308 25.64 126.788 25.4267 127.151 25C127.513 24.5627 127.695 23.9227 127.695 23.08C127.695 22.2267 127.513 21.592 127.151 21.176C126.788 20.7493 126.308 20.536 125.711 20.536C125.113 20.536 124.633 20.7493 124.271 21.176C123.908 21.592 123.727 22.2267 123.727 23.08C123.727 23.9227 123.908 24.5627 124.271 25C124.633 25.4267 125.113 25.64 125.711 25.64ZM138.673 27.16C137.99 27.16 137.388 26.9947 136.865 26.664C136.353 26.3333 135.953 25.864 135.665 25.256C135.377 24.6373 135.233 23.912 135.233 23.08C135.233 22.2373 135.377 21.5173 135.665 20.92C135.953 20.312 136.353 19.8427 136.865 19.512C137.388 19.1813 137.99 19.016 138.673 19.016C139.228 19.016 139.729 19.1387 140.177 19.384C140.625 19.6293 140.961 19.9547 141.185 20.36V15.72H143.185V27H141.233V25.704C141.02 26.152 140.684 26.5093 140.225 26.776C139.766 27.032 139.249 27.16 138.673 27.16ZM139.233 25.64C139.83 25.64 140.31 25.4267 140.673 25C141.036 24.5627 141.217 23.9227 141.217 23.08C141.217 22.2267 141.036 21.592 140.673 21.176C140.31 20.7493 139.83 20.536 139.233 20.536C138.636 20.536 138.156 20.7493 137.793 21.176C137.43 21.592 137.249 22.2267 137.249 23.08C137.249 23.9227 137.43 24.5627 137.793 25C138.156 25.4267 138.636 25.64 139.233 25.64ZM147.835 27.16C147.269 27.16 146.763 27.0533 146.315 26.84C145.877 26.616 145.531 26.3173 145.275 25.944C145.029 25.5707 144.907 25.1493 144.907 24.68C144.907 24.104 145.056 23.6507 145.355 23.32C145.653 22.9787 146.139 22.7333 146.811 22.584C147.483 22.4347 148.384 22.36 149.515 22.36H150.075V22.024C150.075 21.4907 149.957 21.1067 149.723 20.872C149.488 20.6373 149.093 20.52 148.539 20.52C148.101 20.52 147.653 20.5893 147.195 20.728C146.736 20.856 146.272 21.0587 145.803 21.336L145.227 19.976C145.504 19.784 145.829 19.6187 146.203 19.48C146.587 19.3307 146.987 19.2187 147.403 19.144C147.829 19.0587 148.229 19.016 148.603 19.016C149.744 19.016 150.592 19.2827 151.147 19.816C151.701 20.3387 151.979 21.1547 151.979 22.264V27H150.107V25.752C149.925 26.1893 149.637 26.536 149.243 26.792C148.848 27.0373 148.379 27.16 147.835 27.16ZM148.251 25.784C148.773 25.784 149.205 25.6027 149.547 25.24C149.899 24.8773 150.075 24.4187 150.075 23.864V23.512H149.531C148.528 23.512 147.829 23.592 147.435 23.752C147.051 23.9013 146.859 24.1787 146.859 24.584C146.859 24.936 146.981 25.224 147.227 25.448C147.472 25.672 147.813 25.784 148.251 25.784ZM154.009 27V19.176H155.961V20.392C156.227 19.944 156.585 19.6027 157.033 19.368C157.491 19.1333 158.003 19.016 158.569 19.016C160.414 19.016 161.337 20.088 161.337 22.232V27H159.337V22.328C159.337 21.72 159.219 21.2773 158.985 21C158.761 20.7227 158.409 20.584 157.929 20.584C157.342 20.584 156.873 20.7707 156.521 21.144C156.179 21.5067 156.009 21.992 156.009 22.6V27H154.009ZM166.232 27.16C165.571 27.16 164.952 27.08 164.376 26.92C163.8 26.76 163.32 26.5307 162.936 26.232L163.448 24.92C163.843 25.1867 164.285 25.3947 164.776 25.544C165.267 25.6827 165.757 25.752 166.248 25.752C166.76 25.752 167.139 25.6667 167.384 25.496C167.64 25.3147 167.768 25.08 167.768 24.792C167.768 24.344 167.437 24.056 166.776 23.928L165.176 23.624C163.821 23.368 163.144 22.664 163.144 21.512C163.144 21 163.283 20.5573 163.56 20.184C163.848 19.8107 164.243 19.5227 164.744 19.32C165.245 19.1173 165.821 19.016 166.472 19.016C167.027 19.016 167.56 19.096 168.072 19.256C168.584 19.4053 169.021 19.6347 169.384 19.944L168.84 21.256C168.531 21 168.157 20.7973 167.72 20.648C167.293 20.4987 166.883 20.424 166.488 20.424C165.965 20.424 165.576 20.5147 165.32 20.696C165.075 20.8773 164.952 21.1173 164.952 21.416C164.952 21.8853 165.256 22.1733 165.864 22.28L167.464 22.584C168.157 22.712 168.68 22.9467 169.032 23.288C169.395 23.6293 169.576 24.088 169.576 24.664C169.576 25.4427 169.272 26.056 168.664 26.504C168.056 26.9413 167.245 27.16 166.232 27.16ZM178.325 27.16C176.405 27.16 175.445 26.0827 175.445 23.928V19.176H177.445V23.96C177.445 24.5147 177.557 24.9253 177.781 25.192C178.005 25.4587 178.362 25.592 178.853 25.592C179.386 25.592 179.824 25.4107 180.165 25.048C180.506 24.6747 180.677 24.184 180.677 23.576V19.176H182.677V27H180.725V25.832C180.202 26.7173 179.402 27.16 178.325 27.16ZM184.759 27V19.176H186.711V20.392C186.977 19.944 187.335 19.6027 187.783 19.368C188.241 19.1333 188.753 19.016 189.319 19.016C191.164 19.016 192.087 20.088 192.087 22.232V27H190.087V22.328C190.087 21.72 189.969 21.2773 189.735 21C189.511 20.7227 189.159 20.584 188.679 20.584C188.092 20.584 187.623 20.7707 187.271 21.144C186.929 21.5067 186.759 21.992 186.759 22.6V27H184.759ZM197.974 27.16C197.089 27.16 196.326 26.9947 195.686 26.664C195.046 26.3333 194.55 25.864 194.198 25.256C193.857 24.648 193.686 23.928 193.686 23.096C193.686 22.2853 193.851 21.576 194.182 20.968C194.523 20.36 194.987 19.8853 195.574 19.544C196.171 19.192 196.849 19.016 197.606 19.016C198.715 19.016 199.59 19.368 200.23 20.072C200.881 20.776 201.206 21.736 201.206 22.952V23.544H195.606C195.755 24.9413 196.555 25.64 198.006 25.64C198.443 25.64 198.881 25.576 199.318 25.448C199.755 25.3093 200.155 25.096 200.518 24.808L201.078 26.152C200.705 26.4613 200.235 26.7067 199.67 26.888C199.105 27.0693 198.539 27.16 197.974 27.16ZM197.686 20.376C197.099 20.376 196.625 20.5573 196.262 20.92C195.899 21.2827 195.681 21.7733 195.606 22.392H199.542C199.499 21.7413 199.318 21.2453 198.998 20.904C198.689 20.552 198.251 20.376 197.686 20.376ZM209.967 27.16C209.305 27.16 208.687 27.08 208.111 26.92C207.535 26.76 207.055 26.5307 206.671 26.232L207.183 24.92C207.577 25.1867 208.02 25.3947 208.511 25.544C209.001 25.6827 209.492 25.752 209.983 25.752C210.495 25.752 210.873 25.6667 211.119 25.496C211.375 25.3147 211.503 25.08 211.503 24.792C211.503 24.344 211.172 24.056 210.511 23.928L208.911 23.624C207.556 23.368 206.879 22.664 206.879 21.512C206.879 21 207.017 20.5573 207.295 20.184C207.583 19.8107 207.977 19.5227 208.479 19.32C208.98 19.1173 209.556 19.016 210.207 19.016C210.761 19.016 211.295 19.096 211.807 19.256C212.319 19.4053 212.756 19.6347 213.119 19.944L212.575 21.256C212.265 21 211.892 20.7973 211.455 20.648C211.028 20.4987 210.617 20.424 210.223 20.424C209.7 20.424 209.311 20.5147 209.055 20.696C208.809 20.8773 208.687 21.1173 208.687 21.416C208.687 21.8853 208.991 22.1733 209.599 22.28L211.199 22.584C211.892 22.712 212.415 22.9467 212.767 23.288C213.129 23.6293 213.311 24.088 213.311 24.664C213.311 25.4427 213.007 26.056 212.399 26.504C211.791 26.9413 210.98 27.16 209.967 27.16ZM218.421 27.16C216.352 27.16 215.317 26.136 215.317 24.088V20.68H213.813V19.176H215.317V16.84H217.317V19.176H219.685V20.68H217.317V23.976C217.317 24.488 217.429 24.872 217.653 25.128C217.877 25.384 218.24 25.512 218.741 25.512C218.89 25.512 219.045 25.496 219.205 25.464C219.365 25.4213 219.53 25.3787 219.701 25.336L220.005 26.808C219.813 26.9147 219.568 27 219.269 27.064C218.981 27.128 218.698 27.16 218.421 27.16ZM223.554 27.16C222.988 27.16 222.482 27.0533 222.034 26.84C221.596 26.616 221.25 26.3173 220.993 25.944C220.748 25.5707 220.626 25.1493 220.626 24.68C220.626 24.104 220.775 23.6507 221.074 23.32C221.372 22.9787 221.858 22.7333 222.53 22.584C223.202 22.4347 224.103 22.36 225.234 22.36H225.794V22.024C225.794 21.4907 225.676 21.1067 225.442 20.872C225.207 20.6373 224.812 20.52 224.258 20.52C223.82 20.52 223.372 20.5893 222.914 20.728C222.455 20.856 221.991 21.0587 221.522 21.336L220.946 19.976C221.223 19.784 221.548 19.6187 221.922 19.48C222.306 19.3307 222.706 19.2187 223.122 19.144C223.548 19.0587 223.948 19.016 224.322 19.016C225.463 19.016 226.311 19.2827 226.866 19.816C227.42 20.3387 227.698 21.1547 227.698 22.264V27H225.826V25.752C225.644 26.1893 225.356 26.536 224.962 26.792C224.567 27.0373 224.098 27.16 223.554 27.16ZM223.97 25.784C224.492 25.784 224.924 25.6027 225.266 25.24C225.618 24.8773 225.794 24.4187 225.794 23.864V23.512H225.25C224.247 23.512 223.548 23.592 223.154 23.752C222.77 23.9013 222.578 24.1787 222.578 24.584C222.578 24.936 222.7 25.224 222.946 25.448C223.191 25.672 223.532 25.784 223.97 25.784ZM233.312 27.16C231.242 27.16 230.208 26.136 230.208 24.088V20.68H228.704V19.176H230.208V16.84H232.208V19.176H234.576V20.68H232.208V23.976C232.208 24.488 232.32 24.872 232.544 25.128C232.768 25.384 233.13 25.512 233.632 25.512C233.781 25.512 233.936 25.496 234.096 25.464C234.256 25.4213 234.421 25.3787 234.592 25.336L234.896 26.808C234.704 26.9147 234.458 27 234.16 27.064C233.872 27.128 233.589 27.16 233.312 27.16ZM235.74 17.496V15.544H237.98V17.496H235.74ZM235.868 27V19.176H237.868V27H235.868ZM243.514 27.16C242.704 27.16 242 26.9947 241.402 26.664C240.805 26.3333 240.341 25.864 240.01 25.256C239.68 24.6373 239.514 23.912 239.514 23.08C239.514 22.248 239.68 21.528 240.01 20.92C240.341 20.312 240.805 19.8427 241.402 19.512C242 19.1813 242.704 19.016 243.514 19.016C244.325 19.016 245.029 19.1813 245.626 19.512C246.224 19.8427 246.688 20.312 247.018 20.92C247.349 21.528 247.514 22.248 247.514 23.08C247.514 23.912 247.349 24.6373 247.018 25.256C246.688 25.864 246.224 26.3333 245.626 26.664C245.029 26.9947 244.325 27.16 243.514 27.16ZM243.514 25.64C244.112 25.64 244.592 25.4267 244.954 25C245.317 24.5627 245.498 23.9227 245.498 23.08C245.498 22.2267 245.317 21.592 244.954 21.176C244.592 20.7493 244.112 20.536 243.514 20.536C242.917 20.536 242.437 20.7493 242.074 21.176C241.712 21.592 241.53 22.2267 241.53 23.08C241.53 23.9227 241.712 24.5627 242.074 25C242.437 25.4267 242.917 25.64 243.514 25.64ZM249.165 27V19.176H251.117V20.392C251.384 19.944 251.741 19.6027 252.189 19.368C252.648 19.1333 253.16 19.016 253.725 19.016C255.57 19.016 256.493 20.088 256.493 22.232V27H254.493V22.328C254.493 21.72 254.376 21.2773 254.141 21C253.917 20.7227 253.565 20.584 253.085 20.584C252.498 20.584 252.029 20.7707 251.677 21.144C251.336 21.5067 251.165 21.992 251.165 22.6V27H249.165ZM4.048 49.16C3.36533 49.16 2.76267 48.9947 2.24 48.664C1.728 48.3333 1.328 47.864 1.04 47.256C0.752 46.6373 0.608 45.912 0.608 45.08C0.608 44.2373 0.752 43.5173 1.04 42.92C1.328 42.312 1.728 41.8427 2.24 41.512C2.76267 41.1813 3.36533 41.016 4.048 41.016C4.60267 41.016 5.104 41.1387 5.552 41.384C6 41.6293 6.336 41.9547 6.56 42.36V37.72H8.56V49H6.608V47.704C6.39467 48.152 6.05867 48.5093 5.6 48.776C5.14133 49.032 4.624 49.16 4.048 49.16ZM4.608 47.64C5.20533 47.64 5.68533 47.4267 6.048 47C6.41067 46.5627 6.592 45.9227 6.592 45.08C6.592 44.2267 6.41067 43.592 6.048 43.176C5.68533 42.7493 5.20533 42.536 4.608 42.536C4.01067 42.536 3.53067 42.7493 3.168 43.176C2.80533 43.592 2.624 44.2267 2.624 45.08C2.624 45.9227 2.80533 46.5627 3.168 47C3.53067 47.4267 4.01067 47.64 4.608 47.64ZM10.5058 39.496V37.544H12.7458V39.496H10.5058ZM10.6338 49V41.176H12.6338V49H10.6338ZM17.5759 49.16C16.9145 49.16 16.2959 49.08 15.7199 48.92C15.1439 48.76 14.6639 48.5307 14.2799 48.232L14.7919 46.92C15.1865 47.1867 15.6292 47.3947 16.1199 47.544C16.6105 47.6827 17.1012 47.752 17.5919 47.752C18.1039 47.752 18.4825 47.6667 18.7279 47.496C18.9839 47.3147 19.1119 47.08 19.1119 46.792C19.1119 46.344 18.7812 46.056 18.1199 45.928L16.5199 45.624C15.1652 45.368 14.4879 44.664 14.4879 43.512C14.4879 43 14.6265 42.5573 14.9039 42.184C15.1919 41.8107 15.5865 41.5227 16.0879 41.32C16.5892 41.1173 17.1652 41.016 17.8159 41.016C18.3705 41.016 18.9039 41.096 19.4159 41.256C19.9279 41.4053 20.3652 41.6347 20.7279 41.944L20.1839 43.256C19.8745 43 19.5012 42.7973 19.0639 42.648C18.6372 42.4987 18.2265 42.424 17.8319 42.424C17.3092 42.424 16.9199 42.5147 16.6639 42.696C16.4185 42.8773 16.2959 43.1173 16.2959 43.416C16.2959 43.8853 16.5999 44.1733 17.2079 44.28L18.8079 44.584C19.5012 44.712 20.0239 44.9467 20.3759 45.288C20.7385 45.6293 20.9199 46.088 20.9199 46.664C20.9199 47.4427 20.6159 48.056 20.0079 48.504C19.3999 48.9413 18.5892 49.16 17.5759 49.16ZM22.5244 51.88V41.176H24.4764V42.424C24.7004 41.9973 25.0364 41.656 25.4844 41.4C25.943 41.144 26.4604 41.016 27.0364 41.016C27.719 41.016 28.3164 41.1813 28.8284 41.512C29.351 41.8427 29.7564 42.312 30.0444 42.92C30.3324 43.5173 30.4764 44.2373 30.4764 45.08C30.4764 45.912 30.3324 46.6373 30.0444 47.256C29.7564 47.864 29.3564 48.3333 28.8444 48.664C28.3324 48.9947 27.7297 49.16 27.0364 49.16C26.4817 49.16 25.9804 49.0427 25.5324 48.808C25.095 48.5627 24.759 48.2373 24.5244 47.832V51.88H22.5244ZM26.4764 47.64C27.0737 47.64 27.5537 47.4267 27.9164 47C28.279 46.5627 28.4604 45.9227 28.4604 45.08C28.4604 44.2267 28.279 43.592 27.9164 43.176C27.5537 42.7493 27.0737 42.536 26.4764 42.536C25.879 42.536 25.399 42.7493 25.0364 43.176C24.6737 43.592 24.4924 44.2267 24.4924 45.08C24.4924 45.9227 24.6737 46.5627 25.0364 47C25.399 47.4267 25.879 47.64 26.4764 47.64ZM35.6861 49.16C34.8755 49.16 34.1715 48.9947 33.5741 48.664C32.9768 48.3333 32.5128 47.864 32.1821 47.256C31.8515 46.6373 31.6861 45.912 31.6861 45.08C31.6861 44.248 31.8515 43.528 32.1821 42.92C32.5128 42.312 32.9768 41.8427 33.5741 41.512C34.1715 41.1813 34.8755 41.016 35.6861 41.016C36.4968 41.016 37.2008 41.1813 37.7981 41.512C38.3955 41.8427 38.8595 42.312 39.1901 42.92C39.5208 43.528 39.6861 44.248 39.6861 45.08C39.6861 45.912 39.5208 46.6373 39.1901 47.256C38.8595 47.864 38.3955 48.3333 37.7981 48.664C37.2008 48.9947 36.4968 49.16 35.6861 49.16ZM35.6861 47.64C36.2835 47.64 36.7635 47.4267 37.1261 47C37.4888 46.5627 37.6701 45.9227 37.6701 45.08C37.6701 44.2267 37.4888 43.592 37.1261 43.176C36.7635 42.7493 36.2835 42.536 35.6861 42.536C35.0888 42.536 34.6088 42.7493 34.2461 43.176C33.8835 43.592 33.7021 44.2267 33.7021 45.08C33.7021 45.9227 33.8835 46.5627 34.2461 47C34.6088 47.4267 35.0888 47.64 35.6861 47.64ZM44.2009 49.16C43.5395 49.16 42.9209 49.08 42.3449 48.92C41.7689 48.76 41.2889 48.5307 40.9049 48.232L41.4169 46.92C41.8115 47.1867 42.2542 47.3947 42.7449 47.544C43.2355 47.6827 43.7262 47.752 44.2169 47.752C44.7289 47.752 45.1075 47.6667 45.3529 47.496C45.6089 47.3147 45.7369 47.08 45.7369 46.792C45.7369 46.344 45.4062 46.056 44.7449 45.928L43.1449 45.624C41.7902 45.368 41.1129 44.664 41.1129 43.512C41.1129 43 41.2515 42.5573 41.5289 42.184C41.8169 41.8107 42.2115 41.5227 42.7129 41.32C43.2142 41.1173 43.7902 41.016 44.4409 41.016C44.9955 41.016 45.5289 41.096 46.0409 41.256C46.5529 41.4053 46.9902 41.6347 47.3529 41.944L46.8089 43.256C46.4995 43 46.1262 42.7973 45.6889 42.648C45.2622 42.4987 44.8515 42.424 44.4569 42.424C43.9342 42.424 43.5449 42.5147 43.2889 42.696C43.0435 42.8773 42.9209 43.1173 42.9209 43.416C42.9209 43.8853 43.2249 44.1733 43.8329 44.28L45.4329 44.584C46.1262 44.712 46.6489 44.9467 47.0009 45.288C47.3635 45.6293 47.5449 46.088 47.5449 46.664C47.5449 47.4427 47.2409 48.056 46.6329 48.504C46.0249 48.9413 45.2142 49.16 44.2009 49.16ZM51.7254 49.16C51.16 49.16 50.6534 49.0533 50.2054 48.84C49.768 48.616 49.4214 48.3173 49.1654 47.944C48.92 47.5707 48.7974 47.1493 48.7974 46.68C48.7974 46.104 48.9467 45.6507 49.2454 45.32C49.544 44.9787 50.0294 44.7333 50.7014 44.584C51.3734 44.4347 52.2747 44.36 53.4054 44.36H53.9654V44.024C53.9654 43.4907 53.848 43.1067 53.6134 42.872C53.3787 42.6373 52.984 42.52 52.4294 42.52C51.992 42.52 51.544 42.5893 51.0854 42.728C50.6267 42.856 50.1627 43.0587 49.6934 43.336L49.1174 41.976C49.3947 41.784 49.72 41.6187 50.0934 41.48C50.4774 41.3307 50.8774 41.2187 51.2934 41.144C51.72 41.0587 52.12 41.016 52.4934 41.016C53.6347 41.016 54.4827 41.2827 55.0374 41.816C55.592 42.3387 55.8694 43.1547 55.8694 44.264V49H53.9974V47.752C53.816 48.1893 53.528 48.536 53.1334 48.792C52.7387 49.0373 52.2694 49.16 51.7254 49.16ZM52.1414 47.784C52.664 47.784 53.096 47.6027 53.4374 47.24C53.7894 46.8773 53.9654 46.4187 53.9654 45.864V45.512H53.4214C52.4187 45.512 51.72 45.592 51.3254 45.752C50.9414 45.9013 50.7494 46.1787 50.7494 46.584C50.7494 46.936 50.872 47.224 51.1174 47.448C51.3627 47.672 51.704 47.784 52.1414 47.784ZM57.8994 49V41.176H59.8514V42.392C60.118 41.944 60.4754 41.6027 60.9234 41.368C61.382 41.1333 61.894 41.016 62.4594 41.016C64.3047 41.016 65.2274 42.088 65.2274 44.232V49H63.2274V44.328C63.2274 43.72 63.11 43.2773 62.8754 43C62.6514 42.7227 62.2994 42.584 61.8194 42.584C61.2327 42.584 60.7634 42.7707 60.4114 43.144C60.07 43.5067 59.8994 43.992 59.8994 44.6V49H57.8994ZM70.8428 49.16C68.7734 49.16 67.7388 48.136 67.7388 46.088V42.68H66.2348V41.176H67.7388V38.84H69.7388V41.176H72.1068V42.68H69.7388V45.976C69.7388 46.488 69.8508 46.872 70.0748 47.128C70.2988 47.384 70.6614 47.512 71.1628 47.512C71.3121 47.512 71.4668 47.496 71.6268 47.464C71.7868 47.4213 71.9521 47.3787 72.1228 47.336L72.4268 48.808C72.2348 48.9147 71.9894 49 71.6908 49.064C71.4028 49.128 71.1201 49.16 70.8428 49.16ZM80.7199 49.16C80.0372 49.16 79.4345 48.9947 78.9119 48.664C78.3999 48.3333 77.9999 47.864 77.7119 47.256C77.4239 46.6373 77.2799 45.912 77.2799 45.08C77.2799 44.2373 77.4239 43.5173 77.7119 42.92C77.9999 42.312 78.3999 41.8427 78.9119 41.512C79.4345 41.1813 80.0372 41.016 80.7199 41.016C81.2745 41.016 81.7759 41.1387 82.2239 41.384C82.6719 41.6293 83.0079 41.9547 83.2319 42.36V37.72H85.2319V49H83.2799V47.704C83.0665 48.152 82.7305 48.5093 82.2719 48.776C81.8132 49.032 81.2959 49.16 80.7199 49.16ZM81.2799 47.64C81.8772 47.64 82.3572 47.4267 82.7199 47C83.0825 46.5627 83.2639 45.9227 83.2639 45.08C83.2639 44.2267 83.0825 43.592 82.7199 43.176C82.3572 42.7493 81.8772 42.536 81.2799 42.536C80.6825 42.536 80.2025 42.7493 79.8399 43.176C79.4772 43.592 79.2959 44.2267 79.2959 45.08C79.2959 45.9227 79.4772 46.5627 79.8399 47C80.2025 47.4267 80.6825 47.64 81.2799 47.64ZM91.1616 49.16C90.2763 49.16 89.5136 48.9947 88.8736 48.664C88.2336 48.3333 87.7376 47.864 87.3856 47.256C87.0443 46.648 86.8736 45.928 86.8736 45.096C86.8736 44.2853 87.039 43.576 87.3696 42.968C87.711 42.36 88.175 41.8853 88.7616 41.544C89.359 41.192 90.0363 41.016 90.7936 41.016C91.903 41.016 92.7776 41.368 93.4176 42.072C94.0683 42.776 94.3936 43.736 94.3936 44.952V45.544H88.7936C88.943 46.9413 89.743 47.64 91.1936 47.64C91.631 47.64 92.0683 47.576 92.5056 47.448C92.943 47.3093 93.343 47.096 93.7056 46.808L94.2656 48.152C93.8923 48.4613 93.423 48.7067 92.8576 48.888C92.2923 49.0693 91.727 49.16 91.1616 49.16ZM90.8736 42.376C90.287 42.376 89.8123 42.5573 89.4496 42.92C89.087 43.2827 88.8683 43.7733 88.7936 44.392H92.7296C92.687 43.7413 92.5056 43.2453 92.1856 42.904C91.8763 42.552 91.439 42.376 90.8736 42.376ZM100.29 51.88V41.176H102.242V42.424C102.466 41.9973 102.802 41.656 103.25 41.4C103.709 41.144 104.226 41.016 104.802 41.016C105.485 41.016 106.082 41.1813 106.594 41.512C107.117 41.8427 107.522 42.312 107.81 42.92C108.098 43.5173 108.242 44.2373 108.242 45.08C108.242 45.912 108.098 46.6373 107.81 47.256C107.522 47.864 107.122 48.3333 106.61 48.664C106.098 48.9947 105.495 49.16 104.802 49.16C104.247 49.16 103.746 49.0427 103.298 48.808C102.861 48.5627 102.525 48.2373 102.29 47.832V51.88H100.29ZM104.242 47.64C104.839 47.64 105.319 47.4267 105.682 47C106.045 46.5627 106.226 45.9227 106.226 45.08C106.226 44.2267 106.045 43.592 105.682 43.176C105.319 42.7493 104.839 42.536 104.242 42.536C103.645 42.536 103.165 42.7493 102.802 43.176C102.439 43.592 102.258 44.2267 102.258 45.08C102.258 45.9227 102.439 46.5627 102.802 47C103.165 47.4267 103.645 47.64 104.242 47.64ZM113.74 49.16C112.854 49.16 112.092 48.9947 111.452 48.664C110.812 48.3333 110.316 47.864 109.964 47.256C109.622 46.648 109.452 45.928 109.452 45.096C109.452 44.2853 109.617 43.576 109.948 42.968C110.289 42.36 110.753 41.8853 111.34 41.544C111.937 41.192 112.614 41.016 113.372 41.016C114.481 41.016 115.356 41.368 115.996 42.072C116.646 42.776 116.972 43.736 116.972 44.952V45.544H111.372C111.521 46.9413 112.321 47.64 113.772 47.64C114.209 47.64 114.646 47.576 115.084 47.448C115.521 47.3093 115.921 47.096 116.284 46.808L116.844 48.152C116.47 48.4613 116.001 48.7067 115.436 48.888C114.87 49.0693 114.305 49.16 113.74 49.16ZM113.452 42.376C112.865 42.376 112.39 42.5573 112.028 42.92C111.665 43.2827 111.446 43.7733 111.372 44.392H115.308C115.265 43.7413 115.084 43.2453 114.764 42.904C114.454 42.552 114.017 42.376 113.452 42.376ZM121.388 49.16C119.468 49.16 118.508 48.0827 118.508 45.928V41.176H120.508V45.96C120.508 46.5147 120.62 46.9253 120.844 47.192C121.068 47.4587 121.425 47.592 121.916 47.592C122.449 47.592 122.886 47.4107 123.228 47.048C123.569 46.6747 123.74 46.184 123.74 45.576V41.176H125.74V49H123.788V47.832C123.265 48.7173 122.465 49.16 121.388 49.16ZM135.702 49.16C134.891 49.16 134.187 48.9947 133.59 48.664C132.992 48.3333 132.528 47.864 132.198 47.256C131.867 46.6373 131.702 45.912 131.702 45.08C131.702 44.248 131.867 43.528 132.198 42.92C132.528 42.312 132.992 41.8427 133.59 41.512C134.187 41.1813 134.891 41.016 135.702 41.016C136.512 41.016 137.216 41.1813 137.814 41.512C138.411 41.8427 138.875 42.312 139.206 42.92C139.536 43.528 139.702 44.248 139.702 45.08C139.702 45.912 139.536 46.6373 139.206 47.256C138.875 47.864 138.411 48.3333 137.814 48.664C137.216 48.9947 136.512 49.16 135.702 49.16ZM135.702 47.64C136.299 47.64 136.779 47.4267 137.142 47C137.504 46.5627 137.686 45.9227 137.686 45.08C137.686 44.2267 137.504 43.592 137.142 43.176C136.779 42.7493 136.299 42.536 135.702 42.536C135.104 42.536 134.624 42.7493 134.262 43.176C133.899 43.592 133.718 44.2267 133.718 45.08C133.718 45.9227 133.899 46.5627 134.262 47C134.624 47.4267 135.104 47.64 135.702 47.64ZM144.185 49.16C142.265 49.16 141.305 48.0827 141.305 45.928V41.176H143.305V45.96C143.305 46.5147 143.417 46.9253 143.641 47.192C143.865 47.4587 144.222 47.592 144.713 47.592C145.246 47.592 145.683 47.4107 146.025 47.048C146.366 46.6747 146.537 46.184 146.537 45.576V41.176H148.536V49H146.585V47.832C146.062 48.7173 145.262 49.16 144.185 49.16ZM154.931 51.88V41.176H156.883V42.424C157.107 41.9973 157.443 41.656 157.891 41.4C158.349 41.144 158.867 41.016 159.443 41.016C160.125 41.016 160.723 41.1813 161.235 41.512C161.757 41.8427 162.163 42.312 162.451 42.92C162.739 43.5173 162.883 44.2373 162.883 45.08C162.883 45.912 162.739 46.6373 162.451 47.256C162.163 47.864 161.763 48.3333 161.251 48.664C160.739 48.9947 160.136 49.16 159.443 49.16C158.888 49.16 158.387 49.0427 157.939 48.808C157.501 48.5627 157.165 48.2373 156.931 47.832V51.88H154.931ZM158.883 47.64C159.48 47.64 159.96 47.4267 160.323 47C160.685 46.5627 160.867 45.9227 160.867 45.08C160.867 44.2267 160.685 43.592 160.323 43.176C159.96 42.7493 159.48 42.536 158.883 42.536C158.285 42.536 157.805 42.7493 157.443 43.176C157.08 43.592 156.899 44.2267 156.899 45.08C156.899 45.9227 157.08 46.5627 157.443 47C157.805 47.4267 158.285 47.64 158.883 47.64ZM167.1 49.16C166.535 49.16 166.028 49.0533 165.58 48.84C165.143 48.616 164.796 48.3173 164.54 47.944C164.295 47.5707 164.172 47.1493 164.172 46.68C164.172 46.104 164.322 45.6507 164.62 45.32C164.919 44.9787 165.404 44.7333 166.076 44.584C166.748 44.4347 167.65 44.36 168.78 44.36H169.34V44.024C169.34 43.4907 169.223 43.1067 168.988 42.872C168.754 42.6373 168.359 42.52 167.804 42.52C167.367 42.52 166.919 42.5893 166.46 42.728C166.002 42.856 165.538 43.0587 165.068 43.336L164.492 41.976C164.77 41.784 165.095 41.6187 165.468 41.48C165.852 41.3307 166.252 41.2187 166.668 41.144C167.095 41.0587 167.495 41.016 167.868 41.016C169.01 41.016 169.858 41.2827 170.412 41.816C170.967 42.3387 171.244 43.1547 171.244 44.264V49H169.372V47.752C169.191 48.1893 168.903 48.536 168.508 48.792C168.114 49.0373 167.644 49.16 167.1 49.16ZM167.516 47.784C168.039 47.784 168.471 47.6027 168.812 47.24C169.164 46.8773 169.34 46.4187 169.34 45.864V45.512H168.796C167.794 45.512 167.095 45.592 166.7 45.752C166.316 45.9013 166.124 46.1787 166.124 46.584C166.124 46.936 166.247 47.224 166.492 47.448C166.738 47.672 167.079 47.784 167.516 47.784ZM176.138 49.16C175.477 49.16 174.858 49.08 174.282 48.92C173.706 48.76 173.226 48.5307 172.842 48.232L173.354 46.92C173.749 47.1867 174.192 47.3947 174.682 47.544C175.173 47.6827 175.664 47.752 176.154 47.752C176.666 47.752 177.045 47.6667 177.29 47.496C177.546 47.3147 177.674 47.08 177.674 46.792C177.674 46.344 177.344 46.056 176.682 45.928L175.082 45.624C173.728 45.368 173.05 44.664 173.05 43.512C173.05 43 173.189 42.5573 173.466 42.184C173.754 41.8107 174.149 41.5227 174.65 41.32C175.152 41.1173 175.728 41.016 176.378 41.016C176.933 41.016 177.466 41.096 177.978 41.256C178.49 41.4053 178.928 41.6347 179.29 41.944L178.746 43.256C178.437 43 178.064 42.7973 177.626 42.648C177.2 42.4987 176.789 42.424 176.394 42.424C175.872 42.424 175.482 42.5147 175.226 42.696C174.981 42.8773 174.858 43.1173 174.858 43.416C174.858 43.8853 175.162 44.1733 175.77 44.28L177.37 44.584C178.064 44.712 178.586 44.9467 178.938 45.288C179.301 45.6293 179.482 46.088 179.482 46.664C179.482 47.4427 179.178 48.056 178.57 48.504C177.962 48.9413 177.152 49.16 176.138 49.16ZM188.407 49.16C187.725 49.16 187.122 48.9947 186.599 48.664C186.087 48.3333 185.687 47.864 185.399 47.256C185.111 46.6373 184.967 45.912 184.967 45.08C184.967 44.2373 185.111 43.5173 185.399 42.92C185.687 42.312 186.087 41.8427 186.599 41.512C187.122 41.1813 187.725 41.016 188.407 41.016C188.962 41.016 189.463 41.1387 189.911 41.384C190.359 41.6293 190.695 41.9547 190.919 42.36V37.72H192.919V49H190.967V47.704C190.754 48.152 190.418 48.5093 189.959 48.776C189.501 49.032 188.983 49.16 188.407 49.16ZM188.967 47.64C189.565 47.64 190.045 47.4267 190.407 47C190.77 46.5627 190.951 45.9227 190.951 45.08C190.951 44.2267 190.77 43.592 190.407 43.176C190.045 42.7493 189.565 42.536 188.967 42.536C188.37 42.536 187.89 42.7493 187.527 43.176C187.165 43.592 186.983 44.2267 186.983 45.08C186.983 45.9227 187.165 46.5627 187.527 47C187.89 47.4267 188.37 47.64 188.967 47.64ZM198.849 49.16C197.964 49.16 197.201 48.9947 196.561 48.664C195.921 48.3333 195.425 47.864 195.073 47.256C194.732 46.648 194.561 45.928 194.561 45.096C194.561 44.2853 194.726 43.576 195.057 42.968C195.398 42.36 195.862 41.8853 196.449 41.544C197.046 41.192 197.724 41.016 198.481 41.016C199.59 41.016 200.465 41.368 201.105 42.072C201.756 42.776 202.081 43.736 202.081 44.952V45.544H196.481C196.63 46.9413 197.43 47.64 198.881 47.64C199.318 47.64 199.756 47.576 200.193 47.448C200.63 47.3093 201.03 47.096 201.393 46.808L201.953 48.152C201.58 48.4613 201.11 48.7067 200.545 48.888C199.98 49.0693 199.414 49.16 198.849 49.16ZM198.561 42.376C197.974 42.376 197.5 42.5573 197.137 42.92C196.774 43.2827 196.556 43.7733 196.481 44.392H200.417C200.374 43.7413 200.193 43.2453 199.873 42.904C199.564 42.552 199.126 42.376 198.561 42.376ZM210.282 49L206.889 41.176H209.018L211.194 46.648L213.45 41.176H215.45L212.01 49H210.282ZM220.115 49.16C219.229 49.16 218.467 48.9947 217.827 48.664C217.187 48.3333 216.691 47.864 216.339 47.256C215.997 46.648 215.827 45.928 215.827 45.096C215.827 44.2853 215.992 43.576 216.323 42.968C216.664 42.36 217.128 41.8853 217.715 41.544C218.312 41.192 218.989 41.016 219.747 41.016C220.856 41.016 221.731 41.368 222.371 42.072C223.021 42.776 223.347 43.736 223.347 44.952V45.544H217.747C217.896 46.9413 218.696 47.64 220.147 47.64C220.584 47.64 221.021 47.576 221.459 47.448C221.896 47.3093 222.296 47.096 222.659 46.808L223.219 48.152C222.845 48.4613 222.376 48.7067 221.811 48.888C221.245 49.0693 220.68 49.16 220.115 49.16ZM219.827 42.376C219.24 42.376 218.765 42.5573 218.403 42.92C218.04 43.2827 217.821 43.7733 217.747 44.392H221.683C221.64 43.7413 221.459 43.2453 221.139 42.904C220.829 42.552 220.392 42.376 219.827 42.376ZM219.091 40.136L220.739 36.888H222.707L220.435 40.136H219.091ZM227.651 49.16C226.723 49.16 226.035 48.9093 225.587 48.408C225.149 47.896 224.931 47.1493 224.931 46.168V37.72H226.931V46.072C226.931 47.032 227.336 47.512 228.147 47.512C228.264 47.512 228.381 47.5067 228.499 47.496C228.616 47.4853 228.728 47.464 228.835 47.432L228.803 49.016C228.419 49.112 228.035 49.16 227.651 49.16ZM233.53 49.16C232.719 49.16 232.015 48.9947 231.418 48.664C230.821 48.3333 230.357 47.864 230.026 47.256C229.695 46.6373 229.53 45.912 229.53 45.08C229.53 44.248 229.695 43.528 230.026 42.92C230.357 42.312 230.821 41.8427 231.418 41.512C232.015 41.1813 232.719 41.016 233.53 41.016C234.341 41.016 235.045 41.1813 235.642 41.512C236.239 41.8427 236.703 42.312 237.034 42.92C237.365 43.528 237.53 44.248 237.53 45.08C237.53 45.912 237.365 46.6373 237.034 47.256C236.703 47.864 236.239 48.3333 235.642 48.664C235.045 48.9947 234.341 49.16 233.53 49.16ZM233.53 47.64C234.127 47.64 234.607 47.4267 234.97 47C235.333 46.5627 235.514 45.9227 235.514 45.08C235.514 44.2267 235.333 43.592 234.97 43.176C234.607 42.7493 234.127 42.536 233.53 42.536C232.933 42.536 232.453 42.7493 232.09 43.176C231.727 43.592 231.546 44.2267 231.546 45.08C231.546 45.9227 231.727 46.5627 232.09 47C232.453 47.4267 232.933 47.64 233.53 47.64Z" fill="black"/>
<path d="M291.771 29.885V34.205H288.066V29.885H283.746V26.21H288.066V21.89H291.771V26.21H296.061V29.885H291.771ZM301.604 23.885L298.454 25.535V21.275L303.974 18.2H306.089V38H301.604V23.885ZM317.123 18.2H324.323C325.593 18.2 326.738 18.425 327.758 18.875C328.778 19.315 329.588 19.99 330.188 20.9C330.798 21.8 331.103 22.93 331.103 24.29C331.103 25.64 330.798 26.79 330.188 27.74C329.588 28.68 328.778 29.4 327.758 29.9C326.738 30.39 325.593 30.635 324.323 30.635H321.608V38H317.123V18.2ZM321.608 27.095H323.078C323.688 27.095 324.233 27.005 324.713 26.825C325.203 26.645 325.593 26.36 325.883 25.97C326.173 25.57 326.318 25.045 326.318 24.395C326.318 23.735 326.173 23.215 325.883 22.835C325.593 22.445 325.203 22.165 324.713 21.995C324.233 21.825 323.688 21.74 323.078 21.74H321.608V27.095ZM338.817 38.36C337.467 38.36 336.267 38.085 335.217 37.535C334.177 36.975 333.357 36.21 332.757 35.24C332.167 34.26 331.872 33.14 331.872 31.88C331.872 30.62 332.167 29.5 332.757 28.52C333.357 27.53 334.177 26.75 335.217 26.18C336.267 25.61 337.467 25.325 338.817 25.325C340.167 25.325 341.357 25.61 342.387 26.18C343.417 26.75 344.222 27.53 344.802 28.52C345.382 29.5 345.672 30.62 345.672 31.88C345.672 33.14 345.382 34.26 344.802 35.24C344.222 36.21 343.417 36.975 342.387 37.535C341.357 38.085 340.167 38.36 338.817 38.36ZM338.817 34.61C339.337 34.61 339.787 34.495 340.167 34.265C340.547 34.035 340.842 33.71 341.052 33.29C341.262 32.87 341.367 32.395 341.367 31.865C341.367 31.325 341.262 30.845 341.052 30.425C340.842 30.005 340.547 29.675 340.167 29.435C339.787 29.195 339.337 29.075 338.817 29.075C338.297 29.075 337.842 29.195 337.452 29.435C337.072 29.675 336.772 30.005 336.552 30.425C336.342 30.845 336.237 31.325 336.237 31.865C336.237 32.395 336.342 32.87 336.552 33.29C336.772 33.71 337.072 34.035 337.452 34.265C337.842 34.495 338.297 34.61 338.817 34.61ZM348.195 38V25.685H352.755V38H348.195ZM350.535 23.15C349.815 23.15 349.205 22.9 348.705 22.4C348.205 21.89 347.955 21.285 347.955 20.585C347.955 19.885 348.205 19.28 348.705 18.77C349.215 18.25 349.825 17.99 350.535 17.99C351.005 17.99 351.435 18.11 351.825 18.35C352.215 18.58 352.53 18.89 352.77 19.28C353.01 19.67 353.13 20.105 353.13 20.585C353.13 21.285 352.875 21.89 352.365 22.4C351.855 22.9 351.245 23.15 350.535 23.15ZM364.372 25.325C365.232 25.325 366.072 25.5 366.892 25.85C367.712 26.2 368.387 26.755 368.917 27.515C369.447 28.265 369.712 29.255 369.712 30.485V38H365.137V31.235C365.137 30.355 364.927 29.695 364.507 29.255C364.087 28.805 363.537 28.58 362.857 28.58C362.407 28.58 361.982 28.7 361.582 28.94C361.192 29.17 360.872 29.5 360.622 29.93C360.382 30.35 360.262 30.835 360.262 31.385V38H355.702V25.685H360.262V27.5C360.382 27.17 360.632 26.84 361.012 26.51C361.402 26.17 361.887 25.89 362.467 25.67C363.057 25.44 363.692 25.325 364.372 25.325ZM371.312 25.685H373.412V20.63H377.927V25.685H380.687V29.435H377.927V32.87C377.927 33.38 378.002 33.795 378.152 34.115C378.302 34.425 378.577 34.58 378.977 34.58C379.247 34.58 379.477 34.52 379.667 34.4C379.857 34.28 379.972 34.2 380.012 34.16L381.572 37.4C381.502 37.46 381.282 37.57 380.912 37.73C380.552 37.89 380.092 38.035 379.532 38.165C378.972 38.295 378.347 38.36 377.657 38.36C376.427 38.36 375.412 38.015 374.612 37.325C373.812 36.625 373.412 35.55 373.412 34.1V29.435H371.312V25.685Z" fill="black"/>
<path d="M95.1352 146.38C98.1648 146.38 100.644 143.828 100.644 140.708C100.644 137.588 98.1648 135.036 95.1352 135.036C92.1056 135.036 89.6269 137.588 89.6269 140.708C89.6269 143.828 92.1056 146.38 95.1352 146.38ZM66.2163 164.813C58.5045 164.813 52.4453 171.052 52.4453 178.993C52.4453 186.934 58.5045 193.173 66.2163 193.173C73.928 193.173 79.9872 186.934 79.9872 178.993C79.9872 171.052 73.928 164.813 66.2163 164.813ZM66.2163 188.919C60.9833 188.919 56.5766 184.381 56.5766 178.993C56.5766 173.605 60.9833 169.067 66.2163 169.067C71.4492 169.067 75.8559 173.605 75.8559 178.993C75.8559 184.381 71.4492 188.919 66.2163 188.919ZM82.1905 160.56L88.8006 153.753L91.0039 156.022C94.5844 159.709 99.2665 161.977 105.05 161.977V156.306C100.919 156.306 97.614 154.604 95.1352 152.052L89.9023 146.663C88.5252 145.529 87.1481 144.962 85.4956 144.962C83.8431 144.962 82.466 145.529 81.6397 146.663L73.928 154.604C72.8263 155.738 72.2755 157.156 72.2755 158.574C72.2755 160.276 72.8263 161.694 73.928 162.545L82.7414 170.485V184.665H88.2498V167.082L82.1905 160.56ZM104.775 164.813C97.0632 164.813 91.0039 171.052 91.0039 178.993C91.0039 186.934 97.0632 193.173 104.775 193.173C112.487 193.173 118.546 186.934 118.546 178.993C118.546 171.052 112.487 164.813 104.775 164.813ZM104.775 188.919C99.5419 188.919 95.1352 184.381 95.1352 178.993C95.1352 173.605 99.5419 169.067 104.775 169.067C110.008 169.067 114.415 173.605 114.415 178.993C114.415 184.381 110.008 188.919 104.775 188.919Z" fill="#219EBC"/>
<g clip-path="url(#clip0_607_2706)">
<path d="M305.252 191.5C281.445 157.083 277.027 153.554 277.027 140.91C277.027 123.59 291.11 109.552 308.485 109.552C325.86 109.552 339.942 123.59 339.942 140.91C339.942 153.554 335.524 157.076 311.718 191.487C311.356 192.006 310.874 192.43 310.313 192.723C309.752 193.017 309.128 193.171 308.494 193.172C307.86 193.173 307.235 193.022 306.672 192.731C306.11 192.44 305.626 192.018 305.262 191.5L305.255 191.487L305.252 191.5Z" fill="#8ECAE6"/>
<path d="M302.316 139.386C302.316 138.016 302.488 136.821 302.83 135.802C303.18 134.775 303.654 133.922 304.252 133.246C304.857 132.561 305.542 132.051 306.306 131.716C307.079 131.374 307.887 131.203 308.731 131.203C309.575 131.203 310.38 131.374 311.144 131.716C311.917 132.051 312.602 132.561 313.199 133.246C313.796 133.922 314.266 134.775 314.609 135.802C314.951 136.821 315.122 138.016 315.122 139.386C315.122 140.843 314.951 142.089 314.609 143.125C314.266 144.16 313.796 145.004 313.199 145.657C312.602 146.302 311.917 146.78 311.144 147.091C310.38 147.393 309.575 147.545 308.731 147.545C307.887 147.545 307.079 147.393 306.306 147.091C305.542 146.78 304.857 146.302 304.252 145.657C303.654 145.004 303.18 144.16 302.83 143.125C302.488 142.089 302.316 140.843 302.316 139.386ZM305.9 139.386C305.9 140.525 306.016 141.464 306.247 142.205C306.477 142.946 306.804 143.499 307.226 143.865C307.648 144.224 308.15 144.403 308.731 144.403C309.313 144.403 309.81 144.224 310.225 143.865C310.647 143.499 310.969 142.946 311.192 142.205C311.423 141.456 311.539 140.517 311.539 139.386C311.539 138.319 311.423 137.411 311.192 136.662C310.969 135.913 310.647 135.34 310.225 134.942C309.81 134.544 309.313 134.345 308.731 134.345C308.15 134.345 307.648 134.544 307.226 134.942C306.804 135.34 306.477 135.913 306.247 136.662C306.016 137.411 305.9 138.319 305.9 139.386Z" fill="#050516"/>
</g>
<path fill-rule="evenodd" clip-rule="evenodd" d="M293.822 166.095C294.802 167.499 295.862 169.01 297.01 170.647C299.599 174.336 302.633 178.66 306.182 183.808L306.185 183.796L306.191 183.808C306.495 184.242 306.899 184.595 307.369 184.839C307.839 185.083 308.361 185.21 308.891 185.209C309.421 185.208 309.942 185.079 310.411 184.833C310.88 184.587 311.283 184.231 311.585 183.796C315.14 178.641 318.178 174.313 320.769 170.621C321.91 168.994 322.965 167.491 323.94 166.095H293.822Z" fill="#219EBC"/>
<path d="M101.822 117.117C128.103 67.741 226.458 60.1753 271.454 110.348M271.454 110.348H247.164M271.454 110.348V90.04" stroke="#219EBC" stroke-width="6.37113" stroke-linecap="round"/>
<defs>
<clipPath id="clip0_607_2706">
<rect width="62.915" height="83.6211" fill="white" transform="translate(277.027 109.552)"/>
</clipPath>
</defs>
</svg>
