<svg width="383" height="252" viewBox="0 0 383 252" fill="none" xmlns="http://www.w3.org/2000/svg">
<path d="M1.232 27V15.72H6.128C7.36533 15.72 8.32 16.0293 8.992 16.648C9.664 17.2667 10 18.1307 10 19.24C10 20.3493 9.664 21.2187 8.992 21.848C8.32 22.4667 7.36533 22.776 6.128 22.776H3.28V27H1.232ZM3.28 21.16H5.808C7.28 21.16 8.016 20.52 8.016 19.24C8.016 17.9707 7.28 17.336 5.808 17.336H3.28V21.16ZM11.3213 27V19.176H13.2733V20.552C13.6573 19.624 14.4786 19.112 15.7373 19.016L16.3453 18.968L16.4733 20.664L15.3213 20.776C14.0093 20.904 13.3533 21.576 13.3533 22.792V27H11.3213ZM21.3179 27.16C20.4325 27.16 19.6699 26.9947 19.0299 26.664C18.3899 26.3333 17.8939 25.864 17.5419 25.256C17.2005 24.648 17.0299 23.928 17.0299 23.096C17.0299 22.2853 17.1952 21.576 17.5259 20.968C17.8672 20.36 18.3312 19.8853 18.9179 19.544C19.5152 19.192 20.1925 19.016 20.9499 19.016C22.0592 19.016 22.9339 19.368 23.5739 20.072C24.2245 20.776 24.5499 21.736 24.5499 22.952V23.544H18.9499C19.0992 24.9413 19.8992 25.64 21.3499 25.64C21.7872 25.64 22.2245 25.576 22.6619 25.448C23.0992 25.3093 23.4992 25.096 23.8619 24.808L24.4219 26.152C24.0485 26.4613 23.5792 26.7067 23.0139 26.888C22.4485 27.0693 21.8832 27.16 21.3179 27.16ZM21.0299 20.376C20.4432 20.376 19.9685 20.5573 19.6059 20.92C19.2432 21.2827 19.0245 21.7733 18.9499 22.392H22.8859C22.8432 21.7413 22.6619 21.2453 22.3419 20.904C22.0325 20.552 21.5952 20.376 21.0299 20.376ZM26.1338 27V19.176H28.0858V20.392C28.3524 19.944 28.7098 19.6027 29.1578 19.368C29.6164 19.1333 30.1284 19.016 30.6938 19.016C32.5391 19.016 33.4618 20.088 33.4618 22.232V27H31.4618V22.328C31.4618 21.72 31.3444 21.2773 31.1098 21C30.8858 20.7227 30.5338 20.584 30.0538 20.584C29.4671 20.584 28.9978 20.7707 28.6458 21.144C28.3044 21.5067 28.1338 21.992 28.1338 22.6V27H26.1338ZM38.5011 27.16C37.8185 27.16 37.2158 26.9947 36.6931 26.664C36.1811 26.3333 35.7811 25.864 35.4931 25.256C35.2051 24.6373 35.0611 23.912 35.0611 23.08C35.0611 22.2373 35.2051 21.5173 35.4931 20.92C35.7811 20.312 36.1811 19.8427 36.6931 19.512C37.2158 19.1813 37.8185 19.016 38.5011 19.016C39.0558 19.016 39.5571 19.1387 40.0051 19.384C40.4531 19.6293 40.7891 19.9547 41.0131 20.36V15.72H43.0131V27H41.0611V25.704C40.8478 26.152 40.5118 26.5093 40.0531 26.776C39.5945 27.032 39.0771 27.16 38.5011 27.16ZM39.0611 25.64C39.6585 25.64 40.1385 25.4267 40.5011 25C40.8638 24.5627 41.0451 23.9227 41.0451 23.08C41.0451 22.2267 40.8638 21.592 40.5011 21.176C40.1385 20.7493 39.6585 20.536 39.0611 20.536C38.4638 20.536 37.9838 20.7493 37.6211 21.176C37.2585 21.592 37.0771 22.2267 37.0771 23.08C37.0771 23.9227 37.2585 24.5627 37.6211 25C37.9838 25.4267 38.4638 25.64 39.0611 25.64ZM45.0869 27V19.176H47.0389V20.552C47.4229 19.624 48.2442 19.112 49.5029 19.016L50.1109 18.968L50.2389 20.664L49.0869 20.776C47.7749 20.904 47.1189 21.576 47.1189 22.792V27H45.0869ZM55.0835 27.16C54.1982 27.16 53.4355 26.9947 52.7955 26.664C52.1555 26.3333 51.6595 25.864 51.3075 25.256C50.9662 24.648 50.7955 23.928 50.7955 23.096C50.7955 22.2853 50.9608 21.576 51.2915 20.968C51.6328 20.36 52.0968 19.8853 52.6835 19.544C53.2808 19.192 53.9582 19.016 54.7155 19.016C55.8248 19.016 56.6995 19.368 57.3395 20.072C57.9902 20.776 58.3155 21.736 58.3155 22.952V23.544H52.7155C52.8648 24.9413 53.6648 25.64 55.1155 25.64C55.5528 25.64 55.9902 25.576 56.4275 25.448C56.8648 25.3093 57.2648 25.096 57.6275 24.808L58.1875 26.152C57.8142 26.4613 57.3448 26.7067 56.7795 26.888C56.2142 27.0693 55.6488 27.16 55.0835 27.16ZM54.7955 20.376C54.2088 20.376 53.7342 20.5573 53.3715 20.92C53.0088 21.2827 52.7902 21.7733 52.7155 22.392H56.6515C56.6088 21.7413 56.4275 21.2453 56.1075 20.904C55.7982 20.552 55.3608 20.376 54.7955 20.376ZM67.0439 27.16C65.1239 27.16 64.1639 26.0827 64.1639 23.928V19.176H66.1639V23.96C66.1639 24.5147 66.2759 24.9253 66.4999 25.192C66.7239 25.4587 67.0812 25.592 67.5719 25.592C68.1052 25.592 68.5425 25.4107 68.8839 25.048C69.2252 24.6747 69.3959 24.184 69.3959 23.576V19.176H71.3959V27H69.4439V25.832C68.9212 26.7173 68.1212 27.16 67.0439 27.16ZM73.4775 27V19.176H75.4295V20.392C75.6962 19.944 76.0535 19.6027 76.5015 19.368C76.9602 19.1333 77.4722 19.016 78.0375 19.016C79.8828 19.016 80.8055 20.088 80.8055 22.232V27H78.8055V22.328C78.8055 21.72 78.6882 21.2773 78.4535 21C78.2295 20.7227 77.8775 20.584 77.3975 20.584C76.8108 20.584 76.3415 20.7707 75.9895 21.144C75.6482 21.5067 75.4775 21.992 75.4775 22.6V27H73.4775ZM90.9574 27L85.9334 15.72H88.1254L91.8534 24.376L95.5814 15.72H97.6934L92.6694 27H90.9574ZM103.714 27.16C102.541 27.16 101.533 26.9253 100.69 26.456C99.8584 25.976 99.2184 25.304 98.7704 24.44C98.3224 23.5653 98.0984 22.536 98.0984 21.352C98.0984 20.168 98.3224 19.144 98.7704 18.28C99.2184 17.416 99.8584 16.7493 100.69 16.28C101.533 15.8 102.541 15.56 103.714 15.56C104.472 15.56 105.186 15.6773 105.858 15.912C106.541 16.1467 107.101 16.4827 107.538 16.92L106.866 18.552C106.386 18.1467 105.896 17.8533 105.394 17.672C104.893 17.48 104.354 17.384 103.778 17.384C102.637 17.384 101.768 17.7307 101.17 18.424C100.573 19.1067 100.274 20.0827 100.274 21.352C100.274 22.6213 100.573 23.6027 101.17 24.296C101.768 24.9893 102.637 25.336 103.778 25.336C104.354 25.336 104.893 25.2453 105.394 25.064C105.896 24.872 106.386 24.5733 106.866 24.168L107.538 25.8C107.101 26.2267 106.541 26.5627 105.858 26.808C105.186 27.0427 104.472 27.16 103.714 27.16ZM111.763 27.16C109.843 27.16 108.883 26.0827 108.883 23.928V19.176H110.883V23.96C110.883 24.5147 110.995 24.9253 111.219 25.192C111.443 25.4587 111.8 25.592 112.291 25.592C112.824 25.592 113.261 25.4107 113.603 25.048C113.944 24.6747 114.115 24.184 114.115 23.576V19.176H116.115V27H114.163V25.832C113.64 26.7173 112.84 27.16 111.763 27.16ZM122.708 27.16C122.132 27.16 121.615 27.032 121.156 26.776C120.708 26.52 120.372 26.1733 120.148 25.736V27H118.196V15.72H120.196V20.328C120.431 19.9333 120.767 19.6187 121.204 19.384C121.652 19.1387 122.154 19.016 122.708 19.016C123.402 19.016 124.004 19.1813 124.516 19.512C125.028 19.8427 125.428 20.312 125.716 20.92C126.004 21.5173 126.148 22.2373 126.148 23.08C126.148 23.912 126.004 24.6373 125.716 25.256C125.428 25.864 125.023 26.3333 124.5 26.664C123.988 26.9947 123.391 27.16 122.708 27.16ZM122.148 25.64C122.746 25.64 123.226 25.4267 123.588 25C123.951 24.5627 124.132 23.9227 124.132 23.08C124.132 22.2267 123.951 21.592 123.588 21.176C123.226 20.7493 122.746 20.536 122.148 20.536C121.551 20.536 121.071 20.7493 120.708 21.176C120.346 21.592 120.164 22.2267 120.164 23.08C120.164 23.9227 120.346 24.5627 120.708 25C121.071 25.4267 121.551 25.64 122.148 25.64ZM135.111 27.16C134.428 27.16 133.825 26.9947 133.303 26.664C132.791 26.3333 132.391 25.864 132.103 25.256C131.815 24.6373 131.671 23.912 131.671 23.08C131.671 22.2373 131.815 21.5173 132.103 20.92C132.391 20.312 132.791 19.8427 133.303 19.512C133.825 19.1813 134.428 19.016 135.111 19.016C135.665 19.016 136.167 19.1387 136.615 19.384C137.063 19.6293 137.399 19.9547 137.623 20.36V15.72H139.623V27H137.671V25.704C137.457 26.152 137.121 26.5093 136.663 26.776C136.204 27.032 135.687 27.16 135.111 27.16ZM135.671 25.64C136.268 25.64 136.748 25.4267 137.111 25C137.473 24.5627 137.655 23.9227 137.655 23.08C137.655 22.2267 137.473 21.592 137.111 21.176C136.748 20.7493 136.268 20.536 135.671 20.536C135.073 20.536 134.593 20.7493 134.231 21.176C133.868 21.592 133.687 22.2267 133.687 23.08C133.687 23.9227 133.868 24.5627 134.231 25C134.593 25.4267 135.073 25.64 135.671 25.64ZM142.496 20.072L141.68 19.432C142.171 18.92 142.459 18.424 142.544 17.944H141.52V15.72H143.76V17.176C143.76 17.7307 143.664 18.2373 143.472 18.696C143.291 19.144 142.966 19.6027 142.496 20.072ZM148.497 27.16C146.577 27.16 145.617 26.0827 145.617 23.928V19.176H147.617V23.96C147.617 24.5147 147.729 24.9253 147.953 25.192C148.177 25.4587 148.534 25.592 149.025 25.592C149.558 25.592 149.996 25.4107 150.337 25.048C150.678 24.6747 150.849 24.184 150.849 23.576V19.176H152.849V27H150.897V25.832C150.374 26.7173 149.574 27.16 148.497 27.16ZM154.931 27V19.176H156.883V20.392C157.149 19.944 157.507 19.6027 157.955 19.368C158.413 19.1333 158.925 19.016 159.491 19.016C161.336 19.016 162.259 20.088 162.259 22.232V27H160.259V22.328C160.259 21.72 160.141 21.2773 159.907 21C159.683 20.7227 159.331 20.584 158.851 20.584C158.264 20.584 157.795 20.7707 157.443 21.144C157.101 21.5067 156.931 21.992 156.931 22.6V27H154.931ZM168.146 27.16C167.261 27.16 166.498 26.9947 165.858 26.664C165.218 26.3333 164.722 25.864 164.37 25.256C164.029 24.648 163.858 23.928 163.858 23.096C163.858 22.2853 164.023 21.576 164.354 20.968C164.695 20.36 165.159 19.8853 165.746 19.544C166.343 19.192 167.021 19.016 167.778 19.016C168.887 19.016 169.762 19.368 170.402 20.072C171.053 20.776 171.378 21.736 171.378 22.952V23.544H165.778C165.927 24.9413 166.727 25.64 168.178 25.64C168.615 25.64 169.053 25.576 169.49 25.448C169.927 25.3093 170.327 25.096 170.69 24.808L171.25 26.152C170.877 26.4613 170.407 26.7067 169.842 26.888C169.277 27.0693 168.711 27.16 168.146 27.16ZM167.858 20.376C167.271 20.376 166.797 20.5573 166.434 20.92C166.071 21.2827 165.853 21.7733 165.778 22.392H169.714C169.671 21.7413 169.49 21.2453 169.17 20.904C168.861 20.552 168.423 20.376 167.858 20.376ZM180.138 27.16C179.477 27.16 178.858 27.08 178.282 26.92C177.706 26.76 177.226 26.5307 176.842 26.232L177.354 24.92C177.749 25.1867 178.192 25.3947 178.682 25.544C179.173 25.6827 179.664 25.752 180.154 25.752C180.666 25.752 181.045 25.6667 181.29 25.496C181.546 25.3147 181.674 25.08 181.674 24.792C181.674 24.344 181.344 24.056 180.682 23.928L179.082 23.624C177.728 23.368 177.05 22.664 177.05 21.512C177.05 21 177.189 20.5573 177.466 20.184C177.754 19.8107 178.149 19.5227 178.65 19.32C179.152 19.1173 179.728 19.016 180.378 19.016C180.933 19.016 181.466 19.096 181.978 19.256C182.49 19.4053 182.928 19.6347 183.29 19.944L182.746 21.256C182.437 21 182.064 20.7973 181.626 20.648C181.2 20.4987 180.789 20.424 180.394 20.424C179.872 20.424 179.482 20.5147 179.226 20.696C178.981 20.8773 178.858 21.1173 178.858 21.416C178.858 21.8853 179.162 22.1733 179.77 22.28L181.37 22.584C182.064 22.712 182.586 22.9467 182.938 23.288C183.301 23.6293 183.482 24.088 183.482 24.664C183.482 25.4427 183.178 26.056 182.57 26.504C181.962 26.9413 181.152 27.16 180.138 27.16ZM188.593 27.16C186.523 27.16 185.489 26.136 185.489 24.088V20.68H183.985V19.176H185.489V16.84H187.489V19.176H189.857V20.68H187.489V23.976C187.489 24.488 187.601 24.872 187.825 25.128C188.049 25.384 188.411 25.512 188.913 25.512C189.062 25.512 189.217 25.496 189.377 25.464C189.537 25.4213 189.702 25.3787 189.873 25.336L190.177 26.808C189.985 26.9147 189.739 27 189.441 27.064C189.153 27.128 188.87 27.16 188.593 27.16ZM193.725 27.16C193.16 27.16 192.653 27.0533 192.205 26.84C191.768 26.616 191.421 26.3173 191.165 25.944C190.92 25.5707 190.797 25.1493 190.797 24.68C190.797 24.104 190.947 23.6507 191.245 23.32C191.544 22.9787 192.029 22.7333 192.701 22.584C193.373 22.4347 194.275 22.36 195.405 22.36H195.965V22.024C195.965 21.4907 195.848 21.1067 195.613 20.872C195.379 20.6373 194.984 20.52 194.429 20.52C193.992 20.52 193.544 20.5893 193.085 20.728C192.627 20.856 192.163 21.0587 191.693 21.336L191.117 19.976C191.395 19.784 191.72 19.6187 192.093 19.48C192.477 19.3307 192.877 19.2187 193.293 19.144C193.72 19.0587 194.12 19.016 194.493 19.016C195.635 19.016 196.483 19.2827 197.037 19.816C197.592 20.3387 197.869 21.1547 197.869 22.264V27H195.997V25.752C195.816 26.1893 195.528 26.536 195.133 26.792C194.739 27.0373 194.269 27.16 193.725 27.16ZM194.141 25.784C194.664 25.784 195.096 25.6027 195.437 25.24C195.789 24.8773 195.965 24.4187 195.965 23.864V23.512H195.421C194.419 23.512 193.72 23.592 193.325 23.752C192.941 23.9013 192.749 24.1787 192.749 24.584C192.749 24.936 192.872 25.224 193.117 25.448C193.363 25.672 193.704 25.784 194.141 25.784ZM203.483 27.16C201.414 27.16 200.379 26.136 200.379 24.088V20.68H198.875V19.176H200.379V16.84H202.379V19.176H204.747V20.68H202.379V23.976C202.379 24.488 202.491 24.872 202.715 25.128C202.939 25.384 203.302 25.512 203.803 25.512C203.953 25.512 204.107 25.496 204.267 25.464C204.427 25.4213 204.593 25.3787 204.763 25.336L205.067 26.808C204.875 26.9147 204.63 27 204.331 27.064C204.043 27.128 203.761 27.16 203.483 27.16ZM205.912 17.496V15.544H208.152V17.496H205.912ZM206.04 27V19.176H208.04V27H206.04ZM213.686 27.16C212.875 27.16 212.171 26.9947 211.574 26.664C210.977 26.3333 210.513 25.864 210.182 25.256C209.851 24.6373 209.686 23.912 209.686 23.08C209.686 22.248 209.851 21.528 210.182 20.92C210.513 20.312 210.977 19.8427 211.574 19.512C212.171 19.1813 212.875 19.016 213.686 19.016C214.497 19.016 215.201 19.1813 215.798 19.512C216.395 19.8427 216.859 20.312 217.19 20.92C217.521 21.528 217.686 22.248 217.686 23.08C217.686 23.912 217.521 24.6373 217.19 25.256C216.859 25.864 216.395 26.3333 215.798 26.664C215.201 26.9947 214.497 27.16 213.686 27.16ZM213.686 25.64C214.283 25.64 214.763 25.4267 215.126 25C215.489 24.5627 215.67 23.9227 215.67 23.08C215.67 22.2267 215.489 21.592 215.126 21.176C214.763 20.7493 214.283 20.536 213.686 20.536C213.089 20.536 212.609 20.7493 212.246 21.176C211.883 21.592 211.702 22.2267 211.702 23.08C211.702 23.9227 211.883 24.5627 212.246 25C212.609 25.4267 213.089 25.64 213.686 25.64ZM219.337 27V19.176H221.289V20.392C221.556 19.944 221.913 19.6027 222.361 19.368C222.82 19.1333 223.332 19.016 223.897 19.016C225.742 19.016 226.665 20.088 226.665 22.232V27H224.665V22.328C224.665 21.72 224.548 21.2773 224.313 21C224.089 20.7227 223.737 20.584 223.257 20.584C222.67 20.584 222.201 20.7707 221.849 21.144C221.508 21.5067 221.337 21.992 221.337 22.6V27H219.337ZM1.04 49V41.176H2.992V42.552C3.376 41.624 4.19733 41.112 5.456 41.016L6.064 40.968L6.192 42.664L5.04 42.776C3.728 42.904 3.072 43.576 3.072 44.792V49H1.04ZM11.0366 49.16C10.1513 49.16 9.38863 48.9947 8.74863 48.664C8.10863 48.3333 7.61263 47.864 7.26063 47.256C6.91929 46.648 6.74863 45.928 6.74863 45.096C6.74863 44.2853 6.91396 43.576 7.24463 42.968C7.58596 42.36 8.04996 41.8853 8.63663 41.544C9.23396 41.192 9.91129 41.016 10.6686 41.016C11.778 41.016 12.6526 41.368 13.2926 42.072C13.9433 42.776 14.2686 43.736 14.2686 44.952V45.544H8.66863C8.81796 46.9413 9.61796 47.64 11.0686 47.64C11.506 47.64 11.9433 47.576 12.3806 47.448C12.818 47.3093 13.218 47.096 13.5806 46.808L14.1406 48.152C13.7673 48.4613 13.298 48.7067 12.7326 48.888C12.1673 49.0693 11.602 49.16 11.0366 49.16ZM10.7486 42.376C10.162 42.376 9.68729 42.5573 9.32463 42.92C8.96196 43.2827 8.74329 43.7733 8.66863 44.392H12.6046C12.562 43.7413 12.3806 43.2453 12.0606 42.904C11.7513 42.552 11.314 42.376 10.7486 42.376ZM15.8845 49V41.176H17.8365V42.376C18.0712 41.9493 18.3965 41.6187 18.8125 41.384C19.2285 41.1387 19.7085 41.016 20.2525 41.016C21.4258 41.016 22.1938 41.528 22.5565 42.552C22.8018 42.072 23.1538 41.6987 23.6125 41.432C24.0712 41.1547 24.5938 41.016 25.1805 41.016C26.9405 41.016 27.8205 42.088 27.8205 44.232V49H25.8205V44.312C25.8205 43.7147 25.7192 43.2773 25.5165 43C25.3245 42.7227 24.9938 42.584 24.5245 42.584C24.0018 42.584 23.5912 42.7707 23.2925 43.144C22.9938 43.5067 22.8445 44.0133 22.8445 44.664V49H20.8445V44.312C20.8445 43.7147 20.7432 43.2773 20.5405 43C20.3485 42.7227 20.0232 42.584 19.5645 42.584C19.0418 42.584 18.6312 42.7707 18.3325 43.144C18.0338 43.5067 17.8845 44.0133 17.8845 44.664V49H15.8845ZM29.8838 51.88V41.176H31.8358V42.424C32.0598 41.9973 32.3958 41.656 32.8438 41.4C33.3024 41.144 33.8198 41.016 34.3958 41.016C35.0784 41.016 35.6758 41.1813 36.1878 41.512C36.7104 41.8427 37.1158 42.312 37.4038 42.92C37.6918 43.5173 37.8358 44.2373 37.8358 45.08C37.8358 45.912 37.6918 46.6373 37.4038 47.256C37.1158 47.864 36.7158 48.3333 36.2038 48.664C35.6918 48.9947 35.0891 49.16 34.3958 49.16C33.8411 49.16 33.3398 49.0427 32.8918 48.808C32.4544 48.5627 32.1184 48.2373 31.8838 47.832V51.88H29.8838ZM33.8358 47.64C34.4331 47.64 34.9131 47.4267 35.2758 47C35.6384 46.5627 35.8198 45.9227 35.8198 45.08C35.8198 44.2267 35.6384 43.592 35.2758 43.176C34.9131 42.7493 34.4331 42.536 33.8358 42.536C33.2384 42.536 32.7584 42.7493 32.3958 43.176C32.0331 43.592 31.8518 44.2267 31.8518 45.08C31.8518 45.9227 32.0331 46.5627 32.3958 47C32.7584 47.4267 33.2384 47.64 33.8358 47.64ZM42.1975 49.16C41.2695 49.16 40.5815 48.9093 40.1335 48.408C39.6962 47.896 39.4775 47.1493 39.4775 46.168V37.72H41.4775V46.072C41.4775 47.032 41.8828 47.512 42.6935 47.512C42.8108 47.512 42.9282 47.5067 43.0455 47.496C43.1628 47.4853 43.2748 47.464 43.3815 47.432L43.3495 49.016C42.9655 49.112 42.5815 49.16 42.1975 49.16ZM44.4589 39.496V37.544H46.6989V39.496H44.4589ZM44.5869 49V41.176H46.5869V49H44.5869ZM52.521 49.16C51.6357 49.16 50.873 48.9947 50.233 48.664C49.593 48.3333 49.097 47.864 48.745 47.256C48.4037 46.648 48.233 45.928 48.233 45.096C48.233 44.2853 48.3983 43.576 48.729 42.968C49.0703 42.36 49.5343 41.8853 50.121 41.544C50.7183 41.192 51.3957 41.016 52.153 41.016C53.2623 41.016 54.137 41.368 54.777 42.072C55.4277 42.776 55.753 43.736 55.753 44.952V45.544H50.153C50.3023 46.9413 51.1023 47.64 52.553 47.64C52.9903 47.64 53.4277 47.576 53.865 47.448C54.3023 47.3093 54.7023 47.096 55.065 46.808L55.625 48.152C55.2517 48.4613 54.7823 48.7067 54.217 48.888C53.6517 49.0693 53.0863 49.16 52.521 49.16ZM52.233 42.376C51.6463 42.376 51.1717 42.5573 50.809 42.92C50.4463 43.2827 50.2277 43.7733 50.153 44.392H54.089C54.0463 43.7413 53.865 43.2453 53.545 42.904C53.2357 42.552 52.7983 42.376 52.233 42.376ZM65.2174 49.16C64.4067 49.16 63.7027 48.9947 63.1054 48.664C62.508 48.3333 62.044 47.864 61.7134 47.256C61.3827 46.6373 61.2174 45.912 61.2174 45.08C61.2174 44.248 61.3827 43.528 61.7134 42.92C62.044 42.312 62.508 41.8427 63.1054 41.512C63.7027 41.1813 64.4067 41.016 65.2174 41.016C66.028 41.016 66.732 41.1813 67.3294 41.512C67.9267 41.8427 68.3907 42.312 68.7214 42.92C69.052 43.528 69.2174 44.248 69.2174 45.08C69.2174 45.912 69.052 46.6373 68.7214 47.256C68.3907 47.864 67.9267 48.3333 67.3294 48.664C66.732 48.9947 66.028 49.16 65.2174 49.16ZM65.2174 47.64C65.8147 47.64 66.2947 47.4267 66.6574 47C67.02 46.5627 67.2014 45.9227 67.2014 45.08C67.2014 44.2267 67.02 43.592 66.6574 43.176C66.2947 42.7493 65.8147 42.536 65.2174 42.536C64.62 42.536 64.14 42.7493 63.7774 43.176C63.4147 43.592 63.2334 44.2267 63.2334 45.08C63.2334 45.9227 63.4147 46.5627 63.7774 47C64.14 47.4267 64.62 47.64 65.2174 47.64ZM73.7001 49.16C71.7801 49.16 70.8201 48.0827 70.8201 45.928V41.176H72.8201V45.96C72.8201 46.5147 72.9321 46.9253 73.1561 47.192C73.3801 47.4587 73.7375 47.592 74.2281 47.592C74.7615 47.592 75.1988 47.4107 75.5401 47.048C75.8815 46.6747 76.0521 46.184 76.0521 45.576V41.176H78.0521V49H76.1001V47.832C75.5775 48.7173 74.7775 49.16 73.7001 49.16ZM84.4463 51.88V41.176H86.3983V42.424C86.6223 41.9973 86.9583 41.656 87.4062 41.4C87.8649 41.144 88.3823 41.016 88.9583 41.016C89.6409 41.016 90.2383 41.1813 90.7503 41.512C91.2729 41.8427 91.6783 42.312 91.9663 42.92C92.2543 43.5173 92.3983 44.2373 92.3983 45.08C92.3983 45.912 92.2543 46.6373 91.9663 47.256C91.6783 47.864 91.2783 48.3333 90.7663 48.664C90.2543 48.9947 89.6516 49.16 88.9583 49.16C88.4036 49.16 87.9023 49.0427 87.4543 48.808C87.0169 48.5627 86.6809 48.2373 86.4463 47.832V51.88H84.4463ZM88.3983 47.64C88.9956 47.64 89.4756 47.4267 89.8383 47C90.2009 46.5627 90.3823 45.9227 90.3823 45.08C90.3823 44.2267 90.2009 43.592 89.8383 43.176C89.4756 42.7493 88.9956 42.536 88.3983 42.536C87.8009 42.536 87.3209 42.7493 86.9583 43.176C86.5956 43.592 86.4143 44.2267 86.4143 45.08C86.4143 45.9227 86.5956 46.5627 86.9583 47C87.3209 47.4267 87.8009 47.64 88.3983 47.64ZM94.04 49V41.176H95.992V42.552C96.376 41.624 97.1973 41.112 98.456 41.016L99.064 40.968L99.192 42.664L98.04 42.776C96.728 42.904 96.072 43.576 96.072 44.792V49H94.04ZM104.037 49.16C103.151 49.16 102.389 48.9947 101.749 48.664C101.109 48.3333 100.613 47.864 100.261 47.256C99.9193 46.648 99.7486 45.928 99.7486 45.096C99.7486 44.2853 99.914 43.576 100.245 42.968C100.586 42.36 101.05 41.8853 101.637 41.544C102.234 41.192 102.911 41.016 103.669 41.016C104.778 41.016 105.653 41.368 106.293 42.072C106.943 42.776 107.269 43.736 107.269 44.952V45.544H101.669C101.818 46.9413 102.618 47.64 104.069 47.64C104.506 47.64 104.943 47.576 105.381 47.448C105.818 47.3093 106.218 47.096 106.581 46.808L107.141 48.152C106.767 48.4613 106.298 48.7067 105.733 48.888C105.167 49.0693 104.602 49.16 104.037 49.16ZM103.749 42.376C103.162 42.376 102.687 42.5573 102.325 42.92C101.962 43.2827 101.743 43.7733 101.669 44.392H105.605C105.562 43.7413 105.381 43.2453 105.061 42.904C104.751 42.552 104.314 42.376 103.749 42.376ZM111.717 49.16C111.055 49.16 110.437 49.08 109.861 48.92C109.285 48.76 108.805 48.5307 108.421 48.232L108.933 46.92C109.327 47.1867 109.77 47.3947 110.261 47.544C110.751 47.6827 111.242 47.752 111.733 47.752C112.245 47.752 112.623 47.6667 112.869 47.496C113.125 47.3147 113.253 47.08 113.253 46.792C113.253 46.344 112.922 46.056 112.261 45.928L110.661 45.624C109.306 45.368 108.629 44.664 108.629 43.512C108.629 43 108.767 42.5573 109.045 42.184C109.333 41.8107 109.727 41.5227 110.229 41.32C110.73 41.1173 111.306 41.016 111.957 41.016C112.511 41.016 113.045 41.096 113.557 41.256C114.069 41.4053 114.506 41.6347 114.869 41.944L114.325 43.256C114.015 43 113.642 42.7973 113.205 42.648C112.778 42.4987 112.367 42.424 111.973 42.424C111.45 42.424 111.061 42.5147 110.805 42.696C110.559 42.8773 110.437 43.1173 110.437 43.416C110.437 43.8853 110.741 44.1733 111.349 44.28L112.949 44.584C113.642 44.712 114.165 44.9467 114.517 45.288C114.879 45.6293 115.061 46.088 115.061 46.664C115.061 47.4427 114.757 48.056 114.149 48.504C113.541 48.9413 112.73 49.16 111.717 49.16ZM122.185 51.88V47.816C121.961 48.2213 121.625 48.5467 121.177 48.792C120.729 49.0373 120.228 49.16 119.673 49.16C118.99 49.16 118.388 48.9947 117.865 48.664C117.353 48.3333 116.953 47.864 116.665 47.256C116.377 46.6373 116.233 45.912 116.233 45.08C116.233 44.2373 116.377 43.5173 116.665 42.92C116.953 42.312 117.353 41.8427 117.865 41.512C118.388 41.1813 118.99 41.016 119.673 41.016C120.249 41.016 120.766 41.1493 121.225 41.416C121.684 41.672 122.02 42.0187 122.233 42.456V41.176H124.185V51.88H122.185ZM120.233 47.64C120.83 47.64 121.31 47.4267 121.673 47C122.036 46.5627 122.217 45.9227 122.217 45.08C122.217 44.2267 122.036 43.592 121.673 43.176C121.31 42.7493 120.83 42.536 120.233 42.536C119.636 42.536 119.156 42.7493 118.793 43.176C118.43 43.592 118.249 44.2267 118.249 45.08C118.249 45.9227 118.43 46.5627 118.793 47C119.156 47.4267 119.636 47.64 120.233 47.64ZM129.091 49.16C127.171 49.16 126.211 48.0827 126.211 45.928V41.176H128.211V45.96C128.211 46.5147 128.323 46.9253 128.547 47.192C128.771 47.4587 129.128 47.592 129.619 47.592C130.152 47.592 130.589 47.4107 130.931 47.048C131.272 46.6747 131.443 46.184 131.443 45.576V41.176H133.443V49H131.491V47.832C130.968 48.7173 130.168 49.16 129.091 49.16ZM139.38 49.16C138.495 49.16 137.732 48.9947 137.092 48.664C136.452 48.3333 135.956 47.864 135.604 47.256C135.263 46.648 135.092 45.928 135.092 45.096C135.092 44.2853 135.258 43.576 135.588 42.968C135.93 42.36 136.394 41.8853 136.98 41.544C137.578 41.192 138.255 41.016 139.012 41.016C140.122 41.016 140.996 41.368 141.636 42.072C142.287 42.776 142.612 43.736 142.612 44.952V45.544H137.012C137.162 46.9413 137.962 47.64 139.412 47.64C139.85 47.64 140.287 47.576 140.724 47.448C141.162 47.3093 141.562 47.096 141.924 46.808L142.484 48.152C142.111 48.4613 141.642 48.7067 141.076 48.888C140.511 49.0693 139.946 49.16 139.38 49.16ZM139.092 42.376C138.506 42.376 138.031 42.5573 137.668 42.92C137.306 43.2827 137.087 43.7733 137.012 44.392H140.948C140.906 43.7413 140.724 43.2453 140.404 42.904C140.095 42.552 139.658 42.376 139.092 42.376ZM148.509 49V41.176H150.461V42.552C150.845 41.624 151.666 41.112 152.925 41.016L153.533 40.968L153.661 42.664L152.509 42.776C151.197 42.904 150.541 43.576 150.541 44.792V49H148.509ZM158.505 49.16C157.62 49.16 156.857 48.9947 156.217 48.664C155.577 48.3333 155.081 47.864 154.729 47.256C154.388 46.648 154.217 45.928 154.217 45.096C154.217 44.2853 154.383 43.576 154.713 42.968C155.055 42.36 155.519 41.8853 156.105 41.544C156.703 41.192 157.38 41.016 158.137 41.016C159.247 41.016 160.121 41.368 160.761 42.072C161.412 42.776 161.737 43.736 161.737 44.952V45.544H156.137C156.287 46.9413 157.087 47.64 158.537 47.64C158.975 47.64 159.412 47.576 159.849 47.448C160.287 47.3093 160.687 47.096 161.049 46.808L161.609 48.152C161.236 48.4613 160.767 48.7067 160.201 48.888C159.636 49.0693 159.071 49.16 158.505 49.16ZM158.217 42.376C157.631 42.376 157.156 42.5573 156.793 42.92C156.431 43.2827 156.212 43.7733 156.137 44.392H160.073C160.031 43.7413 159.849 43.2453 159.529 42.904C159.22 42.552 158.783 42.376 158.217 42.376ZM163.353 49V41.176H165.305V42.376C165.54 41.9493 165.865 41.6187 166.281 41.384C166.697 41.1387 167.177 41.016 167.721 41.016C168.895 41.016 169.663 41.528 170.025 42.552C170.271 42.072 170.623 41.6987 171.081 41.432C171.54 41.1547 172.063 41.016 172.649 41.016C174.409 41.016 175.289 42.088 175.289 44.232V49H173.289V44.312C173.289 43.7147 173.188 43.2773 172.985 43C172.793 42.7227 172.463 42.584 171.993 42.584C171.471 42.584 171.06 42.7707 170.761 43.144C170.463 43.5067 170.313 44.0133 170.313 44.664V49H168.313V44.312C168.313 43.7147 168.212 43.2773 168.009 43C167.817 42.7227 167.492 42.584 167.033 42.584C166.511 42.584 166.1 42.7707 165.801 43.144C165.503 43.5067 165.353 44.0133 165.353 44.664V49H163.353ZM177.353 51.88V41.176H179.305V42.424C179.529 41.9973 179.865 41.656 180.312 41.4C180.771 41.144 181.289 41.016 181.865 41.016C182.547 41.016 183.145 41.1813 183.657 41.512C184.179 41.8427 184.585 42.312 184.873 42.92C185.161 43.5173 185.305 44.2373 185.305 45.08C185.305 45.912 185.161 46.6373 184.873 47.256C184.585 47.864 184.185 48.3333 183.673 48.664C183.161 48.9947 182.558 49.16 181.865 49.16C181.31 49.16 180.809 49.0427 180.361 48.808C179.923 48.5627 179.587 48.2373 179.353 47.832V51.88H177.353ZM181.305 47.64C181.902 47.64 182.382 47.4267 182.745 47C183.107 46.5627 183.289 45.9227 183.289 45.08C183.289 44.2267 183.107 43.592 182.745 43.176C182.382 42.7493 181.902 42.536 181.305 42.536C180.707 42.536 180.227 42.7493 179.865 43.176C179.502 43.592 179.321 44.2267 179.321 45.08C179.321 45.9227 179.502 46.5627 179.865 47C180.227 47.4267 180.707 47.64 181.305 47.64ZM189.666 49.16C188.738 49.16 188.05 48.9093 187.602 48.408C187.165 47.896 186.946 47.1493 186.946 46.168V37.72H188.946V46.072C188.946 47.032 189.352 47.512 190.162 47.512C190.28 47.512 190.397 47.5067 190.514 47.496C190.632 47.4853 190.744 47.464 190.85 47.432L190.818 49.016C190.434 49.112 190.05 49.16 189.666 49.16ZM191.928 39.496V37.544H194.168V39.496H191.928ZM192.056 49V41.176H194.056V49H192.056ZM199.99 49.16C199.104 49.16 198.342 48.9947 197.702 48.664C197.062 48.3333 196.566 47.864 196.214 47.256C195.872 46.648 195.702 45.928 195.702 45.096C195.702 44.2853 195.867 43.576 196.198 42.968C196.539 42.36 197.003 41.8853 197.59 41.544C198.187 41.192 198.864 41.016 199.622 41.016C200.731 41.016 201.606 41.368 202.246 42.072C202.896 42.776 203.222 43.736 203.222 44.952V45.544H197.622C197.771 46.9413 198.571 47.64 200.022 47.64C200.459 47.64 200.896 47.576 201.334 47.448C201.771 47.3093 202.171 47.096 202.534 46.808L203.094 48.152C202.72 48.4613 202.251 48.7067 201.686 48.888C201.12 49.0693 200.555 49.16 199.99 49.16ZM199.702 42.376C199.115 42.376 198.64 42.5573 198.278 42.92C197.915 43.2827 197.696 43.7733 197.622 44.392H201.558C201.515 43.7413 201.334 43.2453 201.014 42.904C200.704 42.552 200.267 42.376 199.702 42.376ZM206.124 43.592L204.908 42.888L206.06 41.128L203.98 41.24V39.848L206.076 39.976L204.924 38.2L206.14 37.496L207.116 39.512L208.076 37.496L209.292 38.216L208.14 39.976L210.236 39.848V41.24L208.14 41.128L209.292 42.888L208.076 43.592L207.1 41.56L206.124 43.592Z" fill="black"/>
<path d="M272.615 31.885V36.205H268.91V31.885H264.59V28.21H268.91V23.89H272.615V28.21H276.905V31.885H272.615ZM287.323 23.65C286.663 23.65 286.078 23.81 285.568 24.13C285.068 24.44 284.643 24.805 284.293 25.225C283.953 25.645 283.693 26.03 283.513 26.38C283.333 26.72 283.233 26.92 283.213 26.98L279.373 25.225C279.393 25.095 279.488 24.835 279.658 24.445C279.828 24.045 280.098 23.585 280.468 23.065C280.838 22.545 281.323 22.04 281.923 21.55C282.533 21.06 283.283 20.655 284.173 20.335C285.063 20.005 286.113 19.84 287.323 19.84C288.723 19.84 289.883 20.04 290.803 20.44C291.733 20.84 292.463 21.365 292.993 22.015C293.533 22.655 293.918 23.35 294.148 24.1C294.378 24.85 294.493 25.57 294.493 26.26C294.493 27.12 294.318 27.955 293.968 28.765C293.628 29.565 293.183 30.325 292.633 31.045C292.083 31.755 291.493 32.41 290.863 33.01C290.233 33.6 289.628 34.12 289.048 34.57C288.478 35.01 287.993 35.36 287.593 35.62C287.193 35.88 286.953 36.04 286.873 36.1H294.328V40H280.123V36.445C280.273 36.335 280.613 36.09 281.142 35.71C281.673 35.33 282.308 34.855 283.048 34.285C283.798 33.715 284.573 33.09 285.373 32.41C286.183 31.72 286.933 31.01 287.623 30.28C288.323 29.55 288.893 28.835 289.333 28.135C289.773 27.435 289.993 26.79 289.993 26.2C289.993 25.27 289.758 24.615 289.288 24.235C288.828 23.845 288.173 23.65 287.323 23.65ZM305.232 20.2H312.432C313.702 20.2 314.847 20.425 315.867 20.875C316.887 21.315 317.697 21.99 318.297 22.9C318.907 23.8 319.212 24.93 319.212 26.29C319.212 27.64 318.907 28.79 318.297 29.74C317.697 30.68 316.887 31.4 315.867 31.9C314.847 32.39 313.702 32.635 312.432 32.635H309.717V40H305.232V20.2ZM309.717 29.095H311.187C311.797 29.095 312.342 29.005 312.822 28.825C313.312 28.645 313.702 28.36 313.992 27.97C314.282 27.57 314.427 27.045 314.427 26.395C314.427 25.735 314.282 25.215 313.992 24.835C313.702 24.445 313.312 24.165 312.822 23.995C312.342 23.825 311.797 23.74 311.187 23.74H309.717V29.095ZM326.926 40.36C325.576 40.36 324.376 40.085 323.326 39.535C322.286 38.975 321.466 38.21 320.866 37.24C320.276 36.26 319.981 35.14 319.981 33.88C319.981 32.62 320.276 31.5 320.866 30.52C321.466 29.53 322.286 28.75 323.326 28.18C324.376 27.61 325.576 27.325 326.926 27.325C328.276 27.325 329.466 27.61 330.496 28.18C331.526 28.75 332.331 29.53 332.911 30.52C333.491 31.5 333.781 32.62 333.781 33.88C333.781 35.14 333.491 36.26 332.911 37.24C332.331 38.21 331.526 38.975 330.496 39.535C329.466 40.085 328.276 40.36 326.926 40.36ZM326.926 36.61C327.446 36.61 327.896 36.495 328.276 36.265C328.656 36.035 328.951 35.71 329.161 35.29C329.371 34.87 329.476 34.395 329.476 33.865C329.476 33.325 329.371 32.845 329.161 32.425C328.951 32.005 328.656 31.675 328.276 31.435C327.896 31.195 327.446 31.075 326.926 31.075C326.406 31.075 325.951 31.195 325.561 31.435C325.181 31.675 324.881 32.005 324.661 32.425C324.451 32.845 324.346 33.325 324.346 33.865C324.346 34.395 324.451 34.87 324.661 35.29C324.881 35.71 325.181 36.035 325.561 36.265C325.951 36.495 326.406 36.61 326.926 36.61ZM336.305 40V27.685H340.865V40H336.305ZM338.645 25.15C337.925 25.15 337.315 24.9 336.815 24.4C336.315 23.89 336.065 23.285 336.065 22.585C336.065 21.885 336.315 21.28 336.815 20.77C337.325 20.25 337.935 19.99 338.645 19.99C339.115 19.99 339.545 20.11 339.935 20.35C340.325 20.58 340.64 20.89 340.88 21.28C341.12 21.67 341.24 22.105 341.24 22.585C341.24 23.285 340.985 23.89 340.475 24.4C339.965 24.9 339.355 25.15 338.645 25.15ZM352.481 27.325C353.341 27.325 354.181 27.5 355.001 27.85C355.821 28.2 356.496 28.755 357.026 29.515C357.556 30.265 357.821 31.255 357.821 32.485V40H353.246V33.235C353.246 32.355 353.036 31.695 352.616 31.255C352.196 30.805 351.646 30.58 350.966 30.58C350.516 30.58 350.091 30.7 349.691 30.94C349.301 31.17 348.981 31.5 348.731 31.93C348.491 32.35 348.371 32.835 348.371 33.385V40H343.811V27.685H348.371V29.5C348.491 29.17 348.741 28.84 349.121 28.51C349.511 28.17 349.996 27.89 350.576 27.67C351.166 27.44 351.801 27.325 352.481 27.325ZM359.421 27.685H361.521V22.63H366.036V27.685H368.796V31.435H366.036V34.87C366.036 35.38 366.111 35.795 366.261 36.115C366.411 36.425 366.686 36.58 367.086 36.58C367.356 36.58 367.586 36.52 367.776 36.4C367.966 36.28 368.081 36.2 368.121 36.16L369.681 39.4C369.611 39.46 369.391 39.57 369.021 39.73C368.661 39.89 368.201 40.035 367.641 40.165C367.081 40.295 366.456 40.36 365.766 40.36C364.536 40.36 363.521 40.015 362.721 39.325C361.921 38.625 361.521 37.55 361.521 36.1V31.435H359.421V27.685ZM376.889 27.325C377.699 27.325 378.439 27.395 379.109 27.535C379.779 27.665 380.339 27.815 380.789 27.985C381.249 28.155 381.544 28.295 381.674 28.405L380.189 31.09C379.999 30.95 379.644 30.77 379.124 30.55C378.614 30.33 378.044 30.22 377.414 30.22C376.934 30.22 376.529 30.295 376.199 30.445C375.869 30.585 375.704 30.81 375.704 31.12C375.704 31.43 375.884 31.68 376.244 31.87C376.614 32.05 377.144 32.21 377.834 32.35C378.434 32.47 379.044 32.66 379.664 32.92C380.284 33.18 380.799 33.565 381.209 34.075C381.629 34.575 381.839 35.245 381.839 36.085C381.839 36.945 381.654 37.655 381.284 38.215C380.914 38.775 380.424 39.21 379.814 39.52C379.204 39.83 378.544 40.045 377.834 40.165C377.124 40.295 376.434 40.36 375.764 40.36C374.824 40.36 374.004 40.275 373.304 40.105C372.614 39.935 372.054 39.74 371.624 39.52C371.194 39.3 370.894 39.125 370.724 38.995L372.194 35.995C372.454 36.215 372.879 36.465 373.469 36.745C374.059 37.015 374.684 37.15 375.344 37.15C375.984 37.15 376.479 37.055 376.829 36.865C377.179 36.675 377.354 36.425 377.354 36.115C377.354 35.865 377.269 35.665 377.099 35.515C376.929 35.365 376.689 35.235 376.379 35.125C376.069 35.015 375.694 34.915 375.254 34.825C374.854 34.745 374.429 34.62 373.979 34.45C373.529 34.28 373.104 34.05 372.704 33.76C372.304 33.46 371.979 33.085 371.729 32.635C371.479 32.185 371.354 31.64 371.354 31C371.354 30.18 371.619 29.5 372.149 28.96C372.679 28.42 373.364 28.015 374.204 27.745C375.044 27.465 375.939 27.325 376.889 27.325Z" fill="black"/>
<path d="M333.604 177.244C337.408 177.244 340.521 174.039 340.521 170.122C340.521 166.205 337.408 163 333.604 163C329.8 163 326.687 166.205 326.687 170.122C326.687 174.039 329.8 177.244 333.604 177.244ZM297.292 200.39C287.608 200.39 280 208.224 280 218.195C280 228.166 287.608 236 297.292 236C306.975 236 314.583 228.166 314.583 218.195C314.583 208.224 306.975 200.39 297.292 200.39ZM297.292 230.659C290.721 230.659 285.187 224.961 285.187 218.195C285.187 211.429 290.721 205.732 297.292 205.732C303.862 205.732 309.396 211.429 309.396 218.195C309.396 224.961 303.862 230.659 297.292 230.659ZM317.35 195.049L325.65 186.502L328.417 189.351C332.912 193.98 338.792 196.829 346.054 196.829V189.707C340.867 189.707 336.717 187.571 333.604 184.366L327.033 177.6C325.304 176.176 323.575 175.463 321.5 175.463C319.425 175.463 317.696 176.176 316.658 177.6L306.975 187.571C305.592 188.995 304.9 190.776 304.9 192.556C304.9 194.693 305.592 196.473 306.975 197.541L318.042 207.512V225.317H324.958V203.239L317.35 195.049ZM345.708 200.39C336.025 200.39 328.417 208.224 328.417 218.195C328.417 228.166 336.025 236 345.708 236C355.392 236 363 228.166 363 218.195C363 208.224 355.392 200.39 345.708 200.39ZM345.708 230.659C339.137 230.659 333.604 224.961 333.604 218.195C333.604 211.429 339.137 205.732 345.708 205.732C352.279 205.732 357.812 211.429 357.812 218.195C357.812 224.961 352.279 230.659 345.708 230.659Z" fill="#219EBC"/>
<g clip-path="url(#clip0_650_2997)">
<path d="M62.4403 249.9C32.5476 206.684 27 202.252 27 186.375C27 164.627 44.6828 147 66.5 147C88.3172 147 106 164.627 106 186.375C106 202.252 100.452 206.675 70.5597 249.882C70.1058 250.534 69.5006 251.067 68.7957 251.435C68.0908 251.804 67.3071 251.997 66.5112 251.999C65.7152 252.001 64.9307 251.811 64.2242 251.445C63.5177 251.08 62.9102 250.55 62.4534 249.9L62.4447 249.882L62.4403 249.9Z" fill="#FF8811"/>
</g>
<path fill-rule="evenodd" clip-rule="evenodd" d="M41.542 166C36.8304 171.705 34 179.022 34 187C34 197.932 37.128 202.39 52.0911 223.715C55.3418 228.348 59.1512 233.776 63.6083 240.241L63.612 240.226L63.6193 240.241C64.001 240.785 64.5085 241.23 65.0987 241.536C65.6889 241.842 66.3444 242.001 67.0093 242C67.6743 241.999 68.3291 241.837 68.9179 241.528C69.5068 241.219 70.0124 240.772 70.3917 240.226C74.8558 233.753 78.6701 228.318 81.9242 223.682C96.8742 202.382 100 197.928 100 187C100 179.022 97.1696 171.705 92.458 166H41.542Z" fill="#FFB703"/>
<path d="M56.7112 179.885L53.5612 181.535V177.275L59.0812 174.2H61.1962V194H56.7112V179.885ZM63.6606 184.115C63.6606 182.395 63.8756 180.895 64.3056 179.615C64.7456 178.325 65.3406 177.255 66.0906 176.405C66.8506 175.545 67.7106 174.905 68.6706 174.485C69.6406 174.055 70.6556 173.84 71.7156 173.84C72.7756 173.84 73.7856 174.055 74.7456 174.485C75.7156 174.905 76.5756 175.545 77.3256 176.405C78.0756 177.255 78.6656 178.325 79.0956 179.615C79.5256 180.895 79.7406 182.395 79.7406 184.115C79.7406 185.945 79.5256 187.51 79.0956 188.81C78.6656 190.11 78.0756 191.17 77.3256 191.99C76.5756 192.8 75.7156 193.4 74.7456 193.79C73.7856 194.17 72.7756 194.36 71.7156 194.36C70.6556 194.36 69.6406 194.17 68.6706 193.79C67.7106 193.4 66.8506 192.8 66.0906 191.99C65.3406 191.17 64.7456 190.11 64.3056 188.81C63.8756 187.51 63.6606 185.945 63.6606 184.115ZM68.1606 184.115C68.1606 185.545 68.3056 186.725 68.5956 187.655C68.8856 188.585 69.2956 189.28 69.8256 189.74C70.3556 190.19 70.9856 190.415 71.7156 190.415C72.4456 190.415 73.0706 190.19 73.5906 189.74C74.1206 189.28 74.5256 188.585 74.8056 187.655C75.0956 186.715 75.2406 185.535 75.2406 184.115C75.2406 182.775 75.0956 181.635 74.8056 180.695C74.5256 179.755 74.1206 179.035 73.5906 178.535C73.0706 178.035 72.4456 177.785 71.7156 177.785C70.9856 177.785 70.3556 178.035 69.8256 178.535C69.2956 179.035 68.8856 179.755 68.5956 180.695C68.3056 181.635 68.1606 182.775 68.1606 184.115Z" fill="#FAFAFA"/>
<path d="M94.0004 139.057C133.606 81.0536 257.403 85.1669 306.646 153.988M306.646 153.988L276.331 150.64M306.646 153.988L309.445 128.642" stroke="#219EBC" stroke-width="8" stroke-linecap="round"/>
<defs>
<clipPath id="clip0_650_2997">
<rect width="79" height="105" fill="white" transform="translate(27 147)"/>
</clipPath>
</defs>
</svg>
