<svg width="426" height="307" viewBox="0 0 426 307" fill="none" xmlns="http://www.w3.org/2000/svg">
<path d="M316.553 16.885V21.205H312.848V16.885H308.528V13.21H312.848V8.89H316.553V13.21H320.843V16.885H316.553ZM323.88 9.16C323.99 8.76 324.205 8.31 324.525 7.81C324.845 7.31 325.28 6.835 325.83 6.385C326.39 5.935 327.07 5.565 327.87 5.275C328.68 4.985 329.615 4.84 330.675 4.84C331.935 4.84 333.05 5.075 334.02 5.545C335 6.005 335.77 6.65 336.33 7.48C336.89 8.31 337.17 9.28 337.17 10.39C337.17 11.06 337.05 11.675 336.81 12.235C336.57 12.785 336.26 13.245 335.88 13.615C335.5 13.985 335.1 14.225 334.68 14.335C335.17 14.395 335.66 14.62 336.15 15.01C336.65 15.4 337.07 15.92 337.41 16.57C337.76 17.22 337.935 17.985 337.935 18.865C337.935 20.125 337.615 21.245 336.975 22.225C336.345 23.195 335.48 23.96 334.38 24.52C333.28 25.08 332.02 25.36 330.6 25.36C329.13 25.36 327.88 25.1 326.85 24.58C325.83 24.06 325.015 23.425 324.405 22.675C323.805 21.925 323.405 21.2 323.205 20.5L327.315 18.46C327.435 18.89 327.635 19.34 327.915 19.81C328.205 20.28 328.575 20.68 329.025 21.01C329.475 21.33 329.995 21.49 330.585 21.49C331.195 21.49 331.715 21.37 332.145 21.13C332.575 20.89 332.905 20.565 333.135 20.155C333.375 19.735 333.495 19.255 333.495 18.715C333.495 18.155 333.36 17.69 333.09 17.32C332.83 16.95 332.48 16.675 332.04 16.495C331.6 16.315 331.115 16.225 330.585 16.225H330.195V13.015H330.705C331.165 13.015 331.58 12.925 331.95 12.745C332.32 12.555 332.61 12.29 332.82 11.95C333.04 11.6 333.15 11.19 333.15 10.72C333.15 10.09 332.935 9.555 332.505 9.115C332.075 8.665 331.45 8.44 330.63 8.44C330.13 8.44 329.69 8.53 329.31 8.71C328.94 8.88 328.63 9.1 328.38 9.37C328.13 9.63 327.93 9.9 327.78 10.18C327.64 10.45 327.55 10.685 327.51 10.885L323.88 9.16ZM348.232 5.2H355.432C356.702 5.2 357.847 5.425 358.867 5.875C359.887 6.315 360.697 6.99 361.297 7.9C361.907 8.8 362.212 9.93 362.212 11.29C362.212 12.64 361.907 13.79 361.297 14.74C360.697 15.68 359.887 16.4 358.867 16.9C357.847 17.39 356.702 17.635 355.432 17.635H352.717V25H348.232V5.2ZM352.717 14.095H354.187C354.797 14.095 355.342 14.005 355.822 13.825C356.312 13.645 356.702 13.36 356.992 12.97C357.282 12.57 357.427 12.045 357.427 11.395C357.427 10.735 357.282 10.215 356.992 9.835C356.702 9.445 356.312 9.165 355.822 8.995C355.342 8.825 354.797 8.74 354.187 8.74H352.717V14.095ZM369.926 25.36C368.576 25.36 367.376 25.085 366.326 24.535C365.286 23.975 364.466 23.21 363.866 22.24C363.276 21.26 362.981 20.14 362.981 18.88C362.981 17.62 363.276 16.5 363.866 15.52C364.466 14.53 365.286 13.75 366.326 13.18C367.376 12.61 368.576 12.325 369.926 12.325C371.276 12.325 372.466 12.61 373.496 13.18C374.526 13.75 375.331 14.53 375.911 15.52C376.491 16.5 376.781 17.62 376.781 18.88C376.781 20.14 376.491 21.26 375.911 22.24C375.331 23.21 374.526 23.975 373.496 24.535C372.466 25.085 371.276 25.36 369.926 25.36ZM369.926 21.61C370.446 21.61 370.896 21.495 371.276 21.265C371.656 21.035 371.951 20.71 372.161 20.29C372.371 19.87 372.476 19.395 372.476 18.865C372.476 18.325 372.371 17.845 372.161 17.425C371.951 17.005 371.656 16.675 371.276 16.435C370.896 16.195 370.446 16.075 369.926 16.075C369.406 16.075 368.951 16.195 368.561 16.435C368.181 16.675 367.881 17.005 367.661 17.425C367.451 17.845 367.346 18.325 367.346 18.865C367.346 19.395 367.451 19.87 367.661 20.29C367.881 20.71 368.181 21.035 368.561 21.265C368.951 21.495 369.406 21.61 369.926 21.61ZM379.305 25V12.685H383.865V25H379.305ZM381.645 10.15C380.925 10.15 380.315 9.9 379.815 9.4C379.315 8.89 379.065 8.285 379.065 7.585C379.065 6.885 379.315 6.28 379.815 5.77C380.325 5.25 380.935 4.99 381.645 4.99C382.115 4.99 382.545 5.11 382.935 5.35C383.325 5.58 383.64 5.89 383.88 6.28C384.12 6.67 384.24 7.105 384.24 7.585C384.24 8.285 383.985 8.89 383.475 9.4C382.965 9.9 382.355 10.15 381.645 10.15ZM395.481 12.325C396.341 12.325 397.181 12.5 398.001 12.85C398.821 13.2 399.496 13.755 400.026 14.515C400.556 15.265 400.821 16.255 400.821 17.485V25H396.246V18.235C396.246 17.355 396.036 16.695 395.616 16.255C395.196 15.805 394.646 15.58 393.966 15.58C393.516 15.58 393.091 15.7 392.691 15.94C392.301 16.17 391.981 16.5 391.731 16.93C391.491 17.35 391.371 17.835 391.371 18.385V25H386.811V12.685H391.371V14.5C391.491 14.17 391.741 13.84 392.121 13.51C392.511 13.17 392.996 12.89 393.576 12.67C394.166 12.44 394.801 12.325 395.481 12.325ZM402.421 12.685H404.521V7.63H409.036V12.685H411.796V16.435H409.036V19.87C409.036 20.38 409.111 20.795 409.261 21.115C409.411 21.425 409.686 21.58 410.086 21.58C410.356 21.58 410.586 21.52 410.776 21.4C410.966 21.28 411.081 21.2 411.121 21.16L412.681 24.4C412.611 24.46 412.391 24.57 412.021 24.73C411.661 24.89 411.201 25.035 410.641 25.165C410.081 25.295 409.456 25.36 408.766 25.36C407.536 25.36 406.521 25.015 405.721 24.325C404.921 23.625 404.521 22.55 404.521 21.1V16.435H402.421V12.685ZM419.889 12.325C420.699 12.325 421.439 12.395 422.109 12.535C422.779 12.665 423.339 12.815 423.789 12.985C424.249 13.155 424.544 13.295 424.674 13.405L423.189 16.09C422.999 15.95 422.644 15.77 422.124 15.55C421.614 15.33 421.044 15.22 420.414 15.22C419.934 15.22 419.529 15.295 419.199 15.445C418.869 15.585 418.704 15.81 418.704 16.12C418.704 16.43 418.884 16.68 419.244 16.87C419.614 17.05 420.144 17.21 420.834 17.35C421.434 17.47 422.044 17.66 422.664 17.92C423.284 18.18 423.799 18.565 424.209 19.075C424.629 19.575 424.839 20.245 424.839 21.085C424.839 21.945 424.654 22.655 424.284 23.215C423.914 23.775 423.424 24.21 422.814 24.52C422.204 24.83 421.544 25.045 420.834 25.165C420.124 25.295 419.434 25.36 418.764 25.36C417.824 25.36 417.004 25.275 416.304 25.105C415.614 24.935 415.054 24.74 414.624 24.52C414.194 24.3 413.894 24.125 413.724 23.995L415.194 20.995C415.454 21.215 415.879 21.465 416.469 21.745C417.059 22.015 417.684 22.15 418.344 22.15C418.984 22.15 419.479 22.055 419.829 21.865C420.179 21.675 420.354 21.425 420.354 21.115C420.354 20.865 420.269 20.665 420.099 20.515C419.929 20.365 419.689 20.235 419.379 20.125C419.069 20.015 418.694 19.915 418.254 19.825C417.854 19.745 417.429 19.62 416.979 19.45C416.529 19.28 416.104 19.05 415.704 18.76C415.304 18.46 414.979 18.085 414.729 17.635C414.479 17.185 414.354 16.64 414.354 16C414.354 15.18 414.619 14.5 415.149 13.96C415.679 13.42 416.364 13.015 417.204 12.745C418.044 12.465 418.939 12.325 419.889 12.325Z" fill="black"/>
<path d="M44.6617 25V13.72H46.7097V23.256H52.1177V25H44.6617ZM57.2319 25.16C56.3466 25.16 55.5839 24.9947 54.9439 24.664C54.3039 24.3333 53.8079 23.864 53.4559 23.256C53.1146 22.648 52.9439 21.928 52.9439 21.096C52.9439 20.2853 53.1093 19.576 53.4399 18.968C53.7813 18.36 54.2453 17.8853 54.8319 17.544C55.4293 17.192 56.1066 17.016 56.8639 17.016C57.9733 17.016 58.8479 17.368 59.4879 18.072C60.1386 18.776 60.4639 19.736 60.4639 20.952V21.544H54.8639C55.0133 22.9413 55.8133 23.64 57.2639 23.64C57.7013 23.64 58.1386 23.576 58.5759 23.448C59.0133 23.3093 59.4133 23.096 59.7759 22.808L60.3359 24.152C59.9626 24.4613 59.4933 24.7067 58.9279 24.888C58.3626 25.0693 57.7973 25.16 57.2319 25.16ZM56.9439 18.376C56.3573 18.376 55.8826 18.5573 55.5199 18.92C55.1573 19.2827 54.9386 19.7733 54.8639 20.392H58.7999C58.7573 19.7413 58.5759 19.2453 58.2559 18.904C57.9466 18.552 57.5093 18.376 56.9439 18.376ZM64.9118 25.16C64.2505 25.16 63.6318 25.08 63.0558 24.92C62.4798 24.76 61.9998 24.5307 61.6158 24.232L62.1278 22.92C62.5225 23.1867 62.9651 23.3947 63.4558 23.544C63.9465 23.6827 64.4371 23.752 64.9278 23.752C65.4398 23.752 65.8185 23.6667 66.0638 23.496C66.3198 23.3147 66.4478 23.08 66.4478 22.792C66.4478 22.344 66.1171 22.056 65.4558 21.928L63.8558 21.624C62.5011 21.368 61.8238 20.664 61.8238 19.512C61.8238 19 61.9625 18.5573 62.2398 18.184C62.5278 17.8107 62.9225 17.5227 63.4238 17.32C63.9251 17.1173 64.5011 17.016 65.1518 17.016C65.7065 17.016 66.2398 17.096 66.7518 17.256C67.2638 17.4053 67.7011 17.6347 68.0638 17.944L67.5198 19.256C67.2105 19 66.8371 18.7973 66.3998 18.648C65.9731 18.4987 65.5625 18.424 65.1678 18.424C64.6451 18.424 64.2558 18.5147 63.9998 18.696C63.7545 18.8773 63.6318 19.1173 63.6318 19.416C63.6318 19.8853 63.9358 20.1733 64.5438 20.28L66.1438 20.584C66.8371 20.712 67.3598 20.9467 67.7118 21.288C68.0745 21.6293 68.2558 22.088 68.2558 22.664C68.2558 23.4427 67.9518 24.056 67.3438 24.504C66.7358 24.9413 65.9251 25.16 64.9118 25.16ZM74.1728 27.88V17.176H76.1248V18.424C76.3488 17.9973 76.6848 17.656 77.1328 17.4C77.5915 17.144 78.1088 17.016 78.6848 17.016C79.3675 17.016 79.9648 17.1813 80.4768 17.512C80.9995 17.8427 81.4048 18.312 81.6928 18.92C81.9808 19.5173 82.1248 20.2373 82.1248 21.08C82.1248 21.912 81.9808 22.6373 81.6928 23.256C81.4048 23.864 81.0048 24.3333 80.4928 24.664C79.9808 24.9947 79.3781 25.16 78.6848 25.16C78.1301 25.16 77.6288 25.0427 77.1808 24.808C76.7435 24.5627 76.4075 24.2373 76.1728 23.832V27.88H74.1728ZM78.1248 23.64C78.7221 23.64 79.2021 23.4267 79.5648 23C79.9275 22.5627 80.1088 21.9227 80.1088 21.08C80.1088 20.2267 79.9275 19.592 79.5648 19.176C79.2021 18.7493 78.7221 18.536 78.1248 18.536C77.5275 18.536 77.0475 18.7493 76.6848 19.176C76.3221 19.592 76.1408 20.2267 76.1408 21.08C76.1408 21.9227 76.3221 22.5627 76.6848 23C77.0475 23.4267 77.5275 23.64 78.1248 23.64ZM87.3346 25.16C86.5239 25.16 85.8199 24.9947 85.2226 24.664C84.6252 24.3333 84.1612 23.864 83.8306 23.256C83.4999 22.6373 83.3346 21.912 83.3346 21.08C83.3346 20.248 83.4999 19.528 83.8306 18.92C84.1612 18.312 84.6252 17.8427 85.2226 17.512C85.8199 17.1813 86.5239 17.016 87.3346 17.016C88.1452 17.016 88.8492 17.1813 89.4466 17.512C90.0439 17.8427 90.5079 18.312 90.8386 18.92C91.1692 19.528 91.3346 20.248 91.3346 21.08C91.3346 21.912 91.1692 22.6373 90.8386 23.256C90.5079 23.864 90.0439 24.3333 89.4466 24.664C88.8492 24.9947 88.1452 25.16 87.3346 25.16ZM87.3346 23.64C87.9319 23.64 88.4119 23.4267 88.7746 23C89.1372 22.5627 89.3186 21.9227 89.3186 21.08C89.3186 20.2267 89.1372 19.592 88.7746 19.176C88.4119 18.7493 87.9319 18.536 87.3346 18.536C86.7372 18.536 86.2572 18.7493 85.8946 19.176C85.5319 19.592 85.3506 20.2267 85.3506 21.08C85.3506 21.9227 85.5319 22.5627 85.8946 23C86.2572 23.4267 86.7372 23.64 87.3346 23.64ZM92.8573 15.496V13.544H95.0973V15.496H92.8573ZM92.9853 25V17.176H94.9853V25H92.9853ZM97.0634 25V17.176H99.0154V18.392C99.2821 17.944 99.6394 17.6027 100.087 17.368C100.546 17.1333 101.058 17.016 101.623 17.016C103.469 17.016 104.391 18.088 104.391 20.232V25H102.391V20.328C102.391 19.72 102.274 19.2773 102.039 19C101.815 18.7227 101.463 18.584 100.983 18.584C100.397 18.584 99.9274 18.7707 99.5754 19.144C99.2341 19.5067 99.0634 19.992 99.0634 20.6V25H97.0634ZM110.007 25.16C107.937 25.16 106.903 24.136 106.903 22.088V18.68H105.399V17.176H106.903V14.84H108.903V17.176H111.271V18.68H108.903V21.976C108.903 22.488 109.015 22.872 109.239 23.128C109.463 23.384 109.825 23.512 110.327 23.512C110.476 23.512 110.631 23.496 110.791 23.464C110.951 23.4213 111.116 23.3787 111.287 23.336L111.591 24.808C111.399 24.9147 111.153 25 110.855 25.064C110.567 25.128 110.284 25.16 110.007 25.16ZM115.427 25.16C114.766 25.16 114.147 25.08 113.571 24.92C112.995 24.76 112.515 24.5307 112.131 24.232L112.643 22.92C113.038 23.1867 113.481 23.3947 113.971 23.544C114.462 23.6827 114.953 23.752 115.443 23.752C115.955 23.752 116.334 23.6667 116.579 23.496C116.835 23.3147 116.963 23.08 116.963 22.792C116.963 22.344 116.633 22.056 115.971 21.928L114.371 21.624C113.017 21.368 112.339 20.664 112.339 19.512C112.339 19 112.478 18.5573 112.755 18.184C113.043 17.8107 113.438 17.5227 113.939 17.32C114.441 17.1173 115.017 17.016 115.667 17.016C116.222 17.016 116.755 17.096 117.267 17.256C117.779 17.4053 118.217 17.6347 118.579 17.944L118.035 19.256C117.726 19 117.353 18.7973 116.915 18.648C116.489 18.4987 116.078 18.424 115.683 18.424C115.161 18.424 114.771 18.5147 114.515 18.696C114.27 18.8773 114.147 19.1173 114.147 19.416C114.147 19.8853 114.451 20.1733 115.059 20.28L116.659 20.584C117.353 20.712 117.875 20.9467 118.227 21.288C118.59 21.6293 118.771 22.088 118.771 22.664C118.771 23.4427 118.467 24.056 117.859 24.504C117.251 24.9413 116.441 25.16 115.427 25.16ZM127.552 25.16C126.891 25.16 126.272 25.08 125.696 24.92C125.12 24.76 124.64 24.5307 124.256 24.232L124.768 22.92C125.163 23.1867 125.606 23.3947 126.096 23.544C126.587 23.6827 127.078 23.752 127.568 23.752C128.08 23.752 128.459 23.6667 128.704 23.496C128.96 23.3147 129.088 23.08 129.088 22.792C129.088 22.344 128.758 22.056 128.096 21.928L126.496 21.624C125.142 21.368 124.464 20.664 124.464 19.512C124.464 19 124.603 18.5573 124.88 18.184C125.168 17.8107 125.563 17.5227 126.064 17.32C126.566 17.1173 127.142 17.016 127.792 17.016C128.347 17.016 128.88 17.096 129.392 17.256C129.904 17.4053 130.342 17.6347 130.704 17.944L130.16 19.256C129.851 19 129.478 18.7973 129.04 18.648C128.614 18.4987 128.203 18.424 127.808 18.424C127.286 18.424 126.896 18.5147 126.64 18.696C126.395 18.8773 126.272 19.1173 126.272 19.416C126.272 19.8853 126.576 20.1733 127.184 20.28L128.784 20.584C129.478 20.712 130 20.9467 130.352 21.288C130.715 21.6293 130.896 22.088 130.896 22.664C130.896 23.4427 130.592 24.056 129.984 24.504C129.376 24.9413 128.566 25.16 127.552 25.16ZM136.069 25.16C135.258 25.16 134.554 24.9947 133.957 24.664C133.36 24.3333 132.896 23.864 132.565 23.256C132.234 22.6373 132.069 21.912 132.069 21.08C132.069 20.248 132.234 19.528 132.565 18.92C132.896 18.312 133.36 17.8427 133.957 17.512C134.554 17.1813 135.258 17.016 136.069 17.016C136.88 17.016 137.584 17.1813 138.181 17.512C138.778 17.8427 139.242 18.312 139.573 18.92C139.904 19.528 140.069 20.248 140.069 21.08C140.069 21.912 139.904 22.6373 139.573 23.256C139.242 23.864 138.778 24.3333 138.181 24.664C137.584 24.9947 136.88 25.16 136.069 25.16ZM136.069 23.64C136.666 23.64 137.146 23.4267 137.509 23C137.872 22.5627 138.053 21.9227 138.053 21.08C138.053 20.2267 137.872 19.592 137.509 19.176C137.146 18.7493 136.666 18.536 136.069 18.536C135.472 18.536 134.992 18.7493 134.629 19.176C134.266 19.592 134.085 20.2267 134.085 21.08C134.085 21.9227 134.266 22.5627 134.629 23C134.992 23.4267 135.472 23.64 136.069 23.64ZM141.72 25V17.176H143.672V18.392C143.938 17.944 144.296 17.6027 144.744 17.368C145.202 17.1333 145.714 17.016 146.28 17.016C148.125 17.016 149.048 18.088 149.048 20.232V25H147.048V20.328C147.048 19.72 146.93 19.2773 146.696 19C146.472 18.7227 146.12 18.584 145.64 18.584C145.053 18.584 144.584 18.7707 144.232 19.144C143.89 19.5067 143.72 19.992 143.72 20.6V25H141.72ZM154.663 25.16C152.594 25.16 151.559 24.136 151.559 22.088V18.68H150.055V17.176H151.559V14.84H153.559V17.176H155.927V18.68H153.559V21.976C153.559 22.488 153.671 22.872 153.895 23.128C154.119 23.384 154.482 23.512 154.983 23.512C155.132 23.512 155.287 23.496 155.447 23.464C155.607 23.4213 155.772 23.3787 155.943 23.336L156.247 24.808C156.055 24.9147 155.81 25 155.511 25.064C155.223 25.128 154.94 25.16 154.663 25.16ZM165.148 25.16C164.327 25.16 163.612 24.9947 163.004 24.664C162.396 24.3227 161.927 23.8427 161.596 23.224C161.266 22.6053 161.1 21.88 161.1 21.048C161.1 20.216 161.266 19.5013 161.596 18.904C161.927 18.296 162.396 17.832 163.004 17.512C163.612 17.1813 164.327 17.016 165.148 17.016C165.65 17.016 166.146 17.096 166.636 17.256C167.127 17.416 167.532 17.64 167.852 17.928L167.26 19.32C166.983 19.0747 166.668 18.888 166.316 18.76C165.975 18.632 165.644 18.568 165.324 18.568C164.631 18.568 164.092 18.7867 163.708 19.224C163.335 19.6507 163.148 20.264 163.148 21.064C163.148 21.8533 163.335 22.4773 163.708 22.936C164.092 23.384 164.631 23.608 165.324 23.608C165.634 23.608 165.964 23.544 166.316 23.416C166.668 23.288 166.983 23.096 167.26 22.84L167.852 24.248C167.532 24.5253 167.122 24.7493 166.62 24.92C166.13 25.08 165.639 25.16 165.148 25.16ZM171.911 25.16C169.991 25.16 169.031 24.0827 169.031 21.928V17.176H171.031V21.96C171.031 22.5147 171.143 22.9253 171.367 23.192C171.591 23.4587 171.948 23.592 172.439 23.592C172.972 23.592 173.41 23.4107 173.751 23.048C174.092 22.6747 174.263 22.184 174.263 21.576V17.176H176.263V25H174.311V23.832C173.788 24.7173 172.988 25.16 171.911 25.16ZM178.377 25V17.176H180.329V18.376C180.563 17.9493 180.889 17.6187 181.305 17.384C181.721 17.1387 182.201 17.016 182.745 17.016C183.918 17.016 184.686 17.528 185.049 18.552C185.294 18.072 185.646 17.6987 186.105 17.432C186.563 17.1547 187.086 17.016 187.673 17.016C189.433 17.016 190.313 18.088 190.313 20.232V25H188.313V20.312C188.313 19.7147 188.211 19.2773 188.009 19C187.817 18.7227 187.486 18.584 187.017 18.584C186.494 18.584 186.083 18.7707 185.785 19.144C185.486 19.5067 185.337 20.0133 185.337 20.664V25H183.337V20.312C183.337 19.7147 183.235 19.2773 183.033 19C182.841 18.7227 182.515 18.584 182.057 18.584C181.534 18.584 181.123 18.7707 180.825 19.144C180.526 19.5067 180.377 20.0133 180.377 20.664V25H178.377ZM195.208 25.16C193.288 25.16 192.328 24.0827 192.328 21.928V17.176H194.328V21.96C194.328 22.5147 194.44 22.9253 194.664 23.192C194.888 23.4587 195.245 23.592 195.736 23.592C196.269 23.592 196.707 23.4107 197.048 23.048C197.389 22.6747 197.56 22.184 197.56 21.576V17.176H199.56V25H197.608V23.832C197.085 24.7173 196.285 25.16 195.208 25.16ZM204.362 25.16C203.434 25.16 202.746 24.9093 202.298 24.408C201.86 23.896 201.642 23.1493 201.642 22.168V13.72H203.642V22.072C203.642 23.032 204.047 23.512 204.858 23.512C204.975 23.512 205.092 23.5067 205.21 23.496C205.327 23.4853 205.439 23.464 205.546 23.432L205.514 25.016C205.13 25.112 204.746 25.16 204.362 25.16ZM209.327 25.16C208.762 25.16 208.255 25.0533 207.807 24.84C207.37 24.616 207.023 24.3173 206.767 23.944C206.522 23.5707 206.399 23.1493 206.399 22.68C206.399 22.104 206.548 21.6507 206.847 21.32C207.146 20.9787 207.631 20.7333 208.303 20.584C208.975 20.4347 209.876 20.36 211.007 20.36H211.567V20.024C211.567 19.4907 211.45 19.1067 211.215 18.872C210.98 18.6373 210.586 18.52 210.031 18.52C209.594 18.52 209.146 18.5893 208.687 18.728C208.228 18.856 207.764 19.0587 207.295 19.336L206.719 17.976C206.996 17.784 207.322 17.6187 207.695 17.48C208.079 17.3307 208.479 17.2187 208.895 17.144C209.322 17.0587 209.722 17.016 210.095 17.016C211.236 17.016 212.084 17.2827 212.639 17.816C213.194 18.3387 213.471 19.1547 213.471 20.264V25H211.599V23.752C211.418 24.1893 211.13 24.536 210.735 24.792C210.34 25.0373 209.871 25.16 209.327 25.16ZM209.743 23.784C210.266 23.784 210.698 23.6027 211.039 23.24C211.391 22.8773 211.567 22.4187 211.567 21.864V21.512H211.023C210.02 21.512 209.322 21.592 208.927 21.752C208.543 21.9013 208.351 22.1787 208.351 22.584C208.351 22.936 208.474 23.224 208.719 23.448C208.964 23.672 209.306 23.784 209.743 23.784ZM220.013 25.16C219.437 25.16 218.92 25.032 218.461 24.776C218.013 24.52 217.677 24.1733 217.453 23.736V25H215.501V13.72H217.501V18.328C217.736 17.9333 218.072 17.6187 218.509 17.384C218.957 17.1387 219.458 17.016 220.013 17.016C220.706 17.016 221.309 17.1813 221.821 17.512C222.333 17.8427 222.733 18.312 223.021 18.92C223.309 19.5173 223.453 20.2373 223.453 21.08C223.453 21.912 223.309 22.6373 223.021 23.256C222.733 23.864 222.328 24.3333 221.805 24.664C221.293 24.9947 220.696 25.16 220.013 25.16ZM219.453 23.64C220.05 23.64 220.53 23.4267 220.893 23C221.256 22.5627 221.437 21.9227 221.437 21.08C221.437 20.2267 221.256 19.592 220.893 19.176C220.53 18.7493 220.05 18.536 219.453 18.536C218.856 18.536 218.376 18.7493 218.013 19.176C217.65 19.592 217.469 20.2267 217.469 21.08C217.469 21.9227 217.65 22.5627 218.013 23C218.376 23.4267 218.856 23.64 219.453 23.64ZM227.815 25.16C226.887 25.16 226.199 24.9093 225.751 24.408C225.313 23.896 225.095 23.1493 225.095 22.168V13.72H227.095V22.072C227.095 23.032 227.5 23.512 228.311 23.512C228.428 23.512 228.545 23.5067 228.663 23.496C228.78 23.4853 228.892 23.464 228.999 23.432L228.967 25.016C228.583 25.112 228.199 25.16 227.815 25.16ZM233.982 25.16C233.097 25.16 232.334 24.9947 231.694 24.664C231.054 24.3333 230.558 23.864 230.206 23.256C229.865 22.648 229.694 21.928 229.694 21.096C229.694 20.2853 229.859 19.576 230.19 18.968C230.531 18.36 230.995 17.8853 231.582 17.544C232.179 17.192 232.857 17.016 233.614 17.016C234.723 17.016 235.598 17.368 236.238 18.072C236.889 18.776 237.214 19.736 237.214 20.952V21.544H231.614C231.763 22.9413 232.563 23.64 234.014 23.64C234.451 23.64 234.889 23.576 235.326 23.448C235.763 23.3093 236.163 23.096 236.526 22.808L237.086 24.152C236.713 24.4613 236.243 24.7067 235.678 24.888C235.113 25.0693 234.547 25.16 233.982 25.16ZM233.694 18.376C233.107 18.376 232.633 18.5573 232.27 18.92C231.907 19.2827 231.689 19.7733 231.614 20.392H235.55C235.507 19.7413 235.326 19.2453 235.006 18.904C234.697 18.552 234.259 18.376 233.694 18.376ZM241.662 25.16C241 25.16 240.382 25.08 239.806 24.92C239.23 24.76 238.75 24.5307 238.366 24.232L238.878 22.92C239.272 23.1867 239.715 23.3947 240.206 23.544C240.696 23.6827 241.187 23.752 241.678 23.752C242.19 23.752 242.568 23.6667 242.814 23.496C243.07 23.3147 243.198 23.08 243.198 22.792C243.198 22.344 242.867 22.056 242.206 21.928L240.606 21.624C239.251 21.368 238.574 20.664 238.574 19.512C238.574 19 238.712 18.5573 238.99 18.184C239.278 17.8107 239.672 17.5227 240.174 17.32C240.675 17.1173 241.251 17.016 241.902 17.016C242.456 17.016 242.99 17.096 243.502 17.256C244.014 17.4053 244.451 17.6347 244.814 17.944L244.27 19.256C243.96 19 243.587 18.7973 243.15 18.648C242.723 18.4987 242.312 18.424 241.918 18.424C241.395 18.424 241.006 18.5147 240.75 18.696C240.504 18.8773 240.382 19.1173 240.382 19.416C240.382 19.8853 240.686 20.1733 241.294 20.28L242.894 20.584C243.587 20.712 244.11 20.9467 244.462 21.288C244.824 21.6293 245.006 22.088 245.006 22.664C245.006 23.4427 244.702 24.056 244.094 24.504C243.486 24.9413 242.675 25.16 241.662 25.16Z" fill="black"/>
<g clip-path="url(#clip0_607_2924)">
<path d="M129.912 244.376C108.221 213.017 104.195 209.801 104.195 198.281C104.195 182.5 117.026 169.709 132.857 169.709C148.688 169.709 161.519 182.5 161.519 198.281C161.519 209.801 157.494 213.011 135.803 244.363C135.474 244.836 135.035 245.222 134.523 245.49C134.012 245.757 133.443 245.898 132.865 245.899C132.288 245.9 131.719 245.762 131.206 245.497C130.693 245.232 130.253 244.847 129.921 244.376L129.915 244.363L129.912 244.376Z" fill="#FF8811"/>
</g>
<path fill-rule="evenodd" clip-rule="evenodd" d="M114.748 183.496C111.329 187.636 109.275 192.945 109.275 198.734C109.275 206.667 111.545 209.901 122.403 225.375C124.761 228.737 127.526 232.676 130.76 237.367L130.762 237.356L130.768 237.367C131.045 237.762 131.413 238.084 131.841 238.307C132.27 238.529 132.745 238.644 133.228 238.643C133.71 238.642 134.185 238.525 134.613 238.301C135.04 238.077 135.407 237.753 135.682 237.356C138.921 232.659 141.689 228.716 144.05 225.352C154.898 209.895 157.166 206.664 157.166 198.734C157.166 192.945 155.113 187.636 151.694 183.496H114.748Z" fill="#FFB703"/>
<path d="M125.753 193.333L123.468 194.531V191.439L127.473 189.208H129.008V203.575H125.753V193.333ZM130.796 196.403C130.796 195.155 130.952 194.066 131.264 193.137C131.583 192.201 132.015 191.425 132.559 190.808C133.111 190.184 133.735 189.72 134.431 189.415C135.135 189.103 135.872 188.947 136.641 188.947C137.41 188.947 138.143 189.103 138.84 189.415C139.543 189.72 140.168 190.184 140.712 190.808C141.256 191.425 141.684 192.201 141.996 193.137C142.308 194.066 142.464 195.155 142.464 196.403C142.464 197.731 142.308 198.866 141.996 199.809C141.684 200.753 141.256 201.522 140.712 202.117C140.168 202.705 139.543 203.14 138.84 203.423C138.143 203.699 137.41 203.837 136.641 203.837C135.872 203.837 135.135 203.699 134.431 203.423C133.735 203.14 133.111 202.705 132.559 202.117C132.015 201.522 131.583 200.753 131.264 199.809C130.952 198.866 130.796 197.731 130.796 196.403ZM134.061 196.403C134.061 197.44 134.167 198.297 134.377 198.971C134.587 199.646 134.885 200.151 135.27 200.484C135.654 200.811 136.111 200.974 136.641 200.974C137.171 200.974 137.624 200.811 138.002 200.484C138.386 200.151 138.68 199.646 138.883 198.971C139.094 198.289 139.199 197.433 139.199 196.403C139.199 195.43 139.094 194.603 138.883 193.921C138.68 193.239 138.386 192.717 138.002 192.354C137.624 191.991 137.171 191.809 136.641 191.809C136.111 191.809 135.654 191.991 135.27 192.354C134.885 192.717 134.587 193.239 134.377 193.921C134.167 194.603 134.061 195.43 134.061 196.403Z" fill="#050516"/>
<g clip-path="url(#clip1_607_2924)">
<path d="M351.226 247.278C329.535 215.92 325.51 212.704 325.51 201.183C325.51 185.402 338.341 172.612 354.172 172.612C370.003 172.612 382.834 185.402 382.834 201.183C382.834 212.704 378.808 215.913 357.118 247.266C356.788 247.738 356.349 248.125 355.838 248.392C355.326 248.66 354.757 248.8 354.18 248.801C353.602 248.803 353.033 248.665 352.52 248.4C352.008 248.134 351.567 247.75 351.236 247.278L351.229 247.266L351.226 247.278Z" fill="#8ECAE6"/>
<path d="M354.421 194.614C353.942 194.614 353.518 194.73 353.148 194.962C352.785 195.187 352.477 195.452 352.223 195.757C351.976 196.062 351.787 196.341 351.657 196.595C351.526 196.842 351.453 196.987 351.439 197.03L348.653 195.757C348.667 195.663 348.736 195.474 348.859 195.191C348.983 194.901 349.179 194.567 349.447 194.19C349.716 193.812 350.067 193.446 350.503 193.09C350.945 192.735 351.49 192.441 352.135 192.209C352.781 191.969 353.543 191.849 354.421 191.849C355.437 191.849 356.279 191.995 356.946 192.285C357.621 192.575 358.151 192.956 358.535 193.428C358.927 193.892 359.207 194.396 359.374 194.941C359.54 195.485 359.624 196.007 359.624 196.508C359.624 197.132 359.497 197.738 359.243 198.326C358.996 198.906 358.673 199.458 358.274 199.98C357.875 200.495 357.447 200.971 356.99 201.406C356.533 201.834 356.094 202.211 355.673 202.538C355.259 202.857 354.907 203.111 354.617 203.3C354.327 203.488 354.153 203.605 354.095 203.648H359.504V206.478H349.197V203.898C349.306 203.819 349.552 203.641 349.937 203.365C350.321 203.089 350.782 202.745 351.319 202.331C351.863 201.917 352.426 201.464 353.006 200.971C353.594 200.47 354.138 199.955 354.639 199.425C355.147 198.895 355.56 198.376 355.88 197.869C356.199 197.361 356.359 196.893 356.359 196.464C356.359 195.79 356.188 195.314 355.847 195.039C355.513 194.756 355.038 194.614 354.421 194.614Z" fill="#050516"/>
</g>
<path fill-rule="evenodd" clip-rule="evenodd" d="M344.885 231.387C346.977 234.37 349.362 237.78 352.079 241.721L352.081 241.71L352.087 241.721C352.364 242.116 352.732 242.438 353.16 242.66C353.588 242.883 354.064 242.998 354.546 242.997C355.029 242.996 355.504 242.879 355.931 242.654C356.359 242.43 356.726 242.106 357.001 241.71C359.715 237.774 362.098 234.367 364.189 231.387H344.885Z" fill="#219EBC"/>
<path d="M287.051 95.696C315.35 97.8728 353.025 117.39 356.83 150.705M356.83 150.705L346.912 143.402M356.83 150.705L362.727 142.695" stroke="#219EBC" stroke-width="5.80497" stroke-linecap="round"/>
<path d="M253.387 67.5737C256.147 67.5737 258.405 65.2482 258.405 62.4059C258.405 59.5636 256.147 57.238 253.387 57.238C250.626 57.238 248.368 59.5636 248.368 62.4059C248.368 65.2482 250.626 67.5737 253.387 67.5737ZM227.037 84.3692C220.011 84.3692 214.49 90.0538 214.49 97.2888C214.49 104.524 220.011 110.208 227.037 110.208C234.064 110.208 239.585 104.524 239.585 97.2888C239.585 90.0538 234.064 84.3692 227.037 84.3692ZM227.037 106.333C222.27 106.333 218.254 102.198 218.254 97.2888C218.254 92.3794 222.27 88.2451 227.037 88.2451C231.805 88.2451 235.82 92.3794 235.82 97.2888C235.82 102.198 231.805 106.333 227.037 106.333ZM241.592 80.4933L247.615 74.2919L249.622 76.359C252.885 79.7181 257.151 81.7853 262.421 81.7853V76.6174C258.656 76.6174 255.645 75.0671 253.387 72.7416L248.619 67.8321C247.364 66.7985 246.109 66.2818 244.604 66.2818C243.098 66.2818 241.843 66.7985 241.09 67.8321L234.064 75.0671C233.06 76.1007 232.558 77.3926 232.558 78.6846C232.558 80.2349 233.06 81.5269 234.064 82.3021L242.094 89.537V102.457H247.113V86.4363L241.592 80.4933ZM262.17 84.3692C255.143 84.3692 249.622 90.0538 249.622 97.2888C249.622 104.524 255.143 110.208 262.17 110.208C269.196 110.208 274.717 104.524 274.717 97.2888C274.717 90.0538 269.196 84.3692 262.17 84.3692ZM262.17 106.333C257.402 106.333 253.387 102.198 253.387 97.2888C253.387 92.3794 257.402 88.2451 262.17 88.2451C266.938 88.2451 270.953 92.3794 270.953 97.2888C270.953 102.198 266.938 106.333 262.17 106.333Z" fill="#219EBC"/>
<path d="M134.309 154.834C138.42 141.41 156.367 112.24 195.261 102.952" stroke="#219EBC" stroke-width="5.80497" stroke-linecap="round"/>
<defs>
<clipPath id="clip0_607_2924">
<rect width="57.3241" height="76.1903" fill="white" transform="translate(104.195 169.709)"/>
</clipPath>
<clipPath id="clip1_607_2924">
<rect width="57.3241" height="76.1903" fill="white" transform="translate(325.51 172.612)"/>
</clipPath>
</defs>
</svg>
