<svg width="384" height="309" viewBox="0 0 384 309" fill="none" xmlns="http://www.w3.org/2000/svg">
<path d="M274.553 16.885V21.205H270.848V16.885H266.528V13.21H270.848V8.89H274.553V13.21H278.843V16.885H274.553ZM281.88 9.16C281.99 8.76 282.205 8.31 282.525 7.81C282.845 7.31 283.28 6.835 283.83 6.385C284.39 5.935 285.07 5.565 285.87 5.275C286.68 4.985 287.615 4.84 288.675 4.84C289.935 4.84 291.05 5.075 292.02 5.545C293 6.005 293.77 6.65 294.33 7.48C294.89 8.31 295.17 9.28 295.17 10.39C295.17 11.06 295.05 11.675 294.81 12.235C294.57 12.785 294.26 13.245 293.88 13.615C293.5 13.985 293.1 14.225 292.68 14.335C293.17 14.395 293.66 14.62 294.15 15.01C294.65 15.4 295.07 15.92 295.41 16.57C295.76 17.22 295.935 17.985 295.935 18.865C295.935 20.125 295.615 21.245 294.975 22.225C294.345 23.195 293.48 23.96 292.38 24.52C291.28 25.08 290.02 25.36 288.6 25.36C287.13 25.36 285.88 25.1 284.85 24.58C283.83 24.06 283.015 23.425 282.405 22.675C281.805 21.925 281.405 21.2 281.205 20.5L285.315 18.46C285.435 18.89 285.635 19.34 285.915 19.81C286.205 20.28 286.575 20.68 287.025 21.01C287.475 21.33 287.995 21.49 288.585 21.49C289.195 21.49 289.715 21.37 290.145 21.13C290.575 20.89 290.905 20.565 291.135 20.155C291.375 19.735 291.495 19.255 291.495 18.715C291.495 18.155 291.36 17.69 291.09 17.32C290.83 16.95 290.48 16.675 290.04 16.495C289.6 16.315 289.115 16.225 288.585 16.225H288.195V13.015H288.705C289.165 13.015 289.58 12.925 289.95 12.745C290.32 12.555 290.61 12.29 290.82 11.95C291.04 11.6 291.15 11.19 291.15 10.72C291.15 10.09 290.935 9.555 290.505 9.115C290.075 8.665 289.45 8.44 288.63 8.44C288.13 8.44 287.69 8.53 287.31 8.71C286.94 8.88 286.63 9.1 286.38 9.37C286.13 9.63 285.93 9.9 285.78 10.18C285.64 10.45 285.55 10.685 285.51 10.885L281.88 9.16ZM306.232 5.2H313.432C314.702 5.2 315.847 5.425 316.867 5.875C317.887 6.315 318.697 6.99 319.297 7.9C319.907 8.8 320.212 9.93 320.212 11.29C320.212 12.64 319.907 13.79 319.297 14.74C318.697 15.68 317.887 16.4 316.867 16.9C315.847 17.39 314.702 17.635 313.432 17.635H310.717V25H306.232V5.2ZM310.717 14.095H312.187C312.797 14.095 313.342 14.005 313.822 13.825C314.312 13.645 314.702 13.36 314.992 12.97C315.282 12.57 315.427 12.045 315.427 11.395C315.427 10.735 315.282 10.215 314.992 9.835C314.702 9.445 314.312 9.165 313.822 8.995C313.342 8.825 312.797 8.74 312.187 8.74H310.717V14.095ZM327.926 25.36C326.576 25.36 325.376 25.085 324.326 24.535C323.286 23.975 322.466 23.21 321.866 22.24C321.276 21.26 320.981 20.14 320.981 18.88C320.981 17.62 321.276 16.5 321.866 15.52C322.466 14.53 323.286 13.75 324.326 13.18C325.376 12.61 326.576 12.325 327.926 12.325C329.276 12.325 330.466 12.61 331.496 13.18C332.526 13.75 333.331 14.53 333.911 15.52C334.491 16.5 334.781 17.62 334.781 18.88C334.781 20.14 334.491 21.26 333.911 22.24C333.331 23.21 332.526 23.975 331.496 24.535C330.466 25.085 329.276 25.36 327.926 25.36ZM327.926 21.61C328.446 21.61 328.896 21.495 329.276 21.265C329.656 21.035 329.951 20.71 330.161 20.29C330.371 19.87 330.476 19.395 330.476 18.865C330.476 18.325 330.371 17.845 330.161 17.425C329.951 17.005 329.656 16.675 329.276 16.435C328.896 16.195 328.446 16.075 327.926 16.075C327.406 16.075 326.951 16.195 326.561 16.435C326.181 16.675 325.881 17.005 325.661 17.425C325.451 17.845 325.346 18.325 325.346 18.865C325.346 19.395 325.451 19.87 325.661 20.29C325.881 20.71 326.181 21.035 326.561 21.265C326.951 21.495 327.406 21.61 327.926 21.61ZM337.305 25V12.685H341.865V25H337.305ZM339.645 10.15C338.925 10.15 338.315 9.9 337.815 9.4C337.315 8.89 337.065 8.285 337.065 7.585C337.065 6.885 337.315 6.28 337.815 5.77C338.325 5.25 338.935 4.99 339.645 4.99C340.115 4.99 340.545 5.11 340.935 5.35C341.325 5.58 341.64 5.89 341.88 6.28C342.12 6.67 342.24 7.105 342.24 7.585C342.24 8.285 341.985 8.89 341.475 9.4C340.965 9.9 340.355 10.15 339.645 10.15ZM353.481 12.325C354.341 12.325 355.181 12.5 356.001 12.85C356.821 13.2 357.496 13.755 358.026 14.515C358.556 15.265 358.821 16.255 358.821 17.485V25H354.246V18.235C354.246 17.355 354.036 16.695 353.616 16.255C353.196 15.805 352.646 15.58 351.966 15.58C351.516 15.58 351.091 15.7 350.691 15.94C350.301 16.17 349.981 16.5 349.731 16.93C349.491 17.35 349.371 17.835 349.371 18.385V25H344.811V12.685H349.371V14.5C349.491 14.17 349.741 13.84 350.121 13.51C350.511 13.17 350.996 12.89 351.576 12.67C352.166 12.44 352.801 12.325 353.481 12.325ZM360.421 12.685H362.521V7.63H367.036V12.685H369.796V16.435H367.036V19.87C367.036 20.38 367.111 20.795 367.261 21.115C367.411 21.425 367.686 21.58 368.086 21.58C368.356 21.58 368.586 21.52 368.776 21.4C368.966 21.28 369.081 21.2 369.121 21.16L370.681 24.4C370.611 24.46 370.391 24.57 370.021 24.73C369.661 24.89 369.201 25.035 368.641 25.165C368.081 25.295 367.456 25.36 366.766 25.36C365.536 25.36 364.521 25.015 363.721 24.325C362.921 23.625 362.521 22.55 362.521 21.1V16.435H360.421V12.685ZM377.889 12.325C378.699 12.325 379.439 12.395 380.109 12.535C380.779 12.665 381.339 12.815 381.789 12.985C382.249 13.155 382.544 13.295 382.674 13.405L381.189 16.09C380.999 15.95 380.644 15.77 380.124 15.55C379.614 15.33 379.044 15.22 378.414 15.22C377.934 15.22 377.529 15.295 377.199 15.445C376.869 15.585 376.704 15.81 376.704 16.12C376.704 16.43 376.884 16.68 377.244 16.87C377.614 17.05 378.144 17.21 378.834 17.35C379.434 17.47 380.044 17.66 380.664 17.92C381.284 18.18 381.799 18.565 382.209 19.075C382.629 19.575 382.839 20.245 382.839 21.085C382.839 21.945 382.654 22.655 382.284 23.215C381.914 23.775 381.424 24.21 380.814 24.52C380.204 24.83 379.544 25.045 378.834 25.165C378.124 25.295 377.434 25.36 376.764 25.36C375.824 25.36 375.004 25.275 374.304 25.105C373.614 24.935 373.054 24.74 372.624 24.52C372.194 24.3 371.894 24.125 371.724 23.995L373.194 20.995C373.454 21.215 373.879 21.465 374.469 21.745C375.059 22.015 375.684 22.15 376.344 22.15C376.984 22.15 377.479 22.055 377.829 21.865C378.179 21.675 378.354 21.425 378.354 21.115C378.354 20.865 378.269 20.665 378.099 20.515C377.929 20.365 377.689 20.235 377.379 20.125C377.069 20.015 376.694 19.915 376.254 19.825C375.854 19.745 375.429 19.62 374.979 19.45C374.529 19.28 374.104 19.05 373.704 18.76C373.304 18.46 372.979 18.085 372.729 17.635C372.479 17.185 372.354 16.64 372.354 16C372.354 15.18 372.619 14.5 373.149 13.96C373.679 13.42 374.364 13.015 375.204 12.745C376.044 12.465 376.939 12.325 377.889 12.325Z" fill="black"/>
<path d="M5.848 18L0.824 6.72H3.016L6.744 15.376L10.472 6.72H12.584L7.56 18H5.848ZM15.9986 18.16C15.188 18.16 14.484 17.9947 13.8866 17.664C13.2893 17.3333 12.8253 16.864 12.4946 16.256C12.164 15.6373 11.9986 14.912 11.9986 14.08C11.9986 13.248 12.164 12.528 12.4946 11.92C12.8253 11.312 13.2893 10.8427 13.8866 10.512C14.484 10.1813 15.188 10.016 15.9986 10.016C16.8093 10.016 17.5133 10.1813 18.1106 10.512C18.708 10.8427 19.172 11.312 19.5026 11.92C19.8333 12.528 19.9986 13.248 19.9986 14.08C19.9986 14.912 19.8333 15.6373 19.5026 16.256C19.172 16.864 18.708 17.3333 18.1106 17.664C17.5133 17.9947 16.8093 18.16 15.9986 18.16ZM15.9986 16.64C16.596 16.64 17.076 16.4267 17.4386 16C17.8013 15.5627 17.9826 14.9227 17.9826 14.08C17.9826 13.2267 17.8013 12.592 17.4386 12.176C17.076 11.7493 16.596 11.536 15.9986 11.536C15.4013 11.536 14.9213 11.7493 14.5586 12.176C14.196 12.592 14.0146 13.2267 14.0146 14.08C14.0146 14.9227 14.196 15.5627 14.5586 16C14.9213 16.4267 15.4013 16.64 15.9986 16.64ZM24.4814 18.16C22.5614 18.16 21.6014 17.0827 21.6014 14.928V10.176H23.6014V14.96C23.6014 15.5147 23.7134 15.9253 23.9374 16.192C24.1614 16.4587 24.5187 16.592 25.0094 16.592C25.5427 16.592 25.98 16.4107 26.3214 16.048C26.6627 15.6747 26.8334 15.184 26.8334 14.576V10.176H28.8334V18H26.8814V16.832C26.3587 17.7173 25.5587 18.16 24.4814 18.16ZM33.779 18.16C33.1177 18.16 32.499 18.08 31.923 17.92C31.347 17.76 30.867 17.5307 30.483 17.232L30.995 15.92C31.3897 16.1867 31.8323 16.3947 32.323 16.544C32.8137 16.6827 33.3043 16.752 33.795 16.752C34.307 16.752 34.6857 16.6667 34.931 16.496C35.187 16.3147 35.315 16.08 35.315 15.792C35.315 15.344 34.9843 15.056 34.323 14.928L32.723 14.624C31.3683 14.368 30.691 13.664 30.691 12.512C30.691 12 30.8297 11.5573 31.107 11.184C31.395 10.8107 31.7897 10.5227 32.291 10.32C32.7923 10.1173 33.3683 10.016 34.019 10.016C34.5737 10.016 35.107 10.096 35.619 10.256C36.131 10.4053 36.5683 10.6347 36.931 10.944L36.387 12.256C36.0777 12 35.7043 11.7973 35.267 11.648C34.8403 11.4987 34.4297 11.424 34.035 11.424C33.5123 11.424 33.123 11.5147 32.867 11.696C32.6217 11.8773 32.499 12.1173 32.499 12.416C32.499 12.8853 32.803 13.1733 33.411 13.28L35.011 13.584C35.7043 13.712 36.227 13.9467 36.579 14.288C36.9417 14.6293 37.123 15.088 37.123 15.664C37.123 16.4427 36.819 17.056 36.211 17.504C35.603 17.9413 34.7923 18.16 33.779 18.16ZM43.04 20.88V10.176H44.992V11.424C45.216 10.9973 45.552 10.656 46 10.4C46.4587 10.144 46.976 10.016 47.552 10.016C48.2347 10.016 48.832 10.1813 49.344 10.512C49.8667 10.8427 50.272 11.312 50.56 11.92C50.848 12.5173 50.992 13.2373 50.992 14.08C50.992 14.912 50.848 15.6373 50.56 16.256C50.272 16.864 49.872 17.3333 49.36 17.664C48.848 17.9947 48.2453 18.16 47.552 18.16C46.9973 18.16 46.496 18.0427 46.048 17.808C45.6107 17.5627 45.2747 17.2373 45.04 16.832V20.88H43.04ZM46.992 16.64C47.5893 16.64 48.0693 16.4267 48.432 16C48.7947 15.5627 48.976 14.9227 48.976 14.08C48.976 13.2267 48.7947 12.592 48.432 12.176C48.0693 11.7493 47.5893 11.536 46.992 11.536C46.3947 11.536 45.9147 11.7493 45.552 12.176C45.1893 12.592 45.008 13.2267 45.008 14.08C45.008 14.9227 45.1893 15.5627 45.552 16C45.9147 16.4267 46.3947 16.64 46.992 16.64ZM56.2018 18.16C55.3911 18.16 54.6871 17.9947 54.0898 17.664C53.4924 17.3333 53.0284 16.864 52.6978 16.256C52.3671 15.6373 52.2018 14.912 52.2018 14.08C52.2018 13.248 52.3671 12.528 52.6978 11.92C53.0284 11.312 53.4924 10.8427 54.0898 10.512C54.6871 10.1813 55.3911 10.016 56.2018 10.016C57.0124 10.016 57.7164 10.1813 58.3138 10.512C58.9111 10.8427 59.3751 11.312 59.7058 11.92C60.0364 12.528 60.2018 13.248 60.2018 14.08C60.2018 14.912 60.0364 15.6373 59.7058 16.256C59.3751 16.864 58.9111 17.3333 58.3138 17.664C57.7164 17.9947 57.0124 18.16 56.2018 18.16ZM56.2018 16.64C56.7991 16.64 57.2791 16.4267 57.6418 16C58.0044 15.5627 58.1858 14.9227 58.1858 14.08C58.1858 13.2267 58.0044 12.592 57.6418 12.176C57.2791 11.7493 56.7991 11.536 56.2018 11.536C55.6044 11.536 55.1244 11.7493 54.7618 12.176C54.3991 12.592 54.2178 13.2267 54.2178 14.08C54.2178 14.9227 54.3991 15.5627 54.7618 16C55.1244 16.4267 55.6044 16.64 56.2018 16.64ZM64.6845 18.16C62.7645 18.16 61.8045 17.0827 61.8045 14.928V10.176H63.8045V14.96C63.8045 15.5147 63.9165 15.9253 64.1405 16.192C64.3645 16.4587 64.7218 16.592 65.2125 16.592C65.7458 16.592 66.1832 16.4107 66.5245 16.048C66.8658 15.6747 67.0365 15.184 67.0365 14.576V10.176H69.0365V18H67.0845V16.832C66.5618 17.7173 65.7618 18.16 64.6845 18.16ZM73.4221 18L70.0301 10.176H72.1581L74.3341 15.648L76.5901 10.176H78.5901L75.1501 18H73.4221ZM83.2554 18.16C82.37 18.16 81.6074 17.9947 80.9674 17.664C80.3274 17.3333 79.8314 16.864 79.4794 16.256C79.138 15.648 78.9674 14.928 78.9674 14.096C78.9674 13.2853 79.1327 12.576 79.4634 11.968C79.8047 11.36 80.2687 10.8853 80.8554 10.544C81.4527 10.192 82.13 10.016 82.8874 10.016C83.9967 10.016 84.8714 10.368 85.5114 11.072C86.162 11.776 86.4874 12.736 86.4874 13.952V14.544H80.8874C81.0367 15.9413 81.8367 16.64 83.2874 16.64C83.7247 16.64 84.162 16.576 84.5994 16.448C85.0367 16.3093 85.4367 16.096 85.7994 15.808L86.3594 17.152C85.986 17.4613 85.5167 17.7067 84.9514 17.888C84.386 18.0693 83.8207 18.16 83.2554 18.16ZM82.9674 11.376C82.3807 11.376 81.906 11.5573 81.5434 11.92C81.1807 12.2827 80.962 12.7733 80.8874 13.392H84.8234C84.7807 12.7413 84.5994 12.2453 84.2794 11.904C83.97 11.552 83.5327 11.376 82.9674 11.376ZM87.7059 18V16.704L91.7379 11.68H87.7059V10.176H93.9139V11.472L89.8819 16.496H94.0899V18H87.7059ZM103.469 18.16C102.647 18.16 101.933 17.9947 101.325 17.664C100.717 17.3227 100.247 16.8427 99.9165 16.224C99.5858 15.6053 99.4205 14.88 99.4205 14.048C99.4205 13.216 99.5858 12.5013 99.9165 11.904C100.247 11.296 100.717 10.832 101.325 10.512C101.933 10.1813 102.647 10.016 103.469 10.016C103.97 10.016 104.466 10.096 104.957 10.256C105.447 10.416 105.853 10.64 106.173 10.928L105.581 12.32C105.303 12.0747 104.989 11.888 104.637 11.76C104.295 11.632 103.965 11.568 103.645 11.568C102.951 11.568 102.413 11.7867 102.029 12.224C101.655 12.6507 101.469 13.264 101.469 14.064C101.469 14.8533 101.655 15.4773 102.029 15.936C102.413 16.384 102.951 16.608 103.645 16.608C103.954 16.608 104.285 16.544 104.637 16.416C104.989 16.288 105.303 16.096 105.581 15.84L106.173 17.248C105.853 17.5253 105.442 17.7493 104.941 17.92C104.45 18.08 103.959 18.16 103.469 18.16ZM110.231 18.16C108.311 18.16 107.351 17.0827 107.351 14.928V10.176H109.351V14.96C109.351 15.5147 109.463 15.9253 109.687 16.192C109.911 16.4587 110.269 16.592 110.759 16.592C111.293 16.592 111.73 16.4107 112.071 16.048C112.413 15.6747 112.583 15.184 112.583 14.576V10.176H114.583V18H112.631V16.832C112.109 17.7173 111.309 18.16 110.231 18.16ZM116.697 18V10.176H118.649V11.376C118.884 10.9493 119.209 10.6187 119.625 10.384C120.041 10.1387 120.521 10.016 121.065 10.016C122.238 10.016 123.006 10.528 123.369 11.552C123.614 11.072 123.966 10.6987 124.425 10.432C124.884 10.1547 125.406 10.016 125.993 10.016C127.753 10.016 128.633 11.088 128.633 13.232V18H126.633V13.312C126.633 12.7147 126.532 12.2773 126.329 12C126.137 11.7227 125.806 11.584 125.337 11.584C124.814 11.584 124.404 11.7707 124.105 12.144C123.806 12.5067 123.657 13.0133 123.657 13.664V18H121.657V13.312C121.657 12.7147 121.556 12.2773 121.353 12C121.161 11.7227 120.836 11.584 120.377 11.584C119.854 11.584 119.444 11.7707 119.145 12.144C118.846 12.5067 118.697 13.0133 118.697 13.664V18H116.697ZM133.528 18.16C131.608 18.16 130.648 17.0827 130.648 14.928V10.176H132.648V14.96C132.648 15.5147 132.76 15.9253 132.984 16.192C133.208 16.4587 133.566 16.592 134.056 16.592C134.59 16.592 135.027 16.4107 135.368 16.048C135.71 15.6747 135.88 15.184 135.88 14.576V10.176H137.88V18H135.928V16.832C135.406 17.7173 134.606 18.16 133.528 18.16ZM142.682 18.16C141.754 18.16 141.066 17.9093 140.618 17.408C140.181 16.896 139.962 16.1493 139.962 15.168V6.72H141.962V15.072C141.962 16.032 142.367 16.512 143.178 16.512C143.295 16.512 143.413 16.5067 143.53 16.496C143.647 16.4853 143.759 16.464 143.866 16.432L143.834 18.016C143.45 18.112 143.066 18.16 142.682 18.16ZM148.849 18.16C147.964 18.16 147.201 17.9947 146.561 17.664C145.921 17.3333 145.425 16.864 145.073 16.256C144.732 15.648 144.561 14.928 144.561 14.096C144.561 13.2853 144.726 12.576 145.057 11.968C145.398 11.36 145.862 10.8853 146.449 10.544C147.046 10.192 147.724 10.016 148.481 10.016C149.59 10.016 150.465 10.368 151.105 11.072C151.756 11.776 152.081 12.736 152.081 13.952V14.544H146.481C146.63 15.9413 147.43 16.64 148.881 16.64C149.318 16.64 149.756 16.576 150.193 16.448C150.63 16.3093 151.03 16.096 151.393 15.808L151.953 17.152C151.58 17.4613 151.11 17.7067 150.545 17.888C149.98 18.0693 149.414 18.16 148.849 18.16ZM148.561 11.376C147.974 11.376 147.5 11.5573 147.137 11.92C146.774 12.2827 146.556 12.7733 146.481 13.392H150.417C150.374 12.7413 150.193 12.2453 149.873 11.904C149.564 11.552 149.126 11.376 148.561 11.376ZM153.665 18V10.176H155.617V11.552C156.001 10.624 156.822 10.112 158.081 10.016L158.689 9.968L158.817 11.664L157.665 11.776C156.353 11.904 155.697 12.576 155.697 13.792V18H153.665ZM166.547 18L163.155 10.176H165.283L167.459 15.648L169.715 10.176H171.715L168.275 18H166.547ZM176.092 18.16C175.282 18.16 174.578 17.9947 173.98 17.664C173.383 17.3333 172.919 16.864 172.588 16.256C172.258 15.6373 172.092 14.912 172.092 14.08C172.092 13.248 172.258 12.528 172.588 11.92C172.919 11.312 173.383 10.8427 173.98 10.512C174.578 10.1813 175.282 10.016 176.092 10.016C176.903 10.016 177.607 10.1813 178.204 10.512C178.802 10.8427 179.266 11.312 179.596 11.92C179.927 12.528 180.092 13.248 180.092 14.08C180.092 14.912 179.927 15.6373 179.596 16.256C179.266 16.864 178.802 17.3333 178.204 17.664C177.607 17.9947 176.903 18.16 176.092 18.16ZM176.092 16.64C176.69 16.64 177.17 16.4267 177.532 16C177.895 15.5627 178.076 14.9227 178.076 14.08C178.076 13.2267 177.895 12.592 177.532 12.176C177.17 11.7493 176.69 11.536 176.092 11.536C175.495 11.536 175.015 11.7493 174.652 12.176C174.29 12.592 174.108 13.2267 174.108 14.08C174.108 14.9227 174.29 15.5627 174.652 16C175.015 16.4267 175.495 16.64 176.092 16.64ZM184.607 18.16C183.946 18.16 183.327 18.08 182.751 17.92C182.175 17.76 181.695 17.5307 181.311 17.232L181.823 15.92C182.218 16.1867 182.66 16.3947 183.151 16.544C183.642 16.6827 184.132 16.752 184.623 16.752C185.135 16.752 185.514 16.6667 185.759 16.496C186.015 16.3147 186.143 16.08 186.143 15.792C186.143 15.344 185.812 15.056 185.151 14.928L183.551 14.624C182.196 14.368 181.519 13.664 181.519 12.512C181.519 12 181.658 11.5573 181.935 11.184C182.223 10.8107 182.618 10.5227 183.119 10.32C183.62 10.1173 184.196 10.016 184.847 10.016C185.402 10.016 185.935 10.096 186.447 10.256C186.959 10.4053 187.396 10.6347 187.759 10.944L187.215 12.256C186.906 12 186.532 11.7973 186.095 11.648C185.668 11.4987 185.258 11.424 184.863 11.424C184.34 11.424 183.951 11.5147 183.695 11.696C183.45 11.8773 183.327 12.1173 183.327 12.416C183.327 12.8853 183.631 13.1733 184.239 13.28L185.839 13.584C186.532 13.712 187.055 13.9467 187.407 14.288C187.77 14.6293 187.951 15.088 187.951 15.664C187.951 16.4427 187.647 17.056 187.039 17.504C186.431 17.9413 185.62 18.16 184.607 18.16ZM193.868 20.88V10.176H195.82V11.424C196.044 10.9973 196.38 10.656 196.828 10.4C197.287 10.144 197.804 10.016 198.38 10.016C199.063 10.016 199.66 10.1813 200.172 10.512C200.695 10.8427 201.1 11.312 201.388 11.92C201.676 12.5173 201.82 13.2373 201.82 14.08C201.82 14.912 201.676 15.6373 201.388 16.256C201.1 16.864 200.7 17.3333 200.188 17.664C199.676 17.9947 199.073 18.16 198.38 18.16C197.825 18.16 197.324 18.0427 196.876 17.808C196.439 17.5627 196.103 17.2373 195.868 16.832V20.88H193.868ZM197.82 16.64C198.417 16.64 198.897 16.4267 199.26 16C199.623 15.5627 199.804 14.9227 199.804 14.08C199.804 13.2267 199.623 12.592 199.26 12.176C198.897 11.7493 198.417 11.536 197.82 11.536C197.223 11.536 196.743 11.7493 196.38 12.176C196.017 12.592 195.836 13.2267 195.836 14.08C195.836 14.9227 196.017 15.5627 196.38 16C196.743 16.4267 197.223 16.64 197.82 16.64ZM207.03 18.16C206.219 18.16 205.515 17.9947 204.918 17.664C204.321 17.3333 203.857 16.864 203.526 16.256C203.195 15.6373 203.03 14.912 203.03 14.08C203.03 13.248 203.195 12.528 203.526 11.92C203.857 11.312 204.321 10.8427 204.918 10.512C205.515 10.1813 206.219 10.016 207.03 10.016C207.841 10.016 208.545 10.1813 209.142 10.512C209.739 10.8427 210.203 11.312 210.534 11.92C210.865 12.528 211.03 13.248 211.03 14.08C211.03 14.912 210.865 15.6373 210.534 16.256C210.203 16.864 209.739 17.3333 209.142 17.664C208.545 17.9947 207.841 18.16 207.03 18.16ZM207.03 16.64C207.627 16.64 208.107 16.4267 208.47 16C208.833 15.5627 209.014 14.9227 209.014 14.08C209.014 13.2267 208.833 12.592 208.47 12.176C208.107 11.7493 207.627 11.536 207.03 11.536C206.433 11.536 205.953 11.7493 205.59 12.176C205.227 12.592 205.046 13.2267 205.046 14.08C205.046 14.9227 205.227 15.5627 205.59 16C205.953 16.4267 206.433 16.64 207.03 16.64ZM212.553 8.496V6.544H214.793V8.496H212.553ZM212.681 18V10.176H214.681V18H212.681ZM216.759 18V10.176H218.711V11.392C218.977 10.944 219.335 10.6027 219.783 10.368C220.241 10.1333 220.753 10.016 221.319 10.016C223.164 10.016 224.087 11.088 224.087 13.232V18H222.087V13.328C222.087 12.72 221.969 12.2773 221.735 12C221.511 11.7227 221.159 11.584 220.679 11.584C220.092 11.584 219.623 11.7707 219.271 12.144C218.929 12.5067 218.759 12.992 218.759 13.6V18H216.759ZM229.702 18.16C227.633 18.16 226.598 17.136 226.598 15.088V11.68H225.094V10.176H226.598V7.84H228.598V10.176H230.966V11.68H228.598V14.976C228.598 15.488 228.71 15.872 228.934 16.128C229.158 16.384 229.521 16.512 230.022 16.512C230.171 16.512 230.326 16.496 230.486 16.464C230.646 16.4213 230.811 16.3787 230.982 16.336L231.286 17.808C231.094 17.9147 230.849 18 230.55 18.064C230.262 18.128 229.979 18.16 229.702 18.16ZM235.123 18.16C234.461 18.16 233.843 18.08 233.267 17.92C232.691 17.76 232.211 17.5307 231.827 17.232L232.339 15.92C232.733 16.1867 233.176 16.3947 233.667 16.544C234.157 16.6827 234.648 16.752 235.139 16.752C235.651 16.752 236.029 16.6667 236.275 16.496C236.531 16.3147 236.659 16.08 236.659 15.792C236.659 15.344 236.328 15.056 235.667 14.928L234.067 14.624C232.712 14.368 232.035 13.664 232.035 12.512C232.035 12 232.173 11.5573 232.451 11.184C232.739 10.8107 233.133 10.5227 233.635 10.32C234.136 10.1173 234.712 10.016 235.363 10.016C235.917 10.016 236.451 10.096 236.963 10.256C237.475 10.4053 237.912 10.6347 238.275 10.944L237.731 12.256C237.421 12 237.048 11.7973 236.611 11.648C236.184 11.4987 235.773 11.424 235.379 11.424C234.856 11.424 234.467 11.5147 234.211 11.696C233.965 11.8773 233.843 12.1173 233.843 12.416C233.843 12.8853 234.147 13.1733 234.755 13.28L236.355 13.584C237.048 13.712 237.571 13.9467 237.923 14.288C238.285 14.6293 238.467 15.088 238.467 15.664C238.467 16.4427 238.163 17.056 237.555 17.504C236.947 17.9413 236.136 18.16 235.123 18.16ZM5.896 40.16C5.01067 40.16 4.248 39.9947 3.608 39.664C2.968 39.3333 2.472 38.864 2.12 38.256C1.77867 37.648 1.608 36.928 1.608 36.096C1.608 35.2853 1.77333 34.576 2.104 33.968C2.44533 33.36 2.90933 32.8853 3.496 32.544C4.09333 32.192 4.77067 32.016 5.528 32.016C6.63733 32.016 7.512 32.368 8.152 33.072C8.80267 33.776 9.128 34.736 9.128 35.952V36.544H3.528C3.67733 37.9413 4.47733 38.64 5.928 38.64C6.36533 38.64 6.80267 38.576 7.24 38.448C7.67733 38.3093 8.07733 38.096 8.44 37.808L9 39.152C8.62667 39.4613 8.15733 39.7067 7.592 39.888C7.02667 40.0693 6.46133 40.16 5.896 40.16ZM5.608 33.376C5.02133 33.376 4.54667 33.5573 4.184 33.92C3.82133 34.2827 3.60267 34.7733 3.528 35.392H7.464C7.42133 34.7413 7.24 34.2453 6.92 33.904C6.61067 33.552 6.17333 33.376 5.608 33.376ZM10.7119 40V32.176H12.6639V33.392C12.9305 32.944 13.2879 32.6027 13.7359 32.368C14.1945 32.1333 14.7065 32.016 15.2719 32.016C17.1172 32.016 18.0399 33.088 18.0399 35.232V40H16.0399V35.328C16.0399 34.72 15.9225 34.2773 15.6879 34C15.4639 33.7227 15.1119 33.584 14.6319 33.584C14.0452 33.584 13.5759 33.7707 13.2239 34.144C12.8825 34.5067 12.7119 34.992 12.7119 35.6V40H10.7119ZM27.2158 40.16C25.2958 40.16 24.3358 39.0827 24.3358 36.928V32.176H26.3358V36.96C26.3358 37.5147 26.4478 37.9253 26.6718 38.192C26.8958 38.4587 27.2531 38.592 27.7438 38.592C28.2771 38.592 28.7144 38.4107 29.0558 38.048C29.3971 37.6747 29.5678 37.184 29.5678 36.576V32.176H31.5677V40H29.6158V38.832C29.0931 39.7173 28.2931 40.16 27.2158 40.16ZM33.6494 40V32.176H35.6014V33.392C35.868 32.944 36.2254 32.6027 36.6734 32.368C37.132 32.1333 37.644 32.016 38.2094 32.016C40.0547 32.016 40.9774 33.088 40.9774 35.232V40H38.9774V35.328C38.9774 34.72 38.86 34.2773 38.6254 34C38.4014 33.7227 38.0494 33.584 37.5694 33.584C36.9827 33.584 36.5134 33.7707 36.1614 34.144C35.82 34.5067 35.6494 34.992 35.6494 35.6V40H33.6494ZM50.1853 40.16C49.5239 40.16 48.9053 40.08 48.3293 39.92C47.7533 39.76 47.2733 39.5307 46.8893 39.232L47.4013 37.92C47.7959 38.1867 48.2386 38.3947 48.7293 38.544C49.2199 38.6827 49.7106 38.752 50.2013 38.752C50.7133 38.752 51.0919 38.6667 51.3373 38.496C51.5933 38.3147 51.7213 38.08 51.7213 37.792C51.7213 37.344 51.3906 37.056 50.7293 36.928L49.1293 36.624C47.7746 36.368 47.0973 35.664 47.0973 34.512C47.0973 34 47.2359 33.5573 47.5133 33.184C47.8013 32.8107 48.1959 32.5227 48.6973 32.32C49.1986 32.1173 49.7746 32.016 50.4253 32.016C50.9799 32.016 51.5133 32.096 52.0253 32.256C52.5373 32.4053 52.9746 32.6347 53.3373 32.944L52.7933 34.256C52.4839 34 52.1106 33.7973 51.6733 33.648C51.2466 33.4987 50.8359 33.424 50.4413 33.424C49.9186 33.424 49.5293 33.5147 49.2733 33.696C49.0279 33.8773 48.9053 34.1173 48.9053 34.416C48.9053 34.8853 49.2093 35.1733 49.8173 35.28L51.4173 35.584C52.1106 35.712 52.6333 35.9467 52.9853 36.288C53.3479 36.6293 53.5293 37.088 53.5293 37.664C53.5293 38.4427 53.2253 39.056 52.6173 39.504C52.0093 39.9413 51.1986 40.16 50.1853 40.16ZM58.9898 40.16C58.1044 40.16 57.3418 39.9947 56.7018 39.664C56.0618 39.3333 55.5658 38.864 55.2138 38.256C54.8724 37.648 54.7018 36.928 54.7018 36.096C54.7018 35.2853 54.8671 34.576 55.1978 33.968C55.5391 33.36 56.0031 32.8853 56.5898 32.544C57.1871 32.192 57.8644 32.016 58.6218 32.016C59.7311 32.016 60.6058 32.368 61.2458 33.072C61.8964 33.776 62.2218 34.736 62.2218 35.952V36.544H56.6218C56.7711 37.9413 57.5711 38.64 59.0218 38.64C59.4591 38.64 59.8964 38.576 60.3338 38.448C60.7711 38.3093 61.1711 38.096 61.5338 37.808L62.0938 39.152C61.7204 39.4613 61.2511 39.7067 60.6858 39.888C60.1204 40.0693 59.5551 40.16 58.9898 40.16ZM58.7018 33.376C58.1151 33.376 57.6404 33.5573 57.2778 33.92C56.9151 34.2827 56.6964 34.7733 56.6218 35.392H60.5578C60.5151 34.7413 60.3338 34.2453 60.0138 33.904C59.7044 33.552 59.2671 33.376 58.7018 33.376ZM66.6376 40.16C64.7176 40.16 63.7576 39.0827 63.7576 36.928V32.176H65.7576V36.96C65.7576 37.5147 65.8696 37.9253 66.0936 38.192C66.3176 38.4587 66.675 38.592 67.1656 38.592C67.699 38.592 68.1363 38.4107 68.4776 38.048C68.819 37.6747 68.9896 37.184 68.9896 36.576V32.176H70.9896V40H69.0376V38.832C68.515 39.7173 67.715 40.16 66.6376 40.16ZM75.7913 40.16C74.8633 40.16 74.1753 39.9093 73.7273 39.408C73.2899 38.896 73.0713 38.1493 73.0713 37.168V28.72H75.0713V37.072C75.0713 38.032 75.4766 38.512 76.2873 38.512C76.4046 38.512 76.5219 38.5067 76.6393 38.496C76.7566 38.4853 76.8686 38.464 76.9753 38.432L76.9433 40.016C76.5593 40.112 76.1753 40.16 75.7913 40.16ZM86.0771 40.16C84.0078 40.16 82.9731 39.136 82.9731 37.088V33.68H81.4691V32.176H82.9731V29.84H84.9731V32.176H87.3411V33.68H84.9731V36.976C84.9731 37.488 85.0851 37.872 85.3091 38.128C85.5331 38.384 85.8958 38.512 86.3971 38.512C86.5465 38.512 86.7011 38.496 86.8611 38.464C87.0211 38.4213 87.1865 38.3787 87.3571 38.336L87.6611 39.808C87.4691 39.9147 87.2238 40 86.9251 40.064C86.6371 40.128 86.3545 40.16 86.0771 40.16ZM88.6338 40V32.176H90.5858V33.552C90.9698 32.624 91.7911 32.112 93.0498 32.016L93.6578 31.968L93.7858 33.664L92.6338 33.776C91.3218 33.904 90.6658 34.576 90.6658 35.792V40H88.6338ZM97.3973 40.16C96.8319 40.16 96.3253 40.0533 95.8773 39.84C95.4399 39.616 95.0933 39.3173 94.8372 38.944C94.5919 38.5707 94.4693 38.1493 94.4693 37.68C94.4693 37.104 94.6186 36.6507 94.9173 36.32C95.2159 35.9787 95.7013 35.7333 96.3733 35.584C97.0453 35.4347 97.9466 35.36 99.0773 35.36H99.6373V35.024C99.6373 34.4907 99.5199 34.1067 99.2853 33.872C99.0506 33.6373 98.6559 33.52 98.1013 33.52C97.6639 33.52 97.2159 33.5893 96.7573 33.728C96.2986 33.856 95.8346 34.0587 95.3653 34.336L94.7893 32.976C95.0666 32.784 95.3919 32.6187 95.7653 32.48C96.1493 32.3307 96.5493 32.2187 96.9653 32.144C97.3919 32.0587 97.7919 32.016 98.1653 32.016C99.3066 32.016 100.155 32.2827 100.709 32.816C101.264 33.3387 101.541 34.1547 101.541 35.264V40H99.6693V38.752C99.4879 39.1893 99.1999 39.536 98.8053 39.792C98.4106 40.0373 97.9413 40.16 97.3973 40.16ZM97.8133 38.784C98.3359 38.784 98.7679 38.6027 99.1093 38.24C99.4613 37.8773 99.6373 37.4187 99.6373 36.864V36.512H99.0933C98.0906 36.512 97.3919 36.592 96.9973 36.752C96.6133 36.9013 96.4213 37.1787 96.4213 37.584C96.4213 37.936 96.5439 38.224 96.7893 38.448C97.0346 38.672 97.3759 38.784 97.8133 38.784ZM103.507 30.496V28.544H105.747V30.496H103.507ZM101.811 43.088L101.667 41.632L102.403 41.552C103.225 41.456 103.635 40.976 103.635 40.112V32.176H105.635V39.856C105.635 40.9013 105.395 41.6693 104.915 42.16C104.435 42.6613 103.63 42.9547 102.499 43.04L101.811 43.088ZM111.568 40.16C110.683 40.16 109.92 39.9947 109.28 39.664C108.64 39.3333 108.144 38.864 107.792 38.256C107.451 37.648 107.28 36.928 107.28 36.096C107.28 35.2853 107.445 34.576 107.776 33.968C108.117 33.36 108.581 32.8853 109.168 32.544C109.765 32.192 110.443 32.016 111.2 32.016C112.309 32.016 113.184 32.368 113.824 33.072C114.475 33.776 114.8 34.736 114.8 35.952V36.544H109.2C109.349 37.9413 110.149 38.64 111.6 38.64C112.037 38.64 112.475 38.576 112.912 38.448C113.349 38.3093 113.749 38.096 114.112 37.808L114.672 39.152C114.299 39.4613 113.829 39.7067 113.264 39.888C112.699 40.0693 112.133 40.16 111.568 40.16ZM111.28 33.376C110.693 33.376 110.219 33.5573 109.856 33.92C109.493 34.2827 109.275 34.7733 109.2 35.392H113.136C113.093 34.7413 112.912 34.2453 112.592 33.904C112.283 33.552 111.845 33.376 111.28 33.376ZM119.937 40.16C117.867 40.16 116.833 39.136 116.833 37.088V33.68H115.329V32.176H116.833V29.84H118.833V32.176H121.201V33.68H118.833V36.976C118.833 37.488 118.945 37.872 119.169 38.128C119.393 38.384 119.755 38.512 120.257 38.512C120.406 38.512 120.561 38.496 120.721 38.464C120.881 38.4213 121.046 38.3787 121.217 38.336L121.521 39.808C121.329 39.9147 121.083 40 120.785 40.064C120.497 40.128 120.214 40.16 119.937 40.16ZM127.142 36.656L126.518 28.72H128.982L128.358 36.656H127.142ZM126.63 40V37.776H128.87V40H126.63Z" fill="black"/>
<g clip-path="url(#clip0_657_2854)">
<path d="M35.4403 302.9C5.54756 259.684 0 255.252 0 239.375C0 217.627 17.6828 200 39.5 200C61.3172 200 79 217.627 79 239.375C79 255.252 73.4524 259.675 43.5597 302.882C43.1058 303.534 42.5006 304.067 41.7957 304.435C41.0908 304.804 40.3071 304.997 39.5112 304.999C38.7152 305.001 37.9307 304.811 37.2242 304.445C36.5177 304.08 35.9102 303.55 35.4534 302.9L35.4447 302.882L35.4403 302.9Z" fill="#FF8811"/>
</g>
<path fill-rule="evenodd" clip-rule="evenodd" d="M14.542 219C9.83041 224.705 7 232.022 7 240C7 250.932 10.128 255.39 25.0911 276.715C28.3418 281.348 32.1512 286.776 36.6083 293.241L36.612 293.226L36.6193 293.241C37.001 293.785 37.5085 294.23 38.0987 294.536C38.6889 294.842 39.3444 295.001 40.0093 295C40.6743 294.999 41.3291 294.837 41.9179 294.528C42.5068 294.219 43.0124 293.772 43.3917 293.226C47.8558 286.753 51.6701 281.318 54.9242 276.682C69.8742 255.382 73 250.928 73 240C73 232.022 70.1696 224.705 65.458 219H14.542Z" fill="#FFB703"/>
<path d="M29.7112 232.885L26.5612 234.535V230.275L32.0812 227.2H34.1962V247H29.7112V232.885ZM36.6606 237.115C36.6606 235.395 36.8756 233.895 37.3056 232.615C37.7456 231.325 38.3406 230.255 39.0906 229.405C39.8506 228.545 40.7106 227.905 41.6706 227.485C42.6406 227.055 43.6556 226.84 44.7156 226.84C45.7756 226.84 46.7856 227.055 47.7456 227.485C48.7156 227.905 49.5756 228.545 50.3256 229.405C51.0756 230.255 51.6656 231.325 52.0956 232.615C52.5256 233.895 52.7406 235.395 52.7406 237.115C52.7406 238.945 52.5256 240.51 52.0956 241.81C51.6656 243.11 51.0756 244.17 50.3256 244.99C49.5756 245.8 48.7156 246.4 47.7456 246.79C46.7856 247.17 45.7756 247.36 44.7156 247.36C43.6556 247.36 42.6406 247.17 41.6706 246.79C40.7106 246.4 39.8506 245.8 39.0906 244.99C38.3406 244.17 37.7456 243.11 37.3056 241.81C36.8756 240.51 36.6606 238.945 36.6606 237.115ZM41.1606 237.115C41.1606 238.545 41.3056 239.725 41.5956 240.655C41.8856 241.585 42.2956 242.28 42.8256 242.74C43.3556 243.19 43.9856 243.415 44.7156 243.415C45.4456 243.415 46.0706 243.19 46.5906 242.74C47.1206 242.28 47.5256 241.585 47.8056 240.655C48.0956 239.715 48.2406 238.535 48.2406 237.115C48.2406 235.775 48.0956 234.635 47.8056 233.695C47.5256 232.755 47.1206 232.035 46.5906 231.535C46.0706 231.035 45.4456 230.785 44.7156 230.785C43.9856 230.785 43.3556 231.035 42.8256 231.535C42.2956 232.035 41.8856 232.755 41.5956 233.695C41.3056 234.635 41.1606 235.775 41.1606 237.115Z" fill="#FAFAFA"/>
<g clip-path="url(#clip1_657_2854)">
<path d="M340.44 306.9C310.548 263.684 305 259.252 305 243.375C305 221.627 322.683 204 344.5 204C366.317 204 384 221.627 384 243.375C384 259.252 378.452 263.675 348.56 306.882C348.106 307.534 347.501 308.067 346.796 308.435C346.091 308.804 345.307 308.997 344.511 308.999C343.715 309.001 342.931 308.811 342.224 308.445C341.518 308.08 340.91 307.55 340.453 306.9L340.445 306.882L340.44 306.9Z" fill="#8ECAE6"/>
<path d="M344.845 234.65C344.185 234.65 343.6 234.81 343.09 235.13C342.59 235.44 342.165 235.805 341.815 236.225C341.475 236.645 341.215 237.03 341.035 237.38C340.855 237.72 340.755 237.92 340.735 237.98L336.895 236.225C336.915 236.095 337.01 235.835 337.18 235.445C337.35 235.045 337.62 234.585 337.99 234.065C338.36 233.545 338.845 233.04 339.445 232.55C340.055 232.06 340.805 231.655 341.695 231.335C342.585 231.005 343.635 230.84 344.845 230.84C346.245 230.84 347.405 231.04 348.325 231.44C349.255 231.84 349.985 232.365 350.515 233.015C351.055 233.655 351.44 234.35 351.67 235.1C351.9 235.85 352.015 236.57 352.015 237.26C352.015 238.12 351.84 238.955 351.49 239.765C351.15 240.565 350.705 241.325 350.155 242.045C349.605 242.755 349.015 243.41 348.385 244.01C347.755 244.6 347.15 245.12 346.57 245.57C346 246.01 345.515 246.36 345.115 246.62C344.715 246.88 344.475 247.04 344.395 247.1H351.85V251H337.645V247.445C337.795 247.335 338.135 247.09 338.665 246.71C339.195 246.33 339.83 245.855 340.57 245.285C341.32 244.715 342.095 244.09 342.895 243.41C343.705 242.72 344.455 242.01 345.145 241.28C345.845 240.55 346.415 239.835 346.855 239.135C347.295 238.435 347.515 237.79 347.515 237.2C347.515 236.27 347.28 235.615 346.81 235.235C346.35 234.845 345.695 234.65 344.845 234.65Z" fill="#FAFAFA"/>
</g>
<path fill-rule="evenodd" clip-rule="evenodd" d="M331.699 285C334.582 289.111 337.869 293.81 341.613 299.241L341.617 299.226L341.624 299.241C342.006 299.785 342.513 300.23 343.104 300.536C343.694 300.842 344.349 301.001 345.014 301C345.679 300.999 346.334 300.837 346.923 300.528C347.512 300.219 348.017 299.772 348.397 299.226C352.137 293.802 355.422 289.107 358.303 285H331.699Z" fill="#219EBC"/>
<path d="M252 98C290.999 101 342.921 127.897 348.165 173.809M348.165 173.809L334.496 163.745M348.165 173.809L356.291 162.771" stroke="#219EBC" stroke-width="8" stroke-linecap="round"/>
<path d="M205.604 59.2439C209.408 59.2439 212.521 56.039 212.521 52.122C212.521 48.2049 209.408 45 205.604 45C201.8 45 198.687 48.2049 198.687 52.122C198.687 56.039 201.8 59.2439 205.604 59.2439ZM169.292 82.3902C159.608 82.3902 152 90.2244 152 100.195C152 110.166 159.608 118 169.292 118C178.975 118 186.583 110.166 186.583 100.195C186.583 90.2244 178.975 82.3902 169.292 82.3902ZM169.292 112.659C162.721 112.659 157.187 106.961 157.187 100.195C157.187 93.4293 162.721 87.7317 169.292 87.7317C175.862 87.7317 181.396 93.4293 181.396 100.195C181.396 106.961 175.862 112.659 169.292 112.659ZM189.35 77.0488L197.65 68.5024L200.417 71.3512C204.912 75.9805 210.792 78.8293 218.054 78.8293V71.7073C212.867 71.7073 208.717 69.5707 205.604 66.3659L199.033 59.6C197.304 58.1756 195.575 57.4634 193.5 57.4634C191.425 57.4634 189.696 58.1756 188.658 59.6L178.975 69.5707C177.592 70.9951 176.9 72.7756 176.9 74.5561C176.9 76.6927 177.592 78.4732 178.975 79.5415L190.042 89.5122V107.317H196.958V85.239L189.35 77.0488ZM217.708 82.3902C208.025 82.3902 200.417 90.2244 200.417 100.195C200.417 110.166 208.025 118 217.708 118C227.392 118 235 110.166 235 100.195C235 90.2244 227.392 82.3902 217.708 82.3902ZM217.708 112.659C211.137 112.659 205.604 106.961 205.604 100.195C205.604 93.4293 211.137 87.7317 217.708 87.7317C224.279 87.7317 229.812 93.4293 229.812 100.195C229.812 106.961 224.279 112.659 217.708 112.659Z" fill="#219EBC"/>
<path d="M41.5 179.5C47.1667 161 71.9 120.8 125.5 108" stroke="#219EBC" stroke-width="8" stroke-linecap="round"/>
<defs>
<clipPath id="clip0_657_2854">
<rect width="79" height="105" fill="white" transform="translate(0 200)"/>
</clipPath>
<clipPath id="clip1_657_2854">
<rect width="79" height="105" fill="white" transform="translate(305 204)"/>
</clipPath>
</defs>
</svg>
