<svg width="430" height="510" viewBox="0 0 430 510" fill="none" xmlns="http://www.w3.org/2000/svg">
<path d="M0 50C0 22.3858 22.3858 0 50 0H380C407.614 0 430 22.3858 430 50V510H0V50Z" fill="#FAFAFA"/>
<path d="M133.738 59.6862C134.968 59.6862 136.043 59.8212 136.963 60.0912C137.883 60.3612 138.623 60.6462 139.183 60.9462C139.743 61.2462 140.083 61.4462 140.203 61.5462L138.043 65.1612C137.883 65.0412 137.608 64.8662 137.218 64.6362C136.838 64.4062 136.383 64.2012 135.853 64.0212C135.333 63.8412 134.788 63.7512 134.218 63.7512C133.448 63.7512 132.823 63.8912 132.343 64.1712C131.873 64.4412 131.638 64.8462 131.638 65.3862C131.638 65.7562 131.763 66.0912 132.013 66.3912C132.273 66.6812 132.663 66.9612 133.183 67.2312C133.713 67.4912 134.383 67.7762 135.193 68.0862C135.933 68.3562 136.628 68.6762 137.278 69.0462C137.928 69.4162 138.498 69.8562 138.988 70.3662C139.488 70.8662 139.883 71.4462 140.173 72.1062C140.463 72.7662 140.608 73.5162 140.608 74.3562C140.608 75.3562 140.403 76.2262 139.993 76.9662C139.583 77.6962 139.023 78.3012 138.313 78.7812C137.613 79.2612 136.813 79.6162 135.913 79.8462C135.023 80.0862 134.098 80.2062 133.138 80.2062C131.778 80.2062 130.558 80.0512 129.478 79.7412C128.408 79.4312 127.543 79.0962 126.883 78.7362C126.223 78.3762 125.828 78.1362 125.698 78.0162L127.933 74.2512C128.053 74.3412 128.283 74.4862 128.623 74.6862C128.973 74.8862 129.398 75.0962 129.898 75.3162C130.398 75.5262 130.928 75.7062 131.488 75.8562C132.058 76.0062 132.618 76.0812 133.168 76.0812C134.088 76.0812 134.778 75.9062 135.238 75.5562C135.698 75.1962 135.928 74.7262 135.928 74.1462C135.928 73.7162 135.783 73.3312 135.493 72.9912C135.203 72.6512 134.768 72.3312 134.188 72.0312C133.608 71.7212 132.883 71.3962 132.013 71.0562C131.143 70.7062 130.328 70.2812 129.568 69.7812C128.818 69.2812 128.208 68.6562 127.738 67.9062C127.268 67.1562 127.033 66.2262 127.033 65.1162C127.033 64.0062 127.343 63.0462 127.963 62.2362C128.593 61.4162 129.418 60.7862 130.438 60.3462C131.468 59.9062 132.568 59.6862 133.738 59.6862ZM142.275 67.5312H144.375V62.4762H148.89V67.5312H151.65V71.2812H148.89V74.7162C148.89 75.2262 148.965 75.6412 149.115 75.9612C149.265 76.2712 149.54 76.4262 149.94 76.4262C150.21 76.4262 150.44 76.3662 150.63 76.2462C150.82 76.1262 150.935 76.0462 150.975 76.0062L152.535 79.2462C152.465 79.3062 152.245 79.4162 151.875 79.5762C151.515 79.7362 151.055 79.8812 150.495 80.0112C149.935 80.1412 149.31 80.2062 148.62 80.2062C147.39 80.2062 146.375 79.8612 145.575 79.1712C144.775 78.4712 144.375 77.3962 144.375 75.9462V71.2812H142.275V67.5312ZM163.779 79.8462V77.8512C163.689 78.0512 163.459 78.3412 163.089 78.7212C162.729 79.1012 162.249 79.4462 161.649 79.7562C161.049 80.0562 160.349 80.2062 159.549 80.2062C158.349 80.2062 157.299 79.9162 156.399 79.3362C155.499 78.7462 154.799 77.9612 154.299 76.9812C153.799 75.9912 153.549 74.8962 153.549 73.6962C153.549 72.4962 153.799 71.4062 154.299 70.4262C154.799 69.4362 155.499 68.6462 156.399 68.0562C157.299 67.4662 158.349 67.1712 159.549 67.1712C160.319 67.1712 160.994 67.2962 161.574 67.5462C162.154 67.7862 162.624 68.0762 162.984 68.4162C163.344 68.7462 163.594 69.0512 163.734 69.3312V67.5312H168.264V79.8462H163.779ZM158.019 73.6962C158.019 74.2562 158.149 74.7612 158.409 75.2112C158.669 75.6512 159.014 75.9962 159.444 76.2462C159.884 76.4962 160.369 76.6212 160.899 76.6212C161.449 76.6212 161.934 76.4962 162.354 76.2462C162.774 75.9962 163.104 75.6512 163.344 75.2112C163.594 74.7612 163.719 74.2562 163.719 73.6962C163.719 73.1362 163.594 72.6362 163.344 72.1962C163.104 71.7462 162.774 71.3962 162.354 71.1462C161.934 70.8862 161.449 70.7562 160.899 70.7562C160.369 70.7562 159.884 70.8862 159.444 71.1462C159.014 71.3962 158.669 71.7462 158.409 72.1962C158.149 72.6362 158.019 73.1362 158.019 73.6962ZM170.107 67.5312H172.207V62.4762H176.722V67.5312H179.482V71.2812H176.722V74.7162C176.722 75.2262 176.797 75.6412 176.947 75.9612C177.097 76.2712 177.372 76.4262 177.772 76.4262C178.042 76.4262 178.272 76.3662 178.462 76.2462C178.652 76.1262 178.767 76.0462 178.807 76.0062L180.367 79.2462C180.297 79.3062 180.077 79.4162 179.707 79.5762C179.347 79.7362 178.887 79.8812 178.327 80.0112C177.767 80.1412 177.142 80.2062 176.452 80.2062C175.222 80.2062 174.207 79.8612 173.407 79.1712C172.607 78.4712 172.207 77.3962 172.207 75.9462V71.2812H170.107V67.5312ZM182.206 79.8462V67.5312H186.766V79.8462H182.206ZM184.546 64.9962C183.826 64.9962 183.216 64.7462 182.716 64.2462C182.216 63.7362 181.966 63.1312 181.966 62.4312C181.966 61.7312 182.216 61.1262 182.716 60.6162C183.226 60.0962 183.836 59.8362 184.546 59.8362C185.016 59.8362 185.446 59.9562 185.836 60.1962C186.226 60.4262 186.541 60.7362 186.781 61.1262C187.021 61.5162 187.141 61.9512 187.141 62.4312C187.141 63.1312 186.886 63.7362 186.376 64.2462C185.866 64.7462 185.256 64.9962 184.546 64.9962ZM196.177 80.2062C194.827 80.2062 193.627 79.9312 192.577 79.3812C191.537 78.8212 190.717 78.0562 190.117 77.0862C189.527 76.1062 189.232 74.9862 189.232 73.7262C189.232 72.4662 189.527 71.3462 190.117 70.3662C190.717 69.3762 191.537 68.5962 192.577 68.0262C193.627 67.4562 194.827 67.1712 196.177 67.1712C197.527 67.1712 198.717 67.4562 199.747 68.0262C200.777 68.5962 201.582 69.3762 202.162 70.3662C202.742 71.3462 203.032 72.4662 203.032 73.7262C203.032 74.9862 202.742 76.1062 202.162 77.0862C201.582 78.0562 200.777 78.8212 199.747 79.3812C198.717 79.9312 197.527 80.2062 196.177 80.2062ZM196.177 76.4562C196.697 76.4562 197.147 76.3412 197.527 76.1112C197.907 75.8812 198.202 75.5562 198.412 75.1362C198.622 74.7162 198.727 74.2412 198.727 73.7112C198.727 73.1712 198.622 72.6912 198.412 72.2712C198.202 71.8512 197.907 71.5212 197.527 71.2812C197.147 71.0412 196.697 70.9212 196.177 70.9212C195.657 70.9212 195.202 71.0412 194.812 71.2812C194.432 71.5212 194.132 71.8512 193.912 72.2712C193.702 72.6912 193.597 73.1712 193.597 73.7112C193.597 74.2412 193.702 74.7162 193.912 75.1362C194.132 75.5562 194.432 75.8812 194.812 76.1112C195.202 76.3412 195.657 76.4562 196.177 76.4562ZM213.881 67.1712C214.741 67.1712 215.581 67.3462 216.401 67.6962C217.221 68.0462 217.896 68.6012 218.426 69.3612C218.956 70.1112 219.221 71.1012 219.221 72.3312V79.8462H214.646V73.0812C214.646 72.2012 214.436 71.5412 214.016 71.1012C213.596 70.6512 213.046 70.4262 212.366 70.4262C211.916 70.4262 211.491 70.5462 211.091 70.7862C210.701 71.0162 210.381 71.3462 210.131 71.7762C209.891 72.1962 209.771 72.6812 209.771 73.2312V79.8462H205.211V67.5312H209.771V69.3462C209.891 69.0162 210.141 68.6862 210.521 68.3562C210.911 68.0162 211.396 67.7362 211.976 67.5162C212.566 67.2862 213.201 67.1712 213.881 67.1712ZM229.795 60.0462H242.44V63.9762H234.265V68.0112H242.365V71.8212H234.265V75.9162H242.44V79.8462H229.795V60.0462ZM252.3 86.4312C251.44 86.4312 250.585 86.3562 249.735 86.2062C248.895 86.0562 248.11 85.8012 247.38 85.4412C246.65 85.0812 246.035 84.5862 245.535 83.9562L248.205 81.1812C248.435 81.4512 248.715 81.7162 249.045 81.9762C249.385 82.2362 249.8 82.4512 250.29 82.6212C250.79 82.7912 251.395 82.8762 252.105 82.8762C252.765 82.8762 253.34 82.7612 253.83 82.5312C254.32 82.3012 254.7 81.9662 254.97 81.5262C255.25 81.0862 255.39 80.5512 255.39 79.9212V79.6212H259.875V80.1912C259.875 81.5512 259.535 82.6962 258.855 83.6262C258.185 84.5562 257.28 85.2562 256.14 85.7262C255 86.1962 253.72 86.4312 252.3 86.4312ZM255.39 79.8462V77.8512C255.3 78.0512 255.07 78.3412 254.7 78.7212C254.34 79.1012 253.86 79.4462 253.26 79.7562C252.66 80.0562 251.96 80.2062 251.16 80.2062C249.96 80.2062 248.91 79.9162 248.01 79.3362C247.11 78.7462 246.41 77.9612 245.91 76.9812C245.41 75.9912 245.16 74.8962 245.16 73.6962C245.16 72.4962 245.41 71.4062 245.91 70.4262C246.41 69.4362 247.11 68.6462 248.01 68.0562C248.91 67.4662 249.96 67.1712 251.16 67.1712C251.93 67.1712 252.605 67.2962 253.185 67.5462C253.765 67.7862 254.235 68.0762 254.595 68.4162C254.955 68.7462 255.205 69.0512 255.345 69.3312V67.5312H259.875V79.8462H255.39ZM249.63 73.6962C249.63 74.2562 249.76 74.7612 250.02 75.2112C250.28 75.6512 250.625 75.9962 251.055 76.2462C251.495 76.4962 251.98 76.6212 252.51 76.6212C253.06 76.6212 253.545 76.4962 253.965 76.2462C254.385 75.9962 254.715 75.6512 254.955 75.2112C255.205 74.7612 255.33 74.2562 255.33 73.6962C255.33 73.1362 255.205 72.6362 254.955 72.1962C254.715 71.7462 254.385 71.3962 253.965 71.1462C253.545 70.8862 253.06 70.7562 252.51 70.7562C251.98 70.7562 251.495 70.8862 251.055 71.1462C250.625 71.3962 250.28 71.7462 250.02 72.1962C249.76 72.6362 249.63 73.1362 249.63 73.6962ZM267.358 79.8462H262.783V59.2062H267.358V79.8462ZM270.448 79.8462V67.5312H275.008V79.8462H270.448ZM272.788 64.9962C272.068 64.9962 271.458 64.7462 270.958 64.2462C270.458 63.7362 270.208 63.1312 270.208 62.4312C270.208 61.7312 270.458 61.1262 270.958 60.6162C271.468 60.0962 272.078 59.8362 272.788 59.8362C273.258 59.8362 273.688 59.9562 274.078 60.1962C274.468 60.4262 274.783 60.7362 275.023 61.1262C275.263 61.5162 275.383 61.9512 275.383 62.4312C275.383 63.1312 275.128 63.7362 274.618 64.2462C274.108 64.7462 273.498 64.9962 272.788 64.9962ZM283.67 67.1712C284.48 67.1712 285.22 67.2412 285.89 67.3812C286.56 67.5112 287.12 67.6612 287.57 67.8312C288.03 68.0012 288.325 68.1412 288.455 68.2512L286.97 70.9362C286.78 70.7962 286.425 70.6162 285.905 70.3962C285.395 70.1762 284.825 70.0662 284.195 70.0662C283.715 70.0662 283.31 70.1412 282.98 70.2912C282.65 70.4312 282.485 70.6562 282.485 70.9662C282.485 71.2762 282.665 71.5262 283.025 71.7162C283.395 71.8962 283.925 72.0562 284.615 72.1962C285.215 72.3162 285.825 72.5062 286.445 72.7662C287.065 73.0262 287.58 73.4112 287.99 73.9212C288.41 74.4212 288.62 75.0912 288.62 75.9312C288.62 76.7912 288.435 77.5012 288.065 78.0612C287.695 78.6212 287.205 79.0562 286.595 79.3662C285.985 79.6762 285.325 79.8912 284.615 80.0112C283.905 80.1412 283.215 80.2062 282.545 80.2062C281.605 80.2062 280.785 80.1212 280.085 79.9512C279.395 79.7812 278.835 79.5862 278.405 79.3662C277.975 79.1462 277.675 78.9712 277.505 78.8412L278.975 75.8412C279.235 76.0612 279.66 76.3112 280.25 76.5912C280.84 76.8612 281.465 76.9962 282.125 76.9962C282.765 76.9962 283.26 76.9012 283.61 76.7112C283.96 76.5212 284.135 76.2712 284.135 75.9612C284.135 75.7112 284.05 75.5112 283.88 75.3612C283.71 75.2112 283.47 75.0812 283.16 74.9712C282.85 74.8612 282.475 74.7612 282.035 74.6712C281.635 74.5912 281.21 74.4662 280.76 74.2962C280.31 74.1262 279.885 73.8962 279.485 73.6062C279.085 73.3062 278.76 72.9312 278.51 72.4812C278.26 72.0312 278.135 71.4862 278.135 70.8462C278.135 70.0262 278.4 69.3462 278.93 68.8062C279.46 68.2662 280.145 67.8612 280.985 67.5912C281.825 67.3112 282.72 67.1712 283.67 67.1712ZM294.67 74.6562C294.7 75.0962 294.84 75.4862 295.09 75.8262C295.34 76.1662 295.685 76.4362 296.125 76.6362C296.575 76.8262 297.105 76.9212 297.715 76.9212C298.295 76.9212 298.815 76.8612 299.275 76.7412C299.745 76.6212 300.15 76.4712 300.49 76.2912C300.84 76.1112 301.11 75.9262 301.3 75.7362L303.07 78.5562C302.82 78.8262 302.465 79.0912 302.005 79.3512C301.555 79.6012 300.96 79.8062 300.22 79.9662C299.48 80.1262 298.545 80.2062 297.415 80.2062C296.055 80.2062 294.845 79.9512 293.785 79.4412C292.725 78.9312 291.89 78.1812 291.28 77.1912C290.67 76.2012 290.365 74.9912 290.365 73.5612C290.365 72.3612 290.625 71.2812 291.145 70.3212C291.675 69.3512 292.44 68.5862 293.44 68.0262C294.44 67.4562 295.645 67.1712 297.055 67.1712C298.395 67.1712 299.555 67.4162 300.535 67.9062C301.525 68.3962 302.285 69.1262 302.815 70.0962C303.355 71.0562 303.625 72.2562 303.625 73.6962C303.625 73.7762 303.62 73.9362 303.61 74.1762C303.61 74.4162 303.6 74.5762 303.58 74.6562H294.67ZM299.335 72.2712C299.325 71.9512 299.24 71.6362 299.08 71.3262C298.92 71.0062 298.68 70.7462 298.36 70.5462C298.04 70.3362 297.63 70.2312 297.13 70.2312C296.63 70.2312 296.205 70.3312 295.855 70.5312C295.515 70.7212 295.255 70.9712 295.075 71.2812C294.895 71.5912 294.795 71.9212 294.775 72.2712H299.335ZM140.564 87.6862C141.794 87.6862 142.869 87.8212 143.789 88.0912C144.709 88.3612 145.449 88.6462 146.009 88.9462C146.569 89.2462 146.909 89.4462 147.029 89.5462L144.869 93.1612C144.709 93.0412 144.434 92.8662 144.044 92.6362C143.664 92.4062 143.209 92.2012 142.679 92.0212C142.159 91.8412 141.614 91.7512 141.044 91.7512C140.274 91.7512 139.649 91.8912 139.169 92.1712C138.699 92.4412 138.464 92.8462 138.464 93.3862C138.464 93.7562 138.589 94.0912 138.839 94.3912C139.099 94.6812 139.489 94.9612 140.009 95.2312C140.539 95.4912 141.209 95.7762 142.019 96.0862C142.759 96.3562 143.454 96.6762 144.104 97.0462C144.754 97.4162 145.324 97.8562 145.814 98.3662C146.314 98.8662 146.709 99.4462 146.999 100.106C147.289 100.766 147.434 101.516 147.434 102.356C147.434 103.356 147.229 104.226 146.819 104.966C146.409 105.696 145.849 106.301 145.139 106.781C144.439 107.261 143.639 107.616 142.739 107.846C141.849 108.086 140.924 108.206 139.964 108.206C138.604 108.206 137.384 108.051 136.304 107.741C135.234 107.431 134.369 107.096 133.709 106.736C133.049 106.376 132.654 106.136 132.524 106.016L134.759 102.251C134.879 102.341 135.109 102.486 135.449 102.686C135.799 102.886 136.224 103.096 136.724 103.316C137.224 103.526 137.754 103.706 138.314 103.856C138.884 104.006 139.444 104.081 139.994 104.081C140.914 104.081 141.604 103.906 142.064 103.556C142.524 103.196 142.754 102.726 142.754 102.146C142.754 101.716 142.609 101.331 142.319 100.991C142.029 100.651 141.594 100.331 141.014 100.031C140.434 99.7212 139.709 99.3962 138.839 99.0562C137.969 98.7062 137.154 98.2812 136.394 97.7812C135.644 97.2812 135.034 96.6562 134.564 95.9062C134.094 95.1562 133.859 94.2262 133.859 93.1162C133.859 92.0062 134.169 91.0462 134.789 90.2362C135.419 89.4162 136.244 88.7862 137.264 88.3462C138.294 87.9062 139.394 87.6862 140.564 87.6862ZM159.707 107.846V105.851C159.617 106.051 159.387 106.341 159.017 106.721C158.657 107.101 158.177 107.446 157.577 107.756C156.977 108.056 156.277 108.206 155.477 108.206C154.277 108.206 153.227 107.916 152.327 107.336C151.427 106.746 150.727 105.961 150.227 104.981C149.727 103.991 149.477 102.896 149.477 101.696C149.477 100.496 149.727 99.4062 150.227 98.4262C150.727 97.4362 151.427 96.6462 152.327 96.0562C153.227 95.4662 154.277 95.1712 155.477 95.1712C156.247 95.1712 156.922 95.2962 157.502 95.5462C158.082 95.7862 158.552 96.0762 158.912 96.4162C159.272 96.7462 159.522 97.0512 159.662 97.3312V95.5312H164.192V107.846H159.707ZM153.947 101.696C153.947 102.256 154.077 102.761 154.337 103.211C154.597 103.651 154.942 103.996 155.372 104.246C155.812 104.496 156.297 104.621 156.827 104.621C157.377 104.621 157.862 104.496 158.282 104.246C158.702 103.996 159.032 103.651 159.272 103.211C159.522 102.761 159.647 102.256 159.647 101.696C159.647 101.136 159.522 100.636 159.272 100.196C159.032 99.7462 158.702 99.3962 158.282 99.1462C157.862 98.8862 157.377 98.7562 156.827 98.7562C156.297 98.7562 155.812 98.8862 155.372 99.1462C154.942 99.3962 154.597 99.7462 154.337 100.196C154.077 100.636 153.947 101.136 153.947 101.696ZM167.235 107.846V95.5312H171.795V107.846H167.235ZM169.575 92.9962C168.855 92.9962 168.245 92.7462 167.745 92.2462C167.245 91.7362 166.995 91.1312 166.995 90.4312C166.995 89.7312 167.245 89.1262 167.745 88.6162C168.255 88.0962 168.865 87.8362 169.575 87.8362C170.045 87.8362 170.475 87.9562 170.865 88.1962C171.255 88.4262 171.57 88.7362 171.81 89.1262C172.05 89.5162 172.17 89.9512 172.17 90.4312C172.17 91.1312 171.915 91.7362 171.405 92.2462C170.895 92.7462 170.285 92.9962 169.575 92.9962ZM183.412 95.1712C184.272 95.1712 185.112 95.3462 185.932 95.6962C186.752 96.0462 187.427 96.6012 187.957 97.3612C188.487 98.1112 188.752 99.1012 188.752 100.331V107.846H184.177V101.081C184.177 100.201 183.967 99.5412 183.547 99.1012C183.127 98.6512 182.577 98.4262 181.897 98.4262C181.447 98.4262 181.022 98.5462 180.622 98.7862C180.232 99.0162 179.912 99.3462 179.662 99.7762C179.422 100.196 179.302 100.681 179.302 101.231V107.846H174.742V95.5312H179.302V97.3462C179.422 97.0162 179.672 96.6862 180.052 96.3562C180.442 96.0162 180.927 95.7362 181.507 95.5162C182.097 95.2862 182.732 95.1712 183.412 95.1712ZM190.352 95.5312H192.452V90.4762H196.967V95.5312H199.727V99.2812H196.967V102.716C196.967 103.226 197.042 103.641 197.192 103.961C197.342 104.271 197.617 104.426 198.017 104.426C198.287 104.426 198.517 104.366 198.707 104.246C198.897 104.126 199.012 104.046 199.052 104.006L200.612 107.246C200.542 107.306 200.322 107.416 199.952 107.576C199.592 107.736 199.132 107.881 198.572 108.011C198.012 108.141 197.387 108.206 196.697 108.206C195.467 108.206 194.452 107.861 193.652 107.171C192.852 106.471 192.452 105.396 192.452 103.946V99.2812H190.352V95.5312ZM205.93 102.656C205.96 103.096 206.1 103.486 206.35 103.826C206.6 104.166 206.945 104.436 207.385 104.636C207.835 104.826 208.365 104.921 208.975 104.921C209.555 104.921 210.075 104.861 210.535 104.741C211.005 104.621 211.41 104.471 211.75 104.291C212.1 104.111 212.37 103.926 212.56 103.736L214.33 106.556C214.08 106.826 213.725 107.091 213.265 107.351C212.815 107.601 212.22 107.806 211.48 107.966C210.74 108.126 209.805 108.206 208.675 108.206C207.315 108.206 206.105 107.951 205.045 107.441C203.985 106.931 203.15 106.181 202.54 105.191C201.93 104.201 201.625 102.991 201.625 101.561C201.625 100.361 201.885 99.2812 202.405 98.3212C202.935 97.3512 203.7 96.5862 204.7 96.0262C205.7 95.4562 206.905 95.1712 208.315 95.1712C209.655 95.1712 210.815 95.4162 211.795 95.9062C212.785 96.3962 213.545 97.1262 214.075 98.0962C214.615 99.0562 214.885 100.256 214.885 101.696C214.885 101.776 214.88 101.936 214.87 102.176C214.87 102.416 214.86 102.576 214.84 102.656H205.93ZM210.595 100.271C210.585 99.9512 210.5 99.6362 210.34 99.3262C210.18 99.0062 209.94 98.7462 209.62 98.5462C209.3 98.3362 208.89 98.2312 208.39 98.2312C207.89 98.2312 207.465 98.3312 207.115 98.5312C206.775 98.7212 206.515 98.9712 206.335 99.2812C206.155 99.5912 206.055 99.9212 206.035 100.271H210.595ZM217.571 102.956V99.0862H225.296V102.956H217.571ZM239.049 103.766C239.969 103.766 240.804 103.631 241.554 103.361C242.314 103.091 242.879 102.826 243.249 102.566L245.169 106.376C244.699 106.776 243.894 107.181 242.754 107.591C241.624 108.001 240.279 108.206 238.719 108.206C237.259 108.206 235.889 107.951 234.609 107.441C233.329 106.931 232.199 106.216 231.219 105.296C230.249 104.366 229.484 103.281 228.924 102.041C228.374 100.791 228.099 99.4362 228.099 97.9762C228.099 96.5162 228.374 95.1612 228.924 93.9112C229.474 92.6512 230.234 91.5562 231.204 90.6262C232.184 89.6962 233.314 88.9762 234.594 88.4662C235.884 87.9462 237.259 87.6862 238.719 87.6862C240.279 87.6862 241.624 87.8912 242.754 88.3012C243.894 88.7112 244.699 89.1162 245.169 89.5162L243.249 93.3262C242.879 93.0562 242.314 92.7912 241.554 92.5312C240.804 92.2612 239.969 92.1262 239.049 92.1262C238.029 92.1262 237.139 92.2862 236.379 92.6062C235.619 92.9162 234.984 93.3462 234.474 93.8962C233.964 94.4462 233.584 95.0662 233.334 95.7562C233.084 96.4462 232.959 97.1712 232.959 97.9312C232.959 98.7012 233.084 99.4362 233.334 100.136C233.584 100.826 233.964 101.446 234.474 101.996C234.984 102.546 235.619 102.981 236.379 103.301C237.139 103.611 238.029 103.766 239.049 103.766ZM252.085 107.846H247.525V95.5312H252.085V97.4362H252.01C252.09 97.2062 252.285 96.9162 252.595 96.5662C252.905 96.2062 253.34 95.8862 253.9 95.6062C254.46 95.3162 255.145 95.1712 255.955 95.1712C256.525 95.1712 257.05 95.2612 257.53 95.4412C258.01 95.6112 258.36 95.7762 258.58 95.9362L256.81 99.6412C256.67 99.4712 256.42 99.2962 256.06 99.1162C255.71 98.9262 255.27 98.8312 254.74 98.8312C254.13 98.8312 253.625 98.9862 253.225 99.2962C252.835 99.6062 252.545 99.9812 252.355 100.421C252.175 100.861 252.085 101.276 252.085 101.666V107.846ZM265.758 108.206C264.408 108.206 263.208 107.931 262.158 107.381C261.118 106.821 260.298 106.056 259.698 105.086C259.108 104.106 258.813 102.986 258.813 101.726C258.813 100.466 259.108 99.3462 259.698 98.3662C260.298 97.3762 261.118 96.5962 262.158 96.0262C263.208 95.4562 264.408 95.1712 265.758 95.1712C267.108 95.1712 268.298 95.4562 269.328 96.0262C270.358 96.5962 271.163 97.3762 271.743 98.3662C272.323 99.3462 272.613 100.466 272.613 101.726C272.613 102.986 272.323 104.106 271.743 105.086C271.163 106.056 270.358 106.821 269.328 107.381C268.298 107.931 267.108 108.206 265.758 108.206ZM265.758 104.456C266.278 104.456 266.728 104.341 267.108 104.111C267.488 103.881 267.783 103.556 267.993 103.136C268.203 102.716 268.308 102.241 268.308 101.711C268.308 101.171 268.203 100.691 267.993 100.271C267.783 99.8512 267.488 99.5212 267.108 99.2812C266.728 99.0412 266.278 98.9212 265.758 98.9212C265.238 98.9212 264.783 99.0412 264.393 99.2812C264.013 99.5212 263.713 99.8512 263.493 100.271C263.283 100.691 263.178 101.171 263.178 101.711C263.178 102.241 263.283 102.716 263.493 103.136C263.713 103.556 264.013 103.881 264.393 104.111C264.783 104.341 265.238 104.456 265.758 104.456ZM275.136 107.846V95.5312H279.696V107.846H275.136ZM277.476 92.9962C276.756 92.9962 276.146 92.7462 275.646 92.2462C275.146 91.7362 274.896 91.1312 274.896 90.4312C274.896 89.7312 275.146 89.1262 275.646 88.6162C276.156 88.0962 276.766 87.8362 277.476 87.8362C277.946 87.8362 278.376 87.9562 278.766 88.1962C279.156 88.4262 279.471 88.7362 279.711 89.1262C279.951 89.5162 280.071 89.9512 280.071 90.4312C280.071 91.1312 279.816 91.7362 279.306 92.2462C278.796 92.7462 278.186 92.9962 277.476 92.9962ZM292.122 101.231L297.357 107.846H292.302L289.392 104.051L286.482 107.846H281.772L286.992 101.591L282.297 95.5312H287.397L289.677 98.6962L292.062 95.5312H296.682L292.122 101.231Z" fill="black"/>
<g clip-path="url(#clip0_367_2643)">
<rect x="23.5" y="244.5" width="383" height="102" rx="8.5" fill="#FAFAFA" stroke="#FF8811" stroke-width="3"/>
<path d="M130.776 270.323L130.972 270.357V282.846H128.108V267.666H132.064L138.872 280.132L138.677 280.178V267.666H141.54V282.846H137.561L130.776 270.323ZM144.578 268.644C144.578 268.107 144.77 267.674 145.153 267.344C145.544 267.015 146.019 266.85 146.579 266.85C147.131 266.85 147.599 267.015 147.982 267.344C148.365 267.674 148.557 268.107 148.557 268.644C148.557 269.165 148.373 269.594 148.005 269.932C147.637 270.269 147.162 270.438 146.579 270.438C145.989 270.438 145.506 270.269 145.13 269.932C144.762 269.594 144.578 269.165 144.578 268.644ZM145.74 268.644C145.74 268.881 145.816 269.088 145.97 269.265C146.131 269.433 146.334 269.518 146.579 269.518C146.817 269.518 147.016 269.433 147.177 269.265C147.346 269.088 147.43 268.881 147.43 268.644C147.43 268.398 147.346 268.195 147.177 268.034C147.016 267.866 146.817 267.781 146.579 267.781C146.349 267.781 146.15 267.866 145.981 268.034C145.82 268.195 145.74 268.398 145.74 268.644ZM150.872 275.268C150.872 273.934 151.037 272.776 151.367 271.795C151.697 270.806 152.145 269.985 152.712 269.334C153.28 268.682 153.92 268.195 154.633 267.873C155.354 267.551 156.101 267.39 156.875 267.39C157.657 267.39 158.405 267.551 159.118 267.873C159.839 268.195 160.479 268.682 161.038 269.334C161.598 269.985 162.039 270.806 162.361 271.795C162.691 272.776 162.855 273.934 162.855 275.268C162.855 276.663 162.691 277.859 162.361 278.856C162.039 279.845 161.598 280.654 161.038 281.282C160.479 281.911 159.839 282.375 159.118 282.674C158.405 282.973 157.657 283.122 156.875 283.122C156.101 283.122 155.354 282.973 154.633 282.674C153.92 282.375 153.28 281.911 152.712 281.282C152.145 280.654 151.697 279.845 151.367 278.856C151.037 277.859 150.872 276.663 150.872 275.268ZM153.77 275.268C153.77 276.464 153.901 277.457 154.161 278.246C154.43 279.028 154.798 279.611 155.265 279.994C155.733 280.378 156.27 280.569 156.875 280.569C157.481 280.569 158.014 280.378 158.474 279.994C158.942 279.611 159.306 279.024 159.566 278.235C159.835 277.445 159.969 276.456 159.969 275.268C159.969 274.118 159.835 273.148 159.566 272.358C159.306 271.569 158.942 270.971 158.474 270.564C158.014 270.15 157.481 269.943 156.875 269.943C156.27 269.943 155.733 270.15 155.265 270.564C154.798 270.971 154.43 271.569 154.161 272.358C153.901 273.148 153.77 274.118 153.77 275.268ZM164.416 275.268C164.416 273.934 164.581 272.776 164.911 271.795C165.241 270.806 165.689 269.985 166.256 269.334C166.824 268.682 167.464 268.195 168.177 267.873C168.898 267.551 169.645 267.39 170.419 267.39C171.201 267.39 171.949 267.551 172.662 267.873C173.383 268.195 174.023 268.682 174.582 269.334C175.142 269.985 175.583 270.806 175.905 271.795C176.235 272.776 176.399 273.934 176.399 275.268C176.399 276.663 176.235 277.859 175.905 278.856C175.583 279.845 175.142 280.654 174.582 281.282C174.023 281.911 173.383 282.375 172.662 282.674C171.949 282.973 171.201 283.122 170.419 283.122C169.645 283.122 168.898 282.973 168.177 282.674C167.464 282.375 166.824 281.911 166.256 281.282C165.689 280.654 165.241 279.845 164.911 278.856C164.581 277.859 164.416 276.663 164.416 275.268ZM167.314 275.268C167.314 276.464 167.445 277.457 167.705 278.246C167.974 279.028 168.342 279.611 168.809 279.994C169.277 280.378 169.814 280.569 170.419 280.569C171.025 280.569 171.558 280.378 172.018 279.994C172.486 279.611 172.85 279.024 173.11 278.235C173.379 277.445 173.513 276.456 173.513 275.268C173.513 274.118 173.379 273.148 173.11 272.358C172.85 271.569 172.486 270.971 172.018 270.564C171.558 270.15 171.025 269.943 170.419 269.943C169.814 269.943 169.277 270.15 168.809 270.564C168.342 270.971 167.974 271.569 167.705 272.358C167.445 273.148 167.314 274.118 167.314 275.268ZM177.96 275.268C177.96 273.934 178.125 272.776 178.455 271.795C178.784 270.806 179.233 269.985 179.8 269.334C180.368 268.682 181.008 268.195 181.721 267.873C182.441 267.551 183.189 267.39 183.963 267.39C184.745 267.39 185.493 267.551 186.206 267.873C186.926 268.195 187.567 268.682 188.126 269.334C188.686 269.985 189.127 270.806 189.449 271.795C189.778 272.776 189.943 273.934 189.943 275.268C189.943 276.663 189.778 277.859 189.449 278.856C189.127 279.845 188.686 280.654 188.126 281.282C187.567 281.911 186.926 282.375 186.206 282.674C185.493 282.973 184.745 283.122 183.963 283.122C183.189 283.122 182.441 282.973 181.721 282.674C181.008 282.375 180.368 281.911 179.8 281.282C179.233 280.654 178.784 279.845 178.455 278.856C178.125 277.859 177.96 276.663 177.96 275.268ZM180.858 275.268C180.858 276.464 180.989 277.457 181.249 278.246C181.518 279.028 181.886 279.611 182.353 279.994C182.821 280.378 183.358 280.569 183.963 280.569C184.569 280.569 185.102 280.378 185.562 279.994C186.029 279.611 186.394 279.024 186.654 278.235C186.923 277.445 187.057 276.456 187.057 275.268C187.057 274.118 186.923 273.148 186.654 272.358C186.394 271.569 186.029 270.971 185.562 270.564C185.102 270.15 184.569 269.943 183.963 269.943C183.358 269.943 182.821 270.15 182.353 270.564C181.886 270.971 181.518 271.569 181.249 272.358C180.989 273.148 180.858 274.118 180.858 275.268ZM191.504 275.268C191.504 273.934 191.669 272.776 191.999 271.795C192.328 270.806 192.777 269.985 193.344 269.334C193.912 268.682 194.552 268.195 195.265 267.873C195.985 267.551 196.733 267.39 197.507 267.39C198.289 267.39 199.037 267.551 199.75 267.873C200.47 268.195 201.111 268.682 201.67 269.334C202.23 269.985 202.671 270.806 202.993 271.795C203.322 272.776 203.487 273.934 203.487 275.268C203.487 276.663 203.322 277.859 202.993 278.856C202.671 279.845 202.23 280.654 201.67 281.282C201.111 281.911 200.47 282.375 199.75 282.674C199.037 282.973 198.289 283.122 197.507 283.122C196.733 283.122 195.985 282.973 195.265 282.674C194.552 282.375 193.912 281.911 193.344 281.282C192.777 280.654 192.328 279.845 191.999 278.856C191.669 277.859 191.504 276.663 191.504 275.268ZM194.402 275.268C194.402 276.464 194.533 277.457 194.793 278.246C195.062 279.028 195.43 279.611 195.897 279.994C196.365 280.378 196.902 280.569 197.507 280.569C198.113 280.569 198.646 280.378 199.106 279.994C199.573 279.611 199.938 279.024 200.198 278.235C200.467 277.445 200.601 276.456 200.601 275.268C200.601 274.118 200.467 273.148 200.198 272.358C199.938 271.569 199.573 270.971 199.106 270.564C198.646 270.15 198.113 269.943 197.507 269.943C196.902 269.943 196.365 270.15 195.897 270.564C195.43 270.971 195.062 271.569 194.793 272.358C194.533 273.148 194.402 274.118 194.402 275.268ZM210.775 269.851C210.223 269.851 209.736 269.978 209.315 270.231C208.893 270.476 208.54 270.764 208.257 271.093C207.973 271.423 207.755 271.722 207.601 271.99C207.456 272.259 207.375 272.416 207.36 272.462L204.887 271.335C204.903 271.25 204.975 271.066 205.106 270.783C205.236 270.491 205.439 270.154 205.715 269.771C205.999 269.387 206.367 269.016 206.819 268.655C207.272 268.295 207.824 267.996 208.475 267.758C209.127 267.513 209.894 267.39 210.775 267.39C211.757 267.39 212.581 267.528 213.248 267.804C213.922 268.08 214.459 268.452 214.858 268.92C215.264 269.38 215.555 269.897 215.732 270.472C215.916 271.04 216.008 271.615 216.008 272.197C216.008 272.857 215.866 273.504 215.582 274.141C215.306 274.777 214.942 275.39 214.49 275.981C214.045 276.563 213.566 277.108 213.052 277.614C212.539 278.112 212.044 278.557 211.569 278.948C211.101 279.331 210.699 279.642 210.361 279.879C210.024 280.117 209.817 280.266 209.74 280.328H215.881V282.846H205.37V280.546C205.531 280.424 205.83 280.201 206.267 279.879C206.704 279.55 207.214 279.151 207.797 278.683C208.379 278.216 208.977 277.706 209.591 277.154C210.212 276.602 210.787 276.034 211.316 275.452C211.852 274.869 212.286 274.298 212.615 273.738C212.953 273.171 213.121 272.646 213.121 272.163C213.121 271.319 212.918 270.725 212.512 270.38C212.105 270.028 211.527 269.851 210.775 269.851ZM218.206 270.461C218.275 270.208 218.424 269.905 218.654 269.552C218.884 269.2 219.199 268.862 219.597 268.54C220.004 268.211 220.502 267.938 221.092 267.724C221.69 267.501 222.388 267.39 223.185 267.39C224.151 267.39 224.995 267.57 225.715 267.931C226.444 268.283 227.007 268.774 227.406 269.403C227.812 270.031 228.015 270.756 228.015 271.576C228.015 272.113 227.912 272.604 227.705 273.048C227.505 273.493 227.245 273.861 226.923 274.152C226.608 274.444 226.275 274.628 225.922 274.704C226.313 274.75 226.712 274.923 227.118 275.222C227.525 275.521 227.866 275.923 228.142 276.429C228.418 276.935 228.556 277.537 228.556 278.235C228.556 279.178 228.322 280.017 227.854 280.753C227.394 281.489 226.754 282.068 225.934 282.49C225.121 282.911 224.186 283.122 223.128 283.122C222.054 283.122 221.138 282.934 220.379 282.559C219.628 282.183 219.026 281.723 218.574 281.179C218.129 280.634 217.83 280.109 217.677 279.603L220.31 278.281C220.41 278.618 220.579 278.967 220.816 279.327C221.062 279.688 221.376 279.994 221.759 280.247C222.15 280.493 222.603 280.615 223.116 280.615C223.661 280.615 224.124 280.508 224.508 280.293C224.891 280.079 225.186 279.787 225.393 279.419C225.6 279.044 225.704 278.618 225.704 278.143C225.704 277.644 225.581 277.23 225.336 276.901C225.098 276.571 224.784 276.33 224.393 276.176C224.002 276.015 223.576 275.935 223.116 275.935H222.817V273.842H223.208C223.607 273.842 223.975 273.761 224.312 273.6C224.65 273.432 224.918 273.194 225.117 272.887C225.317 272.573 225.416 272.205 225.416 271.783C225.416 271.208 225.225 270.721 224.841 270.323C224.458 269.924 223.894 269.725 223.151 269.725C222.714 269.725 222.334 269.798 222.012 269.943C221.698 270.081 221.437 270.258 221.23 270.472C221.031 270.679 220.874 270.886 220.759 271.093C220.651 271.293 220.586 271.454 220.563 271.576L218.206 270.461ZM230.714 267.666H241.202V269.633L233.681 282.846H230.507L237.844 270.185H230.714V267.666Z" fill="#FF8811"/>
<path d="M347.114 320.493C346.026 320.493 345.071 320.253 344.25 319.773C343.439 319.293 342.81 318.621 342.362 317.757C341.914 316.883 341.69 315.859 341.69 314.685C341.69 313.501 341.914 312.477 342.362 311.613C342.81 310.749 343.439 310.083 344.25 309.613C345.061 309.133 346.015 308.893 347.114 308.893C348.213 308.893 349.167 309.133 349.978 309.613C350.789 310.083 351.418 310.749 351.866 311.613C352.314 312.477 352.538 313.496 352.538 314.669C352.538 315.853 352.314 316.883 351.866 317.757C351.418 318.621 350.789 319.293 349.978 319.773C349.167 320.253 348.213 320.493 347.114 320.493ZM347.114 318.733C348.149 318.733 348.954 318.376 349.53 317.661C350.106 316.947 350.394 315.955 350.394 314.685C350.394 313.405 350.106 312.413 349.53 311.709C348.965 311.005 348.159 310.653 347.114 310.653C346.079 310.653 345.274 311.005 344.698 311.709C344.122 312.413 343.834 313.405 343.834 314.685C343.834 315.955 344.122 316.947 344.698 317.661C345.274 318.376 346.079 318.733 347.114 318.733ZM354.62 320.333V309.053H356.668V314.045H356.7L361.676 309.053H364.172L358.684 314.477L364.444 320.333H361.916L356.7 315.117H356.668V320.333H354.62Z" fill="#FF8811"/>
<path d="M83.6032 280.079C86.3187 280.079 88.5404 277.794 88.5404 275.001C88.5404 272.208 86.3187 269.923 83.6032 269.923C80.8877 269.923 78.666 272.208 78.666 275.001C78.666 277.794 80.8877 280.079 83.6032 280.079ZM57.6829 296.584C50.7708 296.584 45.3398 302.169 45.3398 309.279C45.3398 316.388 50.7708 321.974 57.6829 321.974C64.595 321.974 70.0259 316.388 70.0259 309.279C70.0259 302.169 64.595 296.584 57.6829 296.584ZM57.6829 318.166C52.9925 318.166 49.0428 314.103 49.0428 309.279C49.0428 304.455 52.9925 300.392 57.6829 300.392C62.3732 300.392 66.323 304.455 66.323 309.279C66.323 314.103 62.3732 318.166 57.6829 318.166ZM72.0008 292.775L77.9254 286.681L79.9003 288.712C83.1095 292.013 87.3061 294.044 92.4902 294.044V288.966C88.7873 288.966 85.825 287.443 83.6032 285.158L78.9129 280.333C77.6786 279.318 76.4443 278.81 74.9631 278.81C73.4819 278.81 72.2476 279.318 71.5071 280.333L64.595 287.443C63.6075 288.458 63.1138 289.728 63.1138 290.998C63.1138 292.521 63.6075 293.791 64.595 294.552L72.4945 301.662V314.357H77.4317V298.615L72.0008 292.775ZM92.2433 296.584C85.3312 296.584 79.9003 302.169 79.9003 309.279C79.9003 316.388 85.3312 321.974 92.2433 321.974C99.1554 321.974 104.586 316.388 104.586 309.279C104.586 302.169 99.1554 296.584 92.2433 296.584ZM92.2433 318.166C87.553 318.166 83.6032 314.103 83.6032 309.279C83.6032 304.455 87.553 300.392 92.2433 300.392C96.9337 300.392 100.883 304.455 100.883 309.279C100.883 314.103 96.9337 318.166 92.2433 318.166Z" fill="#FF8811"/>
<rect x="23.5" y="364.5" width="383" height="102" rx="8.5" fill="#FAFAFA" stroke="#FF8811" stroke-width="3"/>
<path d="M130.776 390.323L130.972 390.357V402.846H128.108V387.666H132.064L138.872 400.132L138.677 400.178V387.666H141.54V402.846H137.561L130.776 390.323ZM144.578 388.644C144.578 388.107 144.77 387.674 145.153 387.344C145.544 387.015 146.019 386.85 146.579 386.85C147.131 386.85 147.599 387.015 147.982 387.344C148.365 387.674 148.557 388.107 148.557 388.644C148.557 389.165 148.373 389.594 148.005 389.932C147.637 390.269 147.162 390.438 146.579 390.438C145.989 390.438 145.506 390.269 145.13 389.932C144.762 389.594 144.578 389.165 144.578 388.644ZM145.74 388.644C145.74 388.881 145.816 389.088 145.97 389.265C146.131 389.433 146.334 389.518 146.579 389.518C146.817 389.518 147.016 389.433 147.177 389.265C147.346 389.088 147.43 388.881 147.43 388.644C147.43 388.398 147.346 388.195 147.177 388.034C147.016 387.866 146.817 387.781 146.579 387.781C146.349 387.781 146.15 387.866 145.981 388.034C145.82 388.195 145.74 388.398 145.74 388.644ZM150.872 395.268C150.872 393.934 151.037 392.776 151.367 391.795C151.697 390.806 152.145 389.985 152.712 389.334C153.28 388.682 153.92 388.195 154.633 387.873C155.354 387.551 156.101 387.39 156.875 387.39C157.657 387.39 158.405 387.551 159.118 387.873C159.839 388.195 160.479 388.682 161.038 389.334C161.598 389.985 162.039 390.806 162.361 391.795C162.691 392.776 162.855 393.934 162.855 395.268C162.855 396.663 162.691 397.859 162.361 398.856C162.039 399.845 161.598 400.654 161.038 401.282C160.479 401.911 159.839 402.375 159.118 402.674C158.405 402.973 157.657 403.122 156.875 403.122C156.101 403.122 155.354 402.973 154.633 402.674C153.92 402.375 153.28 401.911 152.712 401.282C152.145 400.654 151.697 399.845 151.367 398.856C151.037 397.859 150.872 396.663 150.872 395.268ZM153.77 395.268C153.77 396.464 153.901 397.457 154.161 398.246C154.43 399.028 154.798 399.611 155.265 399.994C155.733 400.378 156.27 400.569 156.875 400.569C157.481 400.569 158.014 400.378 158.474 399.994C158.942 399.611 159.306 399.024 159.566 398.235C159.835 397.445 159.969 396.456 159.969 395.268C159.969 394.118 159.835 393.148 159.566 392.358C159.306 391.569 158.942 390.971 158.474 390.564C158.014 390.15 157.481 389.943 156.875 389.943C156.27 389.943 155.733 390.15 155.265 390.564C154.798 390.971 154.43 391.569 154.161 392.358C153.901 393.148 153.77 394.118 153.77 395.268ZM164.416 395.268C164.416 393.934 164.581 392.776 164.911 391.795C165.241 390.806 165.689 389.985 166.256 389.334C166.824 388.682 167.464 388.195 168.177 387.873C168.898 387.551 169.645 387.39 170.419 387.39C171.201 387.39 171.949 387.551 172.662 387.873C173.383 388.195 174.023 388.682 174.582 389.334C175.142 389.985 175.583 390.806 175.905 391.795C176.235 392.776 176.399 393.934 176.399 395.268C176.399 396.663 176.235 397.859 175.905 398.856C175.583 399.845 175.142 400.654 174.582 401.282C174.023 401.911 173.383 402.375 172.662 402.674C171.949 402.973 171.201 403.122 170.419 403.122C169.645 403.122 168.898 402.973 168.177 402.674C167.464 402.375 166.824 401.911 166.256 401.282C165.689 400.654 165.241 399.845 164.911 398.856C164.581 397.859 164.416 396.663 164.416 395.268ZM167.314 395.268C167.314 396.464 167.445 397.457 167.705 398.246C167.974 399.028 168.342 399.611 168.809 399.994C169.277 400.378 169.814 400.569 170.419 400.569C171.025 400.569 171.558 400.378 172.018 399.994C172.486 399.611 172.85 399.024 173.11 398.235C173.379 397.445 173.513 396.456 173.513 395.268C173.513 394.118 173.379 393.148 173.11 392.358C172.85 391.569 172.486 390.971 172.018 390.564C171.558 390.15 171.025 389.943 170.419 389.943C169.814 389.943 169.277 390.15 168.809 390.564C168.342 390.971 167.974 391.569 167.705 392.358C167.445 393.148 167.314 394.118 167.314 395.268ZM177.96 395.268C177.96 393.934 178.125 392.776 178.455 391.795C178.784 390.806 179.233 389.985 179.8 389.334C180.368 388.682 181.008 388.195 181.721 387.873C182.441 387.551 183.189 387.39 183.963 387.39C184.745 387.39 185.493 387.551 186.206 387.873C186.926 388.195 187.567 388.682 188.126 389.334C188.686 389.985 189.127 390.806 189.449 391.795C189.778 392.776 189.943 393.934 189.943 395.268C189.943 396.663 189.778 397.859 189.449 398.856C189.127 399.845 188.686 400.654 188.126 401.282C187.567 401.911 186.926 402.375 186.206 402.674C185.493 402.973 184.745 403.122 183.963 403.122C183.189 403.122 182.441 402.973 181.721 402.674C181.008 402.375 180.368 401.911 179.8 401.282C179.233 400.654 178.784 399.845 178.455 398.856C178.125 397.859 177.96 396.663 177.96 395.268ZM180.858 395.268C180.858 396.464 180.989 397.457 181.249 398.246C181.518 399.028 181.886 399.611 182.353 399.994C182.821 400.378 183.358 400.569 183.963 400.569C184.569 400.569 185.102 400.378 185.562 399.994C186.029 399.611 186.394 399.024 186.654 398.235C186.923 397.445 187.057 396.456 187.057 395.268C187.057 394.118 186.923 393.148 186.654 392.358C186.394 391.569 186.029 390.971 185.562 390.564C185.102 390.15 184.569 389.943 183.963 389.943C183.358 389.943 182.821 390.15 182.353 390.564C181.886 390.971 181.518 391.569 181.249 392.358C180.989 393.148 180.858 394.118 180.858 395.268ZM191.504 395.268C191.504 393.934 191.669 392.776 191.999 391.795C192.328 390.806 192.777 389.985 193.344 389.334C193.912 388.682 194.552 388.195 195.265 387.873C195.985 387.551 196.733 387.39 197.507 387.39C198.289 387.39 199.037 387.551 199.75 387.873C200.47 388.195 201.111 388.682 201.67 389.334C202.23 389.985 202.671 390.806 202.993 391.795C203.322 392.776 203.487 393.934 203.487 395.268C203.487 396.663 203.322 397.859 202.993 398.856C202.671 399.845 202.23 400.654 201.67 401.282C201.111 401.911 200.47 402.375 199.75 402.674C199.037 402.973 198.289 403.122 197.507 403.122C196.733 403.122 195.985 402.973 195.265 402.674C194.552 402.375 193.912 401.911 193.344 401.282C192.777 400.654 192.328 399.845 191.999 398.856C191.669 397.859 191.504 396.663 191.504 395.268ZM194.402 395.268C194.402 396.464 194.533 397.457 194.793 398.246C195.062 399.028 195.43 399.611 195.897 399.994C196.365 400.378 196.902 400.569 197.507 400.569C198.113 400.569 198.646 400.378 199.106 399.994C199.573 399.611 199.938 399.024 200.198 398.235C200.467 397.445 200.601 396.456 200.601 395.268C200.601 394.118 200.467 393.148 200.198 392.358C199.938 391.569 199.573 390.971 199.106 390.564C198.646 390.15 198.113 389.943 197.507 389.943C196.902 389.943 196.365 390.15 195.897 390.564C195.43 390.971 195.062 391.569 194.793 392.358C194.533 393.148 194.402 394.118 194.402 395.268ZM210.775 389.851C210.223 389.851 209.736 389.978 209.315 390.231C208.893 390.476 208.54 390.764 208.257 391.093C207.973 391.423 207.755 391.722 207.601 391.99C207.456 392.259 207.375 392.416 207.36 392.462L204.887 391.335C204.903 391.25 204.975 391.066 205.106 390.783C205.236 390.491 205.439 390.154 205.715 389.771C205.999 389.387 206.367 389.016 206.819 388.655C207.272 388.295 207.824 387.996 208.475 387.758C209.127 387.513 209.894 387.39 210.775 387.39C211.757 387.39 212.581 387.528 213.248 387.804C213.922 388.08 214.459 388.452 214.858 388.92C215.264 389.38 215.555 389.897 215.732 390.472C215.916 391.04 216.008 391.615 216.008 392.197C216.008 392.857 215.866 393.504 215.582 394.141C215.306 394.777 214.942 395.39 214.49 395.981C214.045 396.563 213.566 397.108 213.052 397.614C212.539 398.112 212.044 398.557 211.569 398.948C211.101 399.331 210.699 399.642 210.361 399.879C210.024 400.117 209.817 400.266 209.74 400.328H215.881V402.846H205.37V400.546C205.531 400.424 205.83 400.201 206.267 399.879C206.704 399.55 207.214 399.151 207.797 398.683C208.379 398.216 208.977 397.706 209.591 397.154C210.212 396.602 210.787 396.034 211.316 395.452C211.852 394.869 212.286 394.298 212.615 393.738C212.953 393.171 213.121 392.646 213.121 392.163C213.121 391.319 212.918 390.725 212.512 390.38C212.105 390.028 211.527 389.851 210.775 389.851ZM218.206 390.461C218.275 390.208 218.424 389.905 218.654 389.552C218.884 389.2 219.199 388.862 219.597 388.54C220.004 388.211 220.502 387.938 221.092 387.724C221.69 387.501 222.388 387.39 223.185 387.39C224.151 387.39 224.995 387.57 225.715 387.931C226.444 388.283 227.007 388.774 227.406 389.403C227.812 390.031 228.015 390.756 228.015 391.576C228.015 392.113 227.912 392.604 227.705 393.048C227.505 393.493 227.245 393.861 226.923 394.152C226.608 394.444 226.275 394.628 225.922 394.704C226.313 394.75 226.712 394.923 227.118 395.222C227.525 395.521 227.866 395.923 228.142 396.429C228.418 396.935 228.556 397.537 228.556 398.235C228.556 399.178 228.322 400.017 227.854 400.753C227.394 401.489 226.754 402.068 225.934 402.49C225.121 402.911 224.186 403.122 223.128 403.122C222.054 403.122 221.138 402.934 220.379 402.559C219.628 402.183 219.026 401.723 218.574 401.179C218.129 400.634 217.83 400.109 217.677 399.603L220.31 398.281C220.41 398.618 220.579 398.967 220.816 399.327C221.062 399.688 221.376 399.994 221.759 400.247C222.15 400.493 222.603 400.615 223.116 400.615C223.661 400.615 224.124 400.508 224.508 400.293C224.891 400.079 225.186 399.787 225.393 399.419C225.6 399.044 225.704 398.618 225.704 398.143C225.704 397.644 225.581 397.23 225.336 396.901C225.098 396.571 224.784 396.33 224.393 396.176C224.002 396.015 223.576 395.935 223.116 395.935H222.817V393.842H223.208C223.607 393.842 223.975 393.761 224.312 393.6C224.65 393.432 224.918 393.194 225.117 392.887C225.317 392.573 225.416 392.205 225.416 391.783C225.416 391.208 225.225 390.721 224.841 390.323C224.458 389.924 223.894 389.725 223.151 389.725C222.714 389.725 222.334 389.798 222.012 389.943C221.698 390.081 221.437 390.258 221.23 390.472C221.031 390.679 220.874 390.886 220.759 391.093C220.651 391.293 220.586 391.454 220.563 391.576L218.206 390.461ZM230.714 387.666H241.202V389.633L233.681 402.846H230.507L237.844 390.185H230.714V387.666Z" fill="#FF8811"/>
<path d="M347.114 440.493C346.026 440.493 345.071 440.253 344.25 439.773C343.439 439.293 342.81 438.621 342.362 437.757C341.914 436.883 341.69 435.859 341.69 434.685C341.69 433.501 341.914 432.477 342.362 431.613C342.81 430.749 343.439 430.083 344.25 429.613C345.061 429.133 346.015 428.893 347.114 428.893C348.213 428.893 349.167 429.133 349.978 429.613C350.789 430.083 351.418 430.749 351.866 431.613C352.314 432.477 352.538 433.496 352.538 434.669C352.538 435.853 352.314 436.883 351.866 437.757C351.418 438.621 350.789 439.293 349.978 439.773C349.167 440.253 348.213 440.493 347.114 440.493ZM347.114 438.733C348.149 438.733 348.954 438.376 349.53 437.661C350.106 436.947 350.394 435.955 350.394 434.685C350.394 433.405 350.106 432.413 349.53 431.709C348.965 431.005 348.159 430.653 347.114 430.653C346.079 430.653 345.274 431.005 344.698 431.709C344.122 432.413 343.834 433.405 343.834 434.685C343.834 435.955 344.122 436.947 344.698 437.661C345.274 438.376 346.079 438.733 347.114 438.733ZM354.62 440.333V429.053H356.668V434.045H356.7L361.676 429.053H364.172L358.684 434.477L364.444 440.333H361.916L356.7 435.117H356.668V440.333H354.62Z" fill="#FF8811"/>
<path d="M81.589 400.838C81.8036 400.959 81.9698 401.147 82.0602 401.372C82.1506 401.596 82.16 401.844 82.0869 402.074L78.1366 414.547H85.4252C85.6393 414.547 85.8489 414.607 86.0279 414.722C86.2069 414.836 86.3475 414.999 86.4324 415.19C86.5173 415.381 86.5428 415.592 86.5057 415.797C86.4686 416.002 86.3705 416.192 86.2235 416.343L68.6767 434.459C68.5069 434.635 68.281 434.749 68.0358 434.784C67.7905 434.819 67.5404 434.771 67.3262 434.65C67.112 434.529 66.9463 434.341 66.8562 434.117C66.7661 433.892 66.7568 433.645 66.8299 433.415L70.7801 420.941H63.4916C63.2775 420.941 63.0679 420.88 62.8889 420.765C62.7099 420.651 62.5693 420.488 62.4844 420.297C62.3995 420.106 62.374 419.895 62.4111 419.69C62.4482 419.485 62.5463 419.295 62.6933 419.144L80.2401 401.028C80.4096 400.853 80.6352 400.738 80.8801 400.704C81.125 400.669 81.3749 400.715 81.589 400.836V400.838Z" fill="#FF8811"/>
<rect x="23.5" y="484.5" width="383" height="102" rx="8.5" fill="#FAFAFA" stroke="#FF8811" stroke-width="3"/>
</g>
<circle cx="176" cy="187" r="14.5" stroke="#FF8811" stroke-width="3"/>
<circle cx="319" cy="186" r="14.5" stroke="#FF8811" stroke-width="3"/>
<path d="M285.382 166.163C285.622 166.297 285.807 166.507 285.907 166.757C286.008 167.007 286.019 167.283 285.937 167.54L281.537 181.438H289.656C289.894 181.438 290.128 181.505 290.327 181.633C290.527 181.76 290.683 181.941 290.778 182.154C290.873 182.367 290.901 182.602 290.86 182.831C290.818 183.059 290.709 183.271 290.545 183.44L270.998 203.626C270.809 203.822 270.557 203.949 270.284 203.988C270.011 204.026 269.732 203.974 269.494 203.839C269.255 203.704 269.071 203.494 268.97 203.244C268.87 202.994 268.86 202.719 268.941 202.462L273.341 188.562H265.222C264.984 188.562 264.75 188.495 264.551 188.367C264.351 188.24 264.195 188.058 264.1 187.846C264.006 187.633 263.977 187.397 264.018 187.169C264.06 186.941 264.169 186.729 264.333 186.56L283.88 166.374C284.069 166.179 284.32 166.051 284.593 166.013C284.866 165.974 285.144 166.026 285.382 166.16V166.163Z" fill="#FF8811"/>
<path d="M120.417 174.415C122.433 174.415 124.083 172.746 124.083 170.707C124.083 168.668 122.433 167 120.417 167C118.4 167 116.75 168.668 116.75 170.707C116.75 172.746 118.4 174.415 120.417 174.415ZM101.167 186.463C96.0333 186.463 92 190.541 92 195.732C92 200.922 96.0333 205 101.167 205C106.3 205 110.333 200.922 110.333 195.732C110.333 190.541 106.3 186.463 101.167 186.463ZM101.167 202.22C97.6833 202.22 94.75 199.254 94.75 195.732C94.75 192.21 97.6833 189.244 101.167 189.244C104.65 189.244 107.583 192.21 107.583 195.732C107.583 199.254 104.65 202.22 101.167 202.22ZM111.8 183.683L116.2 179.234L117.667 180.717C120.05 183.127 123.167 184.61 127.017 184.61V180.902C124.267 180.902 122.067 179.79 120.417 178.122L116.933 174.6C116.017 173.859 115.1 173.488 114 173.488C112.9 173.488 111.983 173.859 111.433 174.6L106.3 179.79C105.567 180.532 105.2 181.459 105.2 182.385C105.2 183.498 105.567 184.424 106.3 184.98L112.167 190.171V199.439H115.833V187.946L111.8 183.683ZM126.833 186.463C121.7 186.463 117.667 190.541 117.667 195.732C117.667 200.922 121.7 205 126.833 205C131.967 205 136 200.922 136 195.732C136 190.541 131.967 186.463 126.833 186.463ZM126.833 202.22C123.35 202.22 120.417 199.254 120.417 195.732C120.417 192.21 123.35 189.244 126.833 189.244C130.317 189.244 133.25 192.21 133.25 195.732C133.25 199.254 130.317 202.22 126.833 202.22Z" fill="#FF8811"/>
<path d="M109.23 140.16C108.057 140.16 107.049 139.925 106.206 139.456C105.374 138.976 104.734 138.304 104.286 137.44C103.838 136.565 103.614 135.536 103.614 134.352C103.614 133.168 103.838 132.144 104.286 131.28C104.734 130.416 105.374 129.749 106.206 129.28C107.049 128.8 108.057 128.56 109.23 128.56C109.987 128.56 110.702 128.677 111.374 128.912C112.057 129.147 112.617 129.483 113.054 129.92L112.382 131.552C111.902 131.147 111.411 130.853 110.91 130.672C110.409 130.48 109.87 130.384 109.294 130.384C108.153 130.384 107.283 130.731 106.686 131.424C106.089 132.107 105.79 133.083 105.79 134.352C105.79 135.621 106.089 136.603 106.686 137.296C107.283 137.989 108.153 138.336 109.294 138.336C109.87 138.336 110.409 138.245 110.91 138.064C111.411 137.872 111.902 137.573 112.382 137.168L113.054 138.8C112.617 139.227 112.057 139.563 111.374 139.808C110.702 140.043 109.987 140.16 109.23 140.16ZM114.649 140V128.72H116.649V133.312C116.916 132.885 117.273 132.565 117.721 132.352C118.169 132.128 118.665 132.016 119.209 132.016C121.055 132.016 121.977 133.088 121.977 135.232V140H119.977V135.328C119.977 134.72 119.86 134.277 119.625 134C119.401 133.723 119.049 133.584 118.569 133.584C117.983 133.584 117.513 133.771 117.161 134.144C116.82 134.507 116.649 134.992 116.649 135.6V140H114.649ZM127.577 140.16C126.766 140.16 126.062 139.995 125.465 139.664C124.867 139.333 124.403 138.864 124.073 138.256C123.742 137.637 123.577 136.912 123.577 136.08C123.577 135.248 123.742 134.528 124.073 133.92C124.403 133.312 124.867 132.843 125.465 132.512C126.062 132.181 126.766 132.016 127.577 132.016C128.387 132.016 129.091 132.181 129.689 132.512C130.286 132.843 130.75 133.312 131.081 133.92C131.411 134.528 131.577 135.248 131.577 136.08C131.577 136.912 131.411 137.637 131.081 138.256C130.75 138.864 130.286 139.333 129.689 139.664C129.091 139.995 128.387 140.16 127.577 140.16ZM127.577 138.64C128.174 138.64 128.654 138.427 129.017 138C129.379 137.563 129.561 136.923 129.561 136.08C129.561 135.227 129.379 134.592 129.017 134.176C128.654 133.749 128.174 133.536 127.577 133.536C126.979 133.536 126.499 133.749 126.137 134.176C125.774 134.592 125.593 135.227 125.593 136.08C125.593 136.923 125.774 137.563 126.137 138C126.499 138.427 126.979 138.64 127.577 138.64ZM133.1 130.496V128.544H135.34V130.496H133.1ZM133.228 140V132.176H135.228V140H133.228ZM140.17 140.16C139.508 140.16 138.89 140.08 138.314 139.92C137.738 139.76 137.258 139.531 136.874 139.232L137.386 137.92C137.78 138.187 138.223 138.395 138.714 138.544C139.204 138.683 139.695 138.752 140.186 138.752C140.698 138.752 141.076 138.667 141.322 138.496C141.578 138.315 141.706 138.08 141.706 137.792C141.706 137.344 141.375 137.056 140.714 136.928L139.114 136.624C137.759 136.368 137.082 135.664 137.082 134.512C137.082 134 137.22 133.557 137.498 133.184C137.786 132.811 138.18 132.523 138.682 132.32C139.183 132.117 139.759 132.016 140.41 132.016C140.964 132.016 141.498 132.096 142.01 132.256C142.522 132.405 142.959 132.635 143.322 132.944L142.778 134.256C142.468 134 142.095 133.797 141.658 133.648C141.231 133.499 140.82 133.424 140.426 133.424C139.903 133.424 139.514 133.515 139.258 133.696C139.012 133.877 138.89 134.117 138.89 134.416C138.89 134.885 139.194 135.173 139.802 135.28L141.402 135.584C142.095 135.712 142.618 135.947 142.97 136.288C143.332 136.629 143.514 137.088 143.514 137.664C143.514 138.443 143.21 139.056 142.602 139.504C141.994 139.941 141.183 140.16 140.17 140.16ZM144.99 130.496V128.544H147.23V130.496H144.99ZM145.118 140V132.176H147.118V140H145.118ZM152.06 140.16C151.399 140.16 150.78 140.08 150.204 139.92C149.628 139.76 149.148 139.531 148.764 139.232L149.276 137.92C149.671 138.187 150.114 138.395 150.604 138.544C151.095 138.683 151.586 138.752 152.076 138.752C152.588 138.752 152.967 138.667 153.212 138.496C153.468 138.315 153.596 138.08 153.596 137.792C153.596 137.344 153.266 137.056 152.604 136.928L151.004 136.624C149.65 136.368 148.972 135.664 148.972 134.512C148.972 134 149.111 133.557 149.388 133.184C149.676 132.811 150.071 132.523 150.572 132.32C151.074 132.117 151.65 132.016 152.3 132.016C152.855 132.016 153.388 132.096 153.9 132.256C154.412 132.405 154.85 132.635 155.212 132.944L154.668 134.256C154.359 134 153.986 133.797 153.548 133.648C153.122 133.499 152.711 133.424 152.316 133.424C151.794 133.424 151.404 133.515 151.148 133.696C150.903 133.877 150.78 134.117 150.78 134.416C150.78 134.885 151.084 135.173 151.692 135.28L153.292 135.584C153.986 135.712 154.508 135.947 154.86 136.288C155.223 136.629 155.404 137.088 155.404 137.664C155.404 138.443 155.1 139.056 154.492 139.504C153.884 139.941 153.074 140.16 152.06 140.16ZM159.873 140.16C159.211 140.16 158.593 140.08 158.017 139.92C157.441 139.76 156.961 139.531 156.577 139.232L157.089 137.92C157.483 138.187 157.926 138.395 158.417 138.544C158.907 138.683 159.398 138.752 159.889 138.752C160.401 138.752 160.779 138.667 161.025 138.496C161.281 138.315 161.409 138.08 161.409 137.792C161.409 137.344 161.078 137.056 160.417 136.928L158.817 136.624C157.462 136.368 156.785 135.664 156.785 134.512C156.785 134 156.923 133.557 157.201 133.184C157.489 132.811 157.883 132.523 158.385 132.32C158.886 132.117 159.462 132.016 160.113 132.016C160.667 132.016 161.201 132.096 161.713 132.256C162.225 132.405 162.662 132.635 163.025 132.944L162.481 134.256C162.171 134 161.798 133.797 161.361 133.648C160.934 133.499 160.523 133.424 160.129 133.424C159.606 133.424 159.217 133.515 158.961 133.696C158.715 133.877 158.593 134.117 158.593 134.416C158.593 134.885 158.897 135.173 159.505 135.28L161.105 135.584C161.798 135.712 162.321 135.947 162.673 136.288C163.035 136.629 163.217 137.088 163.217 137.664C163.217 138.443 162.913 139.056 162.305 139.504C161.697 139.941 160.886 140.16 159.873 140.16ZM168.677 140.16C167.792 140.16 167.029 139.995 166.389 139.664C165.749 139.333 165.253 138.864 164.901 138.256C164.56 137.648 164.389 136.928 164.389 136.096C164.389 135.285 164.555 134.576 164.885 133.968C165.227 133.36 165.691 132.885 166.277 132.544C166.875 132.192 167.552 132.016 168.309 132.016C169.419 132.016 170.293 132.368 170.933 133.072C171.584 133.776 171.909 134.736 171.909 135.952V136.544H166.309C166.459 137.941 167.259 138.64 168.709 138.64C169.147 138.64 169.584 138.576 170.021 138.448C170.459 138.309 170.859 138.096 171.221 137.808L171.781 139.152C171.408 139.461 170.939 139.707 170.373 139.888C169.808 140.069 169.243 140.16 168.677 140.16ZM168.389 133.376C167.803 133.376 167.328 133.557 166.965 133.92C166.603 134.283 166.384 134.773 166.309 135.392H170.245C170.203 134.741 170.021 134.245 169.701 133.904C169.392 133.552 168.955 133.376 168.389 133.376ZM173.128 140V138.704L177.16 133.68H173.128V132.176H179.336V133.472L175.304 138.496H179.512V140H173.128ZM187.578 140L184.186 132.176H186.314L188.49 137.648L190.746 132.176H192.746L189.306 140H187.578ZM197.124 140.16C196.313 140.16 195.609 139.995 195.012 139.664C194.414 139.333 193.95 138.864 193.62 138.256C193.289 137.637 193.124 136.912 193.124 136.08C193.124 135.248 193.289 134.528 193.62 133.92C193.95 133.312 194.414 132.843 195.012 132.512C195.609 132.181 196.313 132.016 197.124 132.016C197.934 132.016 198.638 132.181 199.236 132.512C199.833 132.843 200.297 133.312 200.628 133.92C200.958 134.528 201.124 135.248 201.124 136.08C201.124 136.912 200.958 137.637 200.628 138.256C200.297 138.864 199.833 139.333 199.236 139.664C198.638 139.995 197.934 140.16 197.124 140.16ZM197.124 138.64C197.721 138.64 198.201 138.427 198.564 138C198.926 137.563 199.108 136.923 199.108 136.08C199.108 135.227 198.926 134.592 198.564 134.176C198.201 133.749 197.721 133.536 197.124 133.536C196.526 133.536 196.046 133.749 195.684 134.176C195.321 134.592 195.14 135.227 195.14 136.08C195.14 136.923 195.321 137.563 195.684 138C196.046 138.427 196.526 138.64 197.124 138.64ZM206.28 140.16C204.211 140.16 203.176 139.136 203.176 137.088V133.68H201.672V132.176H203.176V129.84H205.176V132.176H207.544V133.68H205.176V136.976C205.176 137.488 205.288 137.872 205.512 138.128C205.736 138.384 206.099 138.512 206.6 138.512C206.75 138.512 206.904 138.496 207.064 138.464C207.224 138.421 207.39 138.379 207.56 138.336L207.864 139.808C207.672 139.915 207.427 140 207.128 140.064C206.84 140.128 206.558 140.16 206.28 140.16ZM208.837 140V132.176H210.789V133.552C211.173 132.624 211.994 132.112 213.253 132.016L213.861 131.968L213.989 133.664L212.837 133.776C211.525 133.904 210.869 134.576 210.869 135.792V140H208.837ZM218.834 140.16C217.948 140.16 217.186 139.995 216.546 139.664C215.906 139.333 215.41 138.864 215.058 138.256C214.716 137.648 214.546 136.928 214.546 136.096C214.546 135.285 214.711 134.576 215.042 133.968C215.383 133.36 215.847 132.885 216.434 132.544C217.031 132.192 217.708 132.016 218.466 132.016C219.575 132.016 220.45 132.368 221.09 133.072C221.74 133.776 222.066 134.736 222.066 135.952V136.544H216.466C216.615 137.941 217.415 138.64 218.866 138.64C219.303 138.64 219.74 138.576 220.178 138.448C220.615 138.309 221.015 138.096 221.378 137.808L221.938 139.152C221.564 139.461 221.095 139.707 220.53 139.888C219.964 140.069 219.399 140.16 218.834 140.16ZM218.546 133.376C217.959 133.376 217.484 133.557 217.122 133.92C216.759 134.283 216.54 134.773 216.466 135.392H220.402C220.359 134.741 220.178 134.245 219.858 133.904C219.548 133.552 219.111 133.376 218.546 133.376ZM231.546 140.16C229.477 140.16 228.442 139.136 228.442 137.088V133.68H226.938V132.176H228.442V129.84H230.442V132.176H232.81V133.68H230.442V136.976C230.442 137.488 230.554 137.872 230.778 138.128C231.002 138.384 231.365 138.512 231.866 138.512C232.015 138.512 232.17 138.496 232.33 138.464C232.49 138.421 232.655 138.379 232.826 138.336L233.13 139.808C232.938 139.915 232.693 140 232.394 140.064C232.106 140.128 231.823 140.16 231.546 140.16ZM234.932 142.88L236.372 139.68L233.123 132.176H235.252L237.444 137.648L239.684 132.176H241.7L236.996 142.88H234.932ZM242.649 142.88V132.176H244.601V133.424C244.825 132.997 245.161 132.656 245.609 132.4C246.068 132.144 246.585 132.016 247.161 132.016C247.844 132.016 248.441 132.181 248.953 132.512C249.476 132.843 249.881 133.312 250.169 133.92C250.457 134.517 250.601 135.237 250.601 136.08C250.601 136.912 250.457 137.637 250.169 138.256C249.881 138.864 249.481 139.333 248.969 139.664C248.457 139.995 247.855 140.16 247.161 140.16C246.607 140.16 246.105 140.043 245.657 139.808C245.22 139.563 244.884 139.237 244.649 138.832V142.88H242.649ZM246.601 138.64C247.199 138.64 247.679 138.427 248.041 138C248.404 137.563 248.585 136.923 248.585 136.08C248.585 135.227 248.404 134.592 248.041 134.176C247.679 133.749 247.199 133.536 246.601 133.536C246.004 133.536 245.524 133.749 245.161 134.176C244.799 134.592 244.617 135.227 244.617 136.08C244.617 136.923 244.799 137.563 245.161 138C245.524 138.427 246.004 138.64 246.601 138.64ZM256.099 140.16C255.214 140.16 254.451 139.995 253.811 139.664C253.171 139.333 252.675 138.864 252.323 138.256C251.982 137.648 251.811 136.928 251.811 136.096C251.811 135.285 251.976 134.576 252.307 133.968C252.648 133.36 253.112 132.885 253.699 132.544C254.296 132.192 254.974 132.016 255.731 132.016C256.84 132.016 257.715 132.368 258.355 133.072C259.006 133.776 259.331 134.736 259.331 135.952V136.544H253.731C253.88 137.941 254.68 138.64 256.131 138.64C256.568 138.64 257.006 138.576 257.443 138.448C257.88 138.309 258.28 138.096 258.643 137.808L259.203 139.152C258.83 139.461 258.36 139.707 257.795 139.888C257.23 140.069 256.664 140.16 256.099 140.16ZM255.811 133.376C255.224 133.376 254.75 133.557 254.387 133.92C254.024 134.283 253.806 134.773 253.731 135.392H257.667C257.624 134.741 257.443 134.245 257.123 133.904C256.814 133.552 256.376 133.376 255.811 133.376ZM268.236 140.16C267.553 140.16 266.95 139.995 266.428 139.664C265.916 139.333 265.516 138.864 265.228 138.256C264.94 137.637 264.796 136.912 264.796 136.08C264.796 135.237 264.94 134.517 265.228 133.92C265.516 133.312 265.916 132.843 266.428 132.512C266.95 132.181 267.553 132.016 268.236 132.016C268.79 132.016 269.292 132.139 269.74 132.384C270.188 132.629 270.524 132.955 270.748 133.36V128.72H272.748V140H270.796V138.704C270.582 139.152 270.246 139.509 269.788 139.776C269.329 140.032 268.812 140.16 268.236 140.16ZM268.796 138.64C269.393 138.64 269.873 138.427 270.236 138C270.598 137.563 270.78 136.923 270.78 136.08C270.78 135.227 270.598 134.592 270.236 134.176C269.873 133.749 269.393 133.536 268.796 133.536C268.198 133.536 267.718 133.749 267.356 134.176C266.993 134.592 266.812 135.227 266.812 136.08C266.812 136.923 266.993 137.563 267.356 138C267.718 138.427 268.198 138.64 268.796 138.64ZM278.677 140.16C277.792 140.16 277.029 139.995 276.389 139.664C275.749 139.333 275.253 138.864 274.901 138.256C274.56 137.648 274.389 136.928 274.389 136.096C274.389 135.285 274.555 134.576 274.885 133.968C275.227 133.36 275.691 132.885 276.277 132.544C276.875 132.192 277.552 132.016 278.309 132.016C279.419 132.016 280.293 132.368 280.933 133.072C281.584 133.776 281.909 134.736 281.909 135.952V136.544H276.309C276.459 137.941 277.259 138.64 278.709 138.64C279.147 138.64 279.584 138.576 280.021 138.448C280.459 138.309 280.859 138.096 281.221 137.808L281.781 139.152C281.408 139.461 280.939 139.707 280.373 139.888C279.808 140.069 279.243 140.16 278.677 140.16ZM278.389 133.376C277.803 133.376 277.328 133.557 276.965 133.92C276.603 134.283 276.384 134.773 276.309 135.392H280.245C280.203 134.741 280.021 134.245 279.701 133.904C279.392 133.552 278.955 133.376 278.389 133.376ZM290.11 140L286.718 132.176H288.846L291.022 137.648L293.278 132.176H295.278L291.838 140H290.11ZM299.943 140.16C299.058 140.16 298.295 139.995 297.655 139.664C297.015 139.333 296.519 138.864 296.167 138.256C295.826 137.648 295.655 136.928 295.655 136.096C295.655 135.285 295.82 134.576 296.151 133.968C296.492 133.36 296.956 132.885 297.543 132.544C298.14 132.192 298.818 132.016 299.575 132.016C300.684 132.016 301.559 132.368 302.199 133.072C302.85 133.776 303.175 134.736 303.175 135.952V136.544H297.575C297.724 137.941 298.524 138.64 299.975 138.64C300.412 138.64 300.85 138.576 301.287 138.448C301.724 138.309 302.124 138.096 302.487 137.808L303.047 139.152C302.674 139.461 302.204 139.707 301.639 139.888C301.074 140.069 300.508 140.16 299.943 140.16ZM299.655 133.376C299.068 133.376 298.594 133.557 298.231 133.92C297.868 134.283 297.65 134.773 297.575 135.392H301.511C301.468 134.741 301.287 134.245 300.967 133.904C300.658 133.552 300.22 133.376 299.655 133.376ZM298.919 131.136L300.567 127.888H302.535L300.263 131.136H298.919ZM307.479 140.16C306.551 140.16 305.863 139.909 305.415 139.408C304.977 138.896 304.759 138.149 304.759 137.168V128.72H306.759V137.072C306.759 138.032 307.164 138.512 307.975 138.512C308.092 138.512 308.209 138.507 308.327 138.496C308.444 138.485 308.556 138.464 308.663 138.432L308.631 140.016C308.247 140.112 307.863 140.16 307.479 140.16ZM313.358 140.16C312.547 140.16 311.843 139.995 311.246 139.664C310.649 139.333 310.185 138.864 309.854 138.256C309.523 137.637 309.358 136.912 309.358 136.08C309.358 135.248 309.523 134.528 309.854 133.92C310.185 133.312 310.649 132.843 311.246 132.512C311.843 132.181 312.547 132.016 313.358 132.016C314.169 132.016 314.873 132.181 315.47 132.512C316.067 132.843 316.531 133.312 316.862 133.92C317.193 134.528 317.358 135.248 317.358 136.08C317.358 136.912 317.193 137.637 316.862 138.256C316.531 138.864 316.067 139.333 315.47 139.664C314.873 139.995 314.169 140.16 313.358 140.16ZM313.358 138.64C313.955 138.64 314.435 138.427 314.798 138C315.161 137.563 315.342 136.923 315.342 136.08C315.342 135.227 315.161 134.592 314.798 134.176C314.435 133.749 313.955 133.536 313.358 133.536C312.761 133.536 312.281 133.749 311.918 134.176C311.555 134.592 311.374 135.227 311.374 136.08C311.374 136.923 311.555 137.563 311.918 138C312.281 138.427 312.761 138.64 313.358 138.64ZM323.145 134.384V132.176H325.385V134.384H323.145ZM323.145 140V137.776H325.385V140H323.145Z" fill="black"/>
<defs>
<clipPath id="clip0_367_2643">
<rect width="386" height="259" fill="white" transform="translate(22 243)"/>
</clipPath>
</defs>
</svg>
