<svg width="430" height="862" viewBox="0 0 430 862" fill="none" xmlns="http://www.w3.org/2000/svg">
<path d="M0 50C0 22.3857 22.3858 0 50 0H380C407.614 0 430 22.3858 430 50V862H0V50Z" fill="#FAFAFA"/>
<path d="M180.495 32.82V48H177.631V38.2825L177.769 36.0745L177.252 38.5815L174.273 46.919H171.444L168.477 38.5815L167.971 36.0745L168.098 38.2825V48H165.223V32.82H169.202L172.675 43.6415L172.859 44.6765L173.043 43.6415L176.527 32.82H180.495ZM188.029 48.276C187.025 48.276 186.128 48.0613 185.338 47.632C184.556 47.2027 183.943 46.6162 183.498 45.8725C183.053 45.1212 182.831 44.2663 182.831 43.308C182.831 42.3497 183.053 41.4948 183.498 40.7435C183.943 39.9845 184.556 39.3865 185.338 38.9495C186.128 38.5048 187.025 38.2825 188.029 38.2825C189.041 38.2825 189.934 38.5048 190.708 38.9495C191.483 39.3865 192.088 39.9845 192.525 40.7435C192.962 41.4948 193.181 42.3497 193.181 43.308C193.181 44.2663 192.962 45.1212 192.525 45.8725C192.088 46.6162 191.483 47.2027 190.708 47.632C189.934 48.0613 189.041 48.276 188.029 48.276ZM188.029 45.8495C188.512 45.8495 188.93 45.7422 189.282 45.5275C189.643 45.3052 189.919 45.0023 190.11 44.619C190.31 44.228 190.409 43.7872 190.409 43.2965C190.409 42.8058 190.31 42.365 190.11 41.974C189.919 41.583 189.643 41.2763 189.282 41.054C188.93 40.824 188.512 40.709 188.029 40.709C187.546 40.709 187.124 40.824 186.764 41.054C186.411 41.2763 186.135 41.583 185.936 41.974C185.737 42.365 185.637 42.8058 185.637 43.2965C185.637 43.7872 185.737 44.228 185.936 44.619C186.135 45.0023 186.411 45.3052 186.764 45.5275C187.124 45.7422 187.546 45.8495 188.029 45.8495ZM201.167 38.2825C201.811 38.2825 202.44 38.4167 203.053 38.685C203.667 38.9457 204.169 39.3635 204.56 39.9385C204.959 40.5135 205.158 41.2648 205.158 42.1925V48H202.225V42.6985C202.225 41.9242 202.041 41.3492 201.673 40.9735C201.313 40.5978 200.838 40.41 200.247 40.41C199.864 40.41 199.496 40.5173 199.143 40.732C198.798 40.939 198.515 41.2303 198.292 41.606C198.078 41.974 197.97 42.3957 197.97 42.871V48H195.049V38.5585H197.97V40.065C198.055 39.8043 198.246 39.536 198.545 39.26C198.844 38.984 199.224 38.754 199.684 38.57C200.144 38.3783 200.638 38.2825 201.167 38.2825ZM212.575 38.5585H214.277V34.683H217.175V38.5585H219.406V40.985H217.175V44.4005C217.175 44.8528 217.248 45.2055 217.393 45.4585C217.539 45.7038 217.769 45.8265 218.083 45.8265C218.321 45.8265 218.516 45.7805 218.67 45.6885C218.823 45.5888 218.915 45.5198 218.946 45.4815L219.981 47.5745C219.935 47.6205 219.785 47.701 219.532 47.816C219.287 47.931 218.969 48.0345 218.578 48.1265C218.194 48.2262 217.761 48.276 217.278 48.276C216.412 48.276 215.695 48.0268 215.128 47.5285C214.56 47.0225 214.277 46.2405 214.277 45.1825V40.985H212.575V38.5585ZM224.169 48H221.248V38.5585H224.169V40.088H224.111C224.165 39.904 224.311 39.6702 224.548 39.3865C224.794 39.1028 225.131 38.8498 225.56 38.6275C225.99 38.3975 226.507 38.2825 227.113 38.2825C227.55 38.2825 227.945 38.3477 228.297 38.478C228.658 38.6007 228.914 38.7233 229.068 38.846L227.918 41.238C227.818 41.1153 227.63 40.9888 227.354 40.8585C227.086 40.7282 226.749 40.663 226.342 40.663C225.859 40.663 225.457 40.7972 225.135 41.0655C224.813 41.3262 224.571 41.6482 224.41 42.0315C224.249 42.4072 224.169 42.7598 224.169 43.0895V48ZM237.362 48V46.3555C237.293 46.5242 237.117 46.7618 236.833 47.0685C236.55 47.3752 236.166 47.655 235.683 47.908C235.208 48.1533 234.648 48.276 234.004 48.276C233.1 48.276 232.299 48.0613 231.601 47.632C230.903 47.195 230.355 46.6008 229.956 45.8495C229.565 45.0905 229.37 44.2357 229.37 43.285C229.37 42.3343 229.565 41.4833 229.956 40.732C230.355 39.973 230.903 39.375 231.601 38.938C232.299 38.501 233.1 38.2825 234.004 38.2825C234.633 38.2825 235.177 38.3898 235.637 38.6045C236.105 38.8115 236.481 39.0568 236.764 39.3405C237.056 39.6165 237.244 39.8657 237.328 40.088V38.5585H240.226V48H237.362ZM232.233 43.285C232.233 43.814 232.352 44.2817 232.59 44.688C232.828 45.0867 233.142 45.3972 233.533 45.6195C233.924 45.8418 234.349 45.953 234.809 45.953C235.292 45.953 235.722 45.8418 236.097 45.6195C236.473 45.3895 236.768 45.0752 236.983 44.6765C237.205 44.2702 237.316 43.8063 237.316 43.285C237.316 42.7637 237.205 42.3037 236.983 41.905C236.768 41.4987 236.473 41.1805 236.097 40.9505C235.722 40.7205 235.292 40.6055 234.809 40.6055C234.349 40.6055 233.924 40.7205 233.533 40.9505C233.142 41.1728 232.828 41.4872 232.59 41.8935C232.352 42.2922 232.233 42.756 232.233 43.285ZM242.532 53.06C241.911 53.06 241.397 52.9948 240.991 52.8645C240.577 52.7418 240.27 52.6153 240.071 52.485L241.025 50.3C241.14 50.392 241.267 50.461 241.405 50.507C241.535 50.5607 241.704 50.5875 241.911 50.5875C242.172 50.5875 242.379 50.5108 242.532 50.3575C242.693 50.2118 242.808 49.9972 242.877 49.7135C242.946 49.4298 242.98 49.0887 242.98 48.69V38.5585H245.901V49.219C245.901 49.955 245.786 50.6105 245.556 51.1855C245.334 51.7682 244.974 52.2243 244.475 52.554C243.985 52.8913 243.337 53.06 242.532 53.06ZM244.487 36.1205C244.012 36.1205 243.605 35.9518 243.268 35.6145C242.931 35.2772 242.762 34.8747 242.762 34.407C242.762 34.0927 242.839 33.8052 242.992 33.5445C243.153 33.2838 243.364 33.073 243.624 32.912C243.885 32.751 244.173 32.6705 244.487 32.6705C244.801 32.6705 245.089 32.751 245.349 32.912C245.61 33.0653 245.817 33.2723 245.97 33.533C246.131 33.7937 246.212 34.085 246.212 34.407C246.212 34.8747 246.043 35.2772 245.706 35.6145C245.369 35.9518 244.962 36.1205 244.487 36.1205ZM250.727 43.929C250.75 44.3583 250.865 44.7417 251.072 45.079C251.279 45.4163 251.578 45.6808 251.969 45.8725C252.368 46.0642 252.843 46.16 253.395 46.16C253.893 46.16 254.33 46.0987 254.706 45.976C255.089 45.8533 255.411 45.7038 255.672 45.5275C255.94 45.3435 256.14 45.1672 256.27 44.9985L257.478 46.7925C257.263 47.0608 256.975 47.31 256.615 47.54C256.262 47.7623 255.81 47.9387 255.258 48.069C254.714 48.207 254.031 48.276 253.211 48.276C252.176 48.276 251.268 48.0728 250.486 47.6665C249.704 47.2602 249.094 46.6737 248.657 45.907C248.22 45.1403 248.002 44.228 248.002 43.17C248.002 42.25 248.197 41.422 248.588 40.686C248.979 39.9423 249.546 39.3558 250.29 38.9265C251.041 38.4972 251.942 38.2825 252.993 38.2825C253.982 38.2825 254.836 38.4742 255.557 38.8575C256.285 39.2332 256.849 39.7852 257.248 40.5135C257.646 41.2418 257.846 42.1312 257.846 43.1815C257.846 43.2428 257.842 43.3693 257.834 43.561C257.834 43.745 257.826 43.8677 257.811 43.929H250.727ZM255.109 42.1235C255.101 41.8782 255.024 41.6137 254.879 41.33C254.741 41.0463 254.522 40.8048 254.223 40.6055C253.924 40.4062 253.525 40.3065 253.027 40.3065C252.529 40.3065 252.119 40.4023 251.797 40.594C251.482 40.7857 251.245 41.0233 251.084 41.307C250.923 41.583 250.831 41.8552 250.808 42.1235H255.109ZM259.002 38.5585H260.704V34.683H263.602V38.5585H265.833V40.985H263.602V44.4005C263.602 44.8528 263.674 45.2055 263.82 45.4585C263.966 45.7038 264.196 45.8265 264.51 45.8265C264.748 45.8265 264.943 45.7805 265.097 45.6885C265.25 45.5888 265.342 45.5198 265.373 45.4815L266.408 47.5745C266.362 47.6205 266.212 47.701 265.959 47.816C265.714 47.931 265.396 48.0345 265.005 48.1265C264.621 48.2262 264.188 48.276 263.705 48.276C262.839 48.276 262.122 48.0268 261.555 47.5285C260.987 47.0225 260.704 46.2405 260.704 45.1825V40.985H259.002V38.5585Z" fill="black"/>
<path d="M174.899 79V69.835H177.993C179.475 69.835 180.619 70.2293 181.425 71.018C182.231 71.798 182.634 72.929 182.634 74.411C182.634 75.893 182.231 77.0283 181.425 77.817C180.619 78.6057 179.475 79 177.993 79H174.899ZM175.965 78.09H177.915C180.307 78.09 181.503 76.8637 181.503 74.411C181.503 71.967 180.307 70.745 177.915 70.745H175.965V78.09ZM186.64 79.117C185.123 79.117 184.365 78.2807 184.365 76.608V72.682H185.418V76.595C185.418 77.1583 185.531 77.5743 185.756 77.843C185.99 78.1117 186.354 78.246 186.848 78.246C187.385 78.246 187.823 78.0683 188.161 77.713C188.499 77.349 188.668 76.868 188.668 76.27V72.682H189.721V79H188.694V77.934C188.495 78.3153 188.213 78.61 187.849 78.818C187.494 79.0173 187.091 79.117 186.64 79.117ZM191.691 79V72.682H192.718V73.813C193.056 73.0503 193.749 72.63 194.798 72.552L195.175 72.513L195.253 73.423L194.59 73.501C193.992 73.553 193.537 73.7437 193.225 74.073C192.913 74.3937 192.757 74.8357 192.757 75.399V79H191.691ZM199.121 79.117C198.124 79.117 197.336 78.8267 196.755 78.246C196.174 77.6567 195.884 76.8593 195.884 75.854C195.884 75.204 196.014 74.632 196.274 74.138C196.534 73.6353 196.889 73.2497 197.34 72.981C197.799 72.7037 198.328 72.565 198.926 72.565C199.784 72.565 200.456 72.8423 200.941 73.397C201.426 73.943 201.669 74.697 201.669 75.659V76.062H196.911C196.946 76.7813 197.154 77.3317 197.535 77.713C197.916 78.0857 198.445 78.272 199.121 78.272C199.502 78.272 199.866 78.2157 200.213 78.103C200.56 77.9817 200.889 77.7867 201.201 77.518L201.565 78.259C201.279 78.5277 200.915 78.74 200.473 78.896C200.031 79.0433 199.58 79.117 199.121 79.117ZM198.952 73.345C198.354 73.345 197.882 73.5313 197.535 73.904C197.188 74.2767 196.985 74.7663 196.924 75.373H200.759C200.733 74.7317 200.564 74.2333 200.252 73.878C199.949 73.5227 199.515 73.345 198.952 73.345ZM198.549 71.837L199.888 69.211H201.019L199.303 71.837H198.549ZM206.04 79.117C205.043 79.117 204.255 78.8267 203.674 78.246C203.093 77.6567 202.803 76.8593 202.803 75.854C202.803 75.204 202.933 74.632 203.193 74.138C203.453 73.6353 203.808 73.2497 204.259 72.981C204.718 72.7037 205.247 72.565 205.845 72.565C206.703 72.565 207.375 72.8423 207.86 73.397C208.345 73.943 208.588 74.697 208.588 75.659V76.062H203.83C203.865 76.7813 204.073 77.3317 204.454 77.713C204.835 78.0857 205.364 78.272 206.04 78.272C206.421 78.272 206.785 78.2157 207.132 78.103C207.479 77.9817 207.808 77.7867 208.12 77.518L208.484 78.259C208.198 78.5277 207.834 78.74 207.392 78.896C206.95 79.0433 206.499 79.117 206.04 79.117ZM205.871 73.345C205.273 73.345 204.801 73.5313 204.454 73.904C204.107 74.2767 203.904 74.7663 203.843 75.373H207.678C207.652 74.7317 207.483 74.2333 207.171 73.878C206.868 73.5227 206.434 73.345 205.871 73.345ZM213.282 74.008V72.682H214.608V74.008H213.282ZM213.282 79V77.674H214.608V79H213.282ZM222.556 79.117C221.949 79.117 221.373 79.026 220.827 78.844C220.281 78.6533 219.821 78.3803 219.449 78.025L219.839 77.18C220.263 77.5267 220.692 77.778 221.126 77.934C221.559 78.09 222.027 78.168 222.53 78.168C223.188 78.168 223.691 78.025 224.038 77.739C224.393 77.4443 224.571 77.0153 224.571 76.452C224.571 75.9147 224.393 75.5073 224.038 75.23C223.682 74.9527 223.167 74.814 222.491 74.814H221.139V73.891H222.4C222.989 73.891 223.453 73.7393 223.791 73.436C224.137 73.124 224.311 72.6993 224.311 72.162C224.311 71.6853 224.15 71.317 223.83 71.057C223.518 70.797 223.071 70.667 222.491 70.667C221.537 70.667 220.705 71.0137 219.995 71.707L219.605 70.875C219.943 70.511 220.372 70.2293 220.892 70.03C221.42 69.822 221.975 69.718 222.556 69.718C223.44 69.718 224.129 69.926 224.623 70.342C225.125 70.758 225.377 71.3343 225.377 72.071C225.377 72.5823 225.247 73.033 224.987 73.423C224.727 73.8043 224.367 74.0817 223.908 74.255C224.454 74.4023 224.878 74.6753 225.182 75.074C225.485 75.464 225.637 75.9493 225.637 76.53C225.637 77.3187 225.359 77.947 224.805 78.415C224.259 78.883 223.509 79.117 222.556 79.117ZM230.65 79.117C230.06 79.117 229.497 79.0217 228.96 78.831C228.422 78.6403 227.967 78.3717 227.595 78.025L227.998 77.18C228.804 77.8387 229.683 78.168 230.637 78.168C231.269 78.168 231.768 77.9903 232.132 77.635C232.496 77.2797 232.678 76.8117 232.678 76.231C232.678 75.633 232.504 75.1433 232.158 74.762C231.811 74.3807 231.334 74.19 230.728 74.19C229.852 74.19 229.163 74.554 228.661 75.282H227.881V69.835H233.198V70.745H228.934V74.021C229.436 73.5183 230.099 73.267 230.923 73.267C231.495 73.267 231.993 73.3883 232.418 73.631C232.842 73.8737 233.167 74.216 233.393 74.658C233.627 75.0913 233.744 75.5983 233.744 76.179C233.744 76.751 233.618 77.258 233.367 77.7C233.115 78.142 232.756 78.4887 232.288 78.74C231.828 78.9913 231.282 79.117 230.65 79.117ZM238.702 79V72.682H239.729V73.748C239.92 73.3667 240.184 73.0763 240.522 72.877C240.86 72.669 241.255 72.565 241.705 72.565C242.693 72.565 243.326 72.994 243.603 73.852C243.794 73.4533 244.076 73.1413 244.448 72.916C244.821 72.682 245.25 72.565 245.735 72.565C247.139 72.565 247.841 73.397 247.841 75.061V79H246.788V75.113C246.788 74.5323 246.684 74.1077 246.476 73.839C246.277 73.5617 245.943 73.423 245.475 73.423C244.964 73.423 244.557 73.605 244.253 73.969C243.95 74.333 243.798 74.8183 243.798 75.425V79H242.745V75.113C242.745 74.5323 242.641 74.1077 242.433 73.839C242.234 73.5617 241.9 73.423 241.432 73.423C240.912 73.423 240.501 73.605 240.197 73.969C239.903 74.333 239.755 74.8183 239.755 75.425V79H238.702ZM249.68 71.109V69.926H250.98V71.109H249.68ZM249.81 79V72.682H250.863V79H249.81ZM252.832 79V72.682H253.859V73.761C254.067 73.3623 254.361 73.0633 254.743 72.864C255.124 72.6647 255.553 72.565 256.03 72.565C257.529 72.565 258.279 73.397 258.279 75.061V79H257.226V75.126C257.226 74.5367 257.109 74.1077 256.875 73.839C256.649 73.5617 256.285 73.423 255.783 73.423C255.202 73.423 254.738 73.605 254.392 73.969C254.054 74.3243 253.885 74.801 253.885 75.399V79H252.832Z" fill="black"/>
<rect x="157" y="8" width="116" height="5" rx="2.5" fill="#D9D9D9" fill-opacity="0.3"/>
<path d="M93.0054 139.443L90.5099 140.799V138.051L94.4544 135.82H95.8804V151H93.0054V139.443ZM98.7171 135.82H109.205V137.786L101.684 151H98.5101L105.847 138.338H98.7171V135.82ZM112.946 151.276C112.433 151.276 111.992 151.092 111.624 150.724C111.256 150.356 111.072 149.915 111.072 149.401C111.072 148.872 111.256 148.424 111.624 148.056C111.992 147.688 112.433 147.504 112.946 147.504C113.475 147.504 113.92 147.688 114.28 148.056C114.648 148.424 114.832 148.872 114.832 149.401C114.832 149.915 114.648 150.356 114.28 150.724C113.92 151.092 113.475 151.276 112.946 151.276ZM112.946 144.353C112.433 144.353 111.992 144.169 111.624 143.801C111.256 143.433 111.072 142.992 111.072 142.478C111.072 141.949 111.256 141.501 111.624 141.133C111.992 140.765 112.433 140.581 112.946 140.581C113.475 140.581 113.92 140.765 114.28 141.133C114.648 141.501 114.832 141.949 114.832 142.478C114.832 142.992 114.648 143.433 114.28 143.801C113.92 144.169 113.475 144.353 112.946 144.353ZM125.479 135.82V145.273H127.238V147.803H125.479V151H122.615V147.803H116.313V145.503L122.236 135.82H125.479ZM122.615 145.273V139.672H122.592L119.234 145.273H122.615ZM134.322 151.276C133.349 151.276 132.456 151.084 131.643 150.701C130.83 150.31 130.182 149.777 129.699 149.102C129.216 148.428 128.975 147.661 128.975 146.802C128.975 146.082 129.094 145.465 129.331 144.951C129.577 144.437 129.91 144.008 130.332 143.663C130.754 143.31 131.217 143.027 131.723 142.812C131.348 142.613 130.999 142.371 130.677 142.087C130.355 141.796 130.098 141.44 129.906 141.018C129.715 140.596 129.619 140.086 129.619 139.488C129.619 138.691 129.83 137.997 130.251 137.407C130.673 136.817 131.237 136.36 131.942 136.038C132.655 135.709 133.445 135.544 134.311 135.544C135.185 135.544 135.971 135.709 136.668 136.038C137.374 136.36 137.93 136.817 138.336 137.407C138.742 137.997 138.945 138.691 138.945 139.488C138.945 140.385 138.746 141.087 138.347 141.593C137.949 142.099 137.466 142.505 136.898 142.812C137.404 143.027 137.864 143.31 138.278 143.663C138.692 144.008 139.022 144.437 139.267 144.951C139.52 145.465 139.647 146.082 139.647 146.802C139.647 147.661 139.405 148.428 138.922 149.102C138.447 149.777 137.807 150.31 137.002 150.701C136.197 151.084 135.304 151.276 134.322 151.276ZM134.311 148.757C134.748 148.757 135.139 148.654 135.484 148.447C135.837 148.24 136.12 147.964 136.335 147.619C136.55 147.266 136.657 146.875 136.657 146.446C136.657 146.017 136.55 145.626 136.335 145.273C136.12 144.92 135.837 144.644 135.484 144.445C135.139 144.238 134.748 144.134 134.311 144.134C133.874 144.134 133.479 144.238 133.126 144.445C132.774 144.652 132.49 144.932 132.275 145.284C132.068 145.629 131.965 146.017 131.965 146.446C131.965 146.875 132.068 147.266 132.275 147.619C132.49 147.964 132.774 148.24 133.126 148.447C133.479 148.654 133.874 148.757 134.311 148.757ZM134.322 141.892C134.69 141.892 135.028 141.8 135.334 141.616C135.649 141.432 135.898 141.183 136.082 140.868C136.266 140.554 136.358 140.209 136.358 139.833C136.358 139.465 136.262 139.128 136.07 138.821C135.886 138.515 135.641 138.269 135.334 138.085C135.028 137.894 134.69 137.798 134.322 137.798C133.947 137.798 133.602 137.894 133.287 138.085C132.981 138.269 132.732 138.515 132.54 138.821C132.356 139.128 132.264 139.465 132.264 139.833C132.264 140.209 132.356 140.554 132.54 140.868C132.724 141.175 132.973 141.424 133.287 141.616C133.602 141.8 133.947 141.892 134.322 141.892Z" fill="black"/>
<path d="M92.1289 275.443L89.6334 276.799V274.051L93.5779 271.82H95.0039V287H92.1289V275.443ZM97.8406 271.82H108.329V273.786L100.808 287H97.6336L104.971 274.338H97.8406V271.82ZM112.07 287.276C111.556 287.276 111.115 287.092 110.747 286.724C110.379 286.356 110.195 285.915 110.195 285.401C110.195 284.872 110.379 284.424 110.747 284.056C111.115 283.688 111.556 283.504 112.07 283.504C112.599 283.504 113.043 283.688 113.404 284.056C113.772 284.424 113.956 284.872 113.956 285.401C113.956 285.915 113.772 286.356 113.404 286.724C113.043 287.092 112.599 287.276 112.07 287.276ZM112.07 280.353C111.556 280.353 111.115 280.169 110.747 279.801C110.379 279.433 110.195 278.992 110.195 278.478C110.195 277.949 110.379 277.501 110.747 277.133C111.115 276.765 111.556 276.581 112.07 276.581C112.599 276.581 113.043 276.765 113.404 277.133C113.772 277.501 113.956 277.949 113.956 278.478C113.956 278.992 113.772 279.433 113.404 279.801C113.043 280.169 112.599 280.353 112.07 280.353ZM118.358 283.078C118.419 283.262 118.511 283.458 118.634 283.665C118.764 283.864 118.933 284.056 119.14 284.24C119.347 284.416 119.6 284.562 119.899 284.677C120.198 284.792 120.554 284.849 120.968 284.849C121.796 284.849 122.44 284.585 122.9 284.056C123.368 283.519 123.598 282.822 123.59 281.963C123.583 281.143 123.364 280.506 122.935 280.054C122.505 279.602 121.927 279.375 121.198 279.375C120.738 279.375 120.336 279.46 119.991 279.628C119.653 279.789 119.377 279.981 119.163 280.203C118.956 280.426 118.81 280.637 118.726 280.836L116.311 279.973L117.633 271.82H125.798V274.338H120.071L119.508 277.926C119.546 277.865 119.669 277.765 119.876 277.627C120.09 277.482 120.378 277.351 120.738 277.236C121.106 277.114 121.536 277.052 122.026 277.052C122.778 277.052 123.491 277.221 124.165 277.558C124.848 277.888 125.403 278.406 125.833 279.111C126.262 279.809 126.481 280.706 126.488 281.802C126.488 282.898 126.262 283.86 125.81 284.688C125.357 285.509 124.725 286.145 123.912 286.597C123.1 287.05 122.153 287.276 121.072 287.276C120.267 287.276 119.561 287.176 118.956 286.977C118.358 286.778 117.852 286.521 117.438 286.206C117.024 285.892 116.69 285.559 116.437 285.206C116.184 284.853 116 284.52 115.885 284.205L118.358 283.078ZM128.435 274.614C128.504 274.361 128.654 274.059 128.884 273.706C129.114 273.353 129.428 273.016 129.827 272.694C130.233 272.364 130.731 272.092 131.322 271.877C131.92 271.655 132.617 271.544 133.415 271.544C134.381 271.544 135.224 271.724 135.945 272.084C136.673 272.437 137.237 272.928 137.635 273.556C138.042 274.185 138.245 274.91 138.245 275.73C138.245 276.267 138.141 276.757 137.934 277.202C137.735 277.647 137.474 278.015 137.152 278.306C136.838 278.597 136.504 278.781 136.152 278.858C136.543 278.904 136.941 279.076 137.348 279.375C137.754 279.674 138.095 280.077 138.371 280.583C138.647 281.089 138.785 281.691 138.785 282.388C138.785 283.331 138.551 284.171 138.084 284.907C137.624 285.643 136.984 286.222 136.163 286.643C135.351 287.065 134.415 287.276 133.357 287.276C132.284 287.276 131.368 287.088 130.609 286.712C129.857 286.337 129.256 285.877 128.803 285.332C128.359 284.788 128.06 284.263 127.906 283.757L130.54 282.434C130.639 282.772 130.808 283.121 131.046 283.481C131.291 283.841 131.605 284.148 131.989 284.401C132.38 284.646 132.832 284.769 133.346 284.769C133.89 284.769 134.354 284.662 134.737 284.447C135.121 284.232 135.416 283.941 135.623 283.573C135.83 283.197 135.933 282.772 135.933 282.296C135.933 281.798 135.811 281.384 135.565 281.054C135.328 280.725 135.013 280.483 134.622 280.33C134.231 280.169 133.806 280.088 133.346 280.088H133.047V277.995H133.438C133.836 277.995 134.204 277.915 134.542 277.754C134.879 277.585 135.147 277.348 135.347 277.041C135.546 276.727 135.646 276.359 135.646 275.937C135.646 275.362 135.454 274.875 135.071 274.476C134.687 274.078 134.124 273.878 133.38 273.878C132.943 273.878 132.564 273.951 132.242 274.097C131.927 274.235 131.667 274.411 131.46 274.626C131.26 274.833 131.103 275.04 130.988 275.247C130.881 275.446 130.816 275.607 130.793 275.73L128.435 274.614Z" fill="black"/>
<path d="M91.2754 503.443L88.7799 504.799V502.051L92.7244 499.82H94.1504V515H91.2754V503.443ZM101.978 515.276C101.004 515.276 100.111 515.084 99.2986 514.701C98.486 514.31 97.8381 513.777 97.3551 513.102C96.8721 512.428 96.6306 511.661 96.6306 510.802C96.6306 510.082 96.7495 509.465 96.9871 508.951C97.2325 508.437 97.566 508.008 97.9876 507.663C98.4093 507.31 98.8731 507.027 99.3791 506.812C99.0035 506.613 98.6546 506.371 98.3326 506.087C98.0106 505.796 97.7538 505.44 97.5621 505.018C97.3705 504.596 97.2746 504.086 97.2746 503.488C97.2746 502.691 97.4855 501.997 97.9071 501.407C98.3288 500.817 98.8923 500.36 99.5976 500.038C100.311 499.709 101.1 499.544 101.967 499.544C102.841 499.544 103.626 499.709 104.324 500.038C105.029 500.36 105.585 500.817 105.992 501.407C106.398 501.997 106.601 502.691 106.601 503.488C106.601 504.385 106.402 505.087 106.003 505.593C105.604 506.099 105.121 506.505 104.554 506.812C105.06 507.027 105.52 507.31 105.934 507.663C106.348 508.008 106.678 508.437 106.923 508.951C107.176 509.465 107.303 510.082 107.303 510.802C107.303 511.661 107.061 512.428 106.578 513.102C106.103 513.777 105.463 514.31 104.658 514.701C103.853 515.084 102.959 515.276 101.978 515.276ZM101.967 512.757C102.404 512.757 102.795 512.654 103.14 512.447C103.492 512.24 103.776 511.964 103.991 511.619C104.205 511.266 104.313 510.875 104.313 510.446C104.313 510.017 104.205 509.626 103.991 509.273C103.776 508.92 103.492 508.644 103.14 508.445C102.795 508.238 102.404 508.134 101.967 508.134C101.53 508.134 101.135 508.238 100.782 508.445C100.429 508.652 100.146 508.932 99.9311 509.284C99.7241 509.629 99.6206 510.017 99.6206 510.446C99.6206 510.875 99.7241 511.266 99.9311 511.619C100.146 511.964 100.429 512.24 100.782 512.447C101.135 512.654 101.53 512.757 101.967 512.757ZM101.978 505.892C102.346 505.892 102.683 505.8 102.99 505.616C103.304 505.432 103.554 505.183 103.738 504.868C103.922 504.554 104.014 504.209 104.014 503.833C104.014 503.465 103.918 503.128 103.726 502.821C103.542 502.515 103.297 502.269 102.99 502.085C102.683 501.894 102.346 501.798 101.978 501.798C101.602 501.798 101.257 501.894 100.943 502.085C100.636 502.269 100.387 502.515 100.196 502.821C100.012 503.128 99.9196 503.465 99.9196 503.833C99.9196 504.209 100.012 504.554 100.196 504.868C100.38 505.175 100.629 505.424 100.943 505.616C101.257 505.8 101.602 505.892 101.978 505.892ZM111.688 515.276C111.174 515.276 110.733 515.092 110.365 514.724C109.997 514.356 109.813 513.915 109.813 513.401C109.813 512.872 109.997 512.424 110.365 512.056C110.733 511.688 111.174 511.504 111.688 511.504C112.217 511.504 112.662 511.688 113.022 512.056C113.39 512.424 113.574 512.872 113.574 513.401C113.574 513.915 113.39 514.356 113.022 514.724C112.662 515.092 112.217 515.276 111.688 515.276ZM111.688 508.353C111.174 508.353 110.733 508.169 110.365 507.801C109.997 507.433 109.813 506.992 109.813 506.478C109.813 505.949 109.997 505.501 110.365 505.133C110.733 504.765 111.174 504.581 111.688 504.581C112.217 504.581 112.662 504.765 113.022 505.133C113.39 505.501 113.574 505.949 113.574 506.478C113.574 506.992 113.39 507.433 113.022 507.801C112.662 508.169 112.217 508.353 111.688 508.353ZM115.457 507.421C115.457 506.087 115.622 504.93 115.952 503.948C116.282 502.959 116.73 502.139 117.297 501.487C117.865 500.836 118.505 500.349 119.218 500.027C119.939 499.705 120.686 499.544 121.46 499.544C122.242 499.544 122.99 499.705 123.703 500.027C124.424 500.349 125.064 500.836 125.623 501.487C126.183 502.139 126.624 502.959 126.946 503.948C127.276 504.93 127.44 506.087 127.44 507.421C127.44 508.817 127.276 510.013 126.946 511.009C126.624 511.998 126.183 512.807 125.623 513.436C125.064 514.065 124.424 514.528 123.703 514.827C122.99 515.126 122.242 515.276 121.46 515.276C120.686 515.276 119.939 515.126 119.218 514.827C118.505 514.528 117.865 514.065 117.297 513.436C116.73 512.807 116.282 511.998 115.952 511.009C115.622 510.013 115.457 508.817 115.457 507.421ZM118.355 507.421C118.355 508.617 118.486 509.61 118.746 510.4C119.015 511.182 119.383 511.765 119.85 512.148C120.318 512.531 120.855 512.723 121.46 512.723C122.066 512.723 122.599 512.531 123.059 512.148C123.527 511.765 123.891 511.178 124.151 510.388C124.42 509.599 124.554 508.61 124.554 507.421C124.554 506.271 124.42 505.302 124.151 504.512C123.891 503.722 123.527 503.124 123.059 502.718C122.599 502.304 122.066 502.097 121.46 502.097C120.855 502.097 120.318 502.304 119.85 502.718C119.383 503.124 119.015 503.722 118.746 504.512C118.486 505.302 118.355 506.271 118.355 507.421ZM129.289 502.614C129.358 502.361 129.507 502.059 129.737 501.706C129.967 501.353 130.282 501.016 130.68 500.694C131.087 500.364 131.585 500.092 132.175 499.877C132.773 499.655 133.471 499.544 134.268 499.544C135.234 499.544 136.078 499.724 136.798 500.084C137.527 500.437 138.09 500.928 138.489 501.556C138.895 502.185 139.098 502.91 139.098 503.73C139.098 504.267 138.995 504.757 138.788 505.202C138.588 505.647 138.328 506.015 138.006 506.306C137.691 506.597 137.358 506.781 137.005 506.858C137.396 506.904 137.795 507.076 138.201 507.375C138.608 507.674 138.949 508.077 139.225 508.583C139.501 509.089 139.639 509.691 139.639 510.388C139.639 511.331 139.405 512.171 138.937 512.907C138.477 513.643 137.837 514.222 137.017 514.643C136.204 515.065 135.269 515.276 134.211 515.276C133.137 515.276 132.221 515.088 131.462 514.712C130.711 514.337 130.109 513.877 129.657 513.332C129.212 512.788 128.913 512.263 128.76 511.757L131.393 510.434C131.493 510.772 131.662 511.121 131.899 511.481C132.145 511.841 132.459 512.148 132.842 512.401C133.233 512.646 133.686 512.769 134.199 512.769C134.744 512.769 135.207 512.662 135.591 512.447C135.974 512.232 136.269 511.941 136.476 511.573C136.683 511.197 136.787 510.772 136.787 510.296C136.787 509.798 136.664 509.384 136.419 509.054C136.181 508.725 135.867 508.483 135.476 508.33C135.085 508.169 134.659 508.088 134.199 508.088H133.9V505.995H134.291C134.69 505.995 135.058 505.915 135.395 505.754C135.733 505.585 136.001 505.348 136.2 505.041C136.4 504.727 136.499 504.359 136.499 503.937C136.499 503.362 136.308 502.875 135.924 502.476C135.541 502.078 134.977 501.878 134.234 501.878C133.797 501.878 133.417 501.951 133.095 502.097C132.781 502.235 132.52 502.411 132.313 502.626C132.114 502.833 131.957 503.04 131.842 503.247C131.734 503.446 131.669 503.607 131.646 503.73L129.289 502.614Z" fill="black"/>
<path d="M90.1123 639.443L87.6168 640.799V638.051L91.5613 635.82H92.9873V651H90.1123V639.443ZM100.815 651.276C99.8414 651.276 98.9482 651.084 98.1355 650.701C97.3229 650.31 96.675 649.777 96.192 649.102C95.709 648.428 95.4675 647.661 95.4675 646.802C95.4675 646.082 95.5864 645.465 95.824 644.951C96.0694 644.437 96.4029 644.008 96.8245 643.663C97.2462 643.31 97.71 643.027 98.216 642.812C97.8404 642.613 97.4915 642.371 97.1695 642.087C96.8475 641.796 96.5907 641.44 96.399 641.018C96.2074 640.596 96.1115 640.086 96.1115 639.488C96.1115 638.691 96.3224 637.997 96.744 637.407C97.1657 636.817 97.7292 636.36 98.4345 636.038C99.1475 635.709 99.9372 635.544 100.804 635.544C101.678 635.544 102.463 635.709 103.161 636.038C103.866 636.36 104.422 636.817 104.829 637.407C105.235 637.997 105.438 638.691 105.438 639.488C105.438 640.385 105.239 641.087 104.84 641.593C104.441 642.099 103.958 642.505 103.391 642.812C103.897 643.027 104.357 643.31 104.771 643.663C105.185 644.008 105.515 644.437 105.76 644.951C106.013 645.465 106.14 646.082 106.14 646.802C106.14 647.661 105.898 648.428 105.415 649.102C104.94 649.777 104.3 650.31 103.495 650.701C102.69 651.084 101.796 651.276 100.815 651.276ZM100.804 648.757C101.241 648.757 101.632 648.654 101.977 648.447C102.329 648.24 102.613 647.964 102.828 647.619C103.042 647.266 103.15 646.875 103.15 646.446C103.15 646.017 103.042 645.626 102.828 645.273C102.613 644.92 102.329 644.644 101.977 644.445C101.632 644.238 101.241 644.134 100.804 644.134C100.367 644.134 99.9717 644.238 99.619 644.445C99.2664 644.652 98.9827 644.932 98.768 645.284C98.561 645.629 98.4575 646.017 98.4575 646.446C98.4575 646.875 98.561 647.266 98.768 647.619C98.9827 647.964 99.2664 648.24 99.619 648.447C99.9717 648.654 100.367 648.757 100.804 648.757ZM100.815 641.892C101.183 641.892 101.52 641.8 101.827 641.616C102.141 641.432 102.391 641.183 102.575 640.868C102.759 640.554 102.851 640.209 102.851 639.833C102.851 639.465 102.755 639.128 102.563 638.821C102.379 638.515 102.134 638.269 101.827 638.085C101.52 637.894 101.183 637.798 100.815 637.798C100.439 637.798 100.094 637.894 99.78 638.085C99.4734 638.269 99.2242 638.515 99.0325 638.821C98.8485 639.128 98.7565 639.465 98.7565 639.833C98.7565 640.209 98.8485 640.554 99.0325 640.868C99.2165 641.175 99.4657 641.424 99.78 641.616C100.094 641.8 100.439 641.892 100.815 641.892ZM110.525 651.276C110.011 651.276 109.57 651.092 109.202 650.724C108.834 650.356 108.65 649.915 108.65 649.401C108.65 648.872 108.834 648.424 109.202 648.056C109.57 647.688 110.011 647.504 110.525 647.504C111.054 647.504 111.498 647.688 111.859 648.056C112.227 648.424 112.411 648.872 112.411 649.401C112.411 649.915 112.227 650.356 111.859 650.724C111.498 651.092 111.054 651.276 110.525 651.276ZM110.525 644.353C110.011 644.353 109.57 644.169 109.202 643.801C108.834 643.433 108.65 642.992 108.65 642.478C108.65 641.949 108.834 641.501 109.202 641.133C109.57 640.765 110.011 640.581 110.525 640.581C111.054 640.581 111.498 640.765 111.859 641.133C112.227 641.501 112.411 641.949 112.411 642.478C112.411 642.992 112.227 643.433 111.859 643.801C111.498 644.169 111.054 644.353 110.525 644.353ZM120.021 638.005C119.469 638.005 118.982 638.132 118.561 638.384C118.139 638.63 117.786 638.917 117.503 639.247C117.219 639.577 117.001 639.876 116.847 640.144C116.702 640.412 116.621 640.569 116.606 640.615L114.133 639.488C114.149 639.404 114.221 639.22 114.352 638.936C114.482 638.645 114.685 638.308 114.961 637.924C115.245 637.541 115.613 637.169 116.065 636.809C116.518 636.449 117.07 636.15 117.721 635.912C118.373 635.667 119.14 635.544 120.021 635.544C121.003 635.544 121.827 635.682 122.494 635.958C123.168 636.234 123.705 636.606 124.104 637.073C124.51 637.533 124.801 638.051 124.978 638.626C125.162 639.193 125.254 639.768 125.254 640.351C125.254 641.01 125.112 641.658 124.828 642.294C124.552 642.931 124.188 643.544 123.736 644.134C123.291 644.717 122.812 645.261 122.298 645.767C121.785 646.266 121.29 646.71 120.815 647.101C120.347 647.485 119.945 647.795 119.607 648.033C119.27 648.271 119.063 648.42 118.986 648.481H125.127V651H114.616V648.7C114.777 648.577 115.076 648.355 115.513 648.033C115.95 647.703 116.46 647.305 117.043 646.837C117.625 646.369 118.223 645.859 118.837 645.307C119.458 644.755 120.033 644.188 120.562 643.605C121.098 643.023 121.532 642.452 121.861 641.892C122.199 641.325 122.367 640.799 122.367 640.316C122.367 639.473 122.164 638.879 121.758 638.534C121.351 638.181 120.773 638.005 120.021 638.005ZM127.452 638.614C127.521 638.361 127.67 638.059 127.9 637.706C128.13 637.353 128.445 637.016 128.843 636.694C129.25 636.364 129.748 636.092 130.338 635.877C130.936 635.655 131.634 635.544 132.431 635.544C133.397 635.544 134.241 635.724 134.961 636.084C135.69 636.437 136.253 636.928 136.652 637.556C137.058 638.185 137.261 638.91 137.261 639.73C137.261 640.267 137.158 640.757 136.951 641.202C136.752 641.647 136.491 642.015 136.169 642.306C135.855 642.597 135.521 642.781 135.168 642.858C135.559 642.904 135.958 643.076 136.364 643.375C136.771 643.674 137.112 644.077 137.388 644.583C137.664 645.089 137.802 645.691 137.802 646.388C137.802 647.331 137.568 648.171 137.1 648.907C136.64 649.643 136 650.222 135.18 650.643C134.367 651.065 133.432 651.276 132.374 651.276C131.301 651.276 130.384 651.088 129.625 650.712C128.874 650.337 128.272 649.877 127.82 649.332C127.375 648.788 127.076 648.263 126.923 647.757L129.556 646.434C129.656 646.772 129.825 647.121 130.062 647.481C130.308 647.841 130.622 648.148 131.005 648.401C131.396 648.646 131.849 648.769 132.362 648.769C132.907 648.769 133.371 648.662 133.754 648.447C134.137 648.232 134.432 647.941 134.639 647.573C134.846 647.197 134.95 646.772 134.95 646.296C134.95 645.798 134.827 645.384 134.582 645.054C134.344 644.725 134.03 644.483 133.639 644.33C133.248 644.169 132.822 644.088 132.362 644.088H132.063V641.995H132.454C132.853 641.995 133.221 641.915 133.558 641.754C133.896 641.585 134.164 641.348 134.363 641.041C134.563 640.727 134.662 640.359 134.662 639.937C134.662 639.362 134.471 638.875 134.087 638.476C133.704 638.078 133.141 637.878 132.397 637.878C131.96 637.878 131.58 637.951 131.258 638.097C130.944 638.235 130.683 638.411 130.476 638.626C130.277 638.833 130.12 639.04 130.005 639.247C129.898 639.446 129.832 639.607 129.809 639.73L127.452 638.614Z" fill="black"/>
<path d="M193.446 135.82H197.632C199.249 135.82 200.583 136.146 201.634 136.797C202.692 137.441 203.481 138.335 204.003 139.477C204.524 140.619 204.785 141.926 204.785 143.398C204.785 144.878 204.524 146.189 204.003 147.331C203.481 148.474 202.692 149.371 201.634 150.022C200.583 150.674 199.249 151 197.632 151H193.446V135.82ZM196.298 138.384V148.435H197.379C198.368 148.435 199.18 148.221 199.817 147.791C200.461 147.354 200.94 146.756 201.254 145.997C201.576 145.238 201.737 144.38 201.737 143.421C201.745 142.455 201.592 141.593 201.277 140.834C200.963 140.075 200.48 139.477 199.828 139.04C199.184 138.603 198.368 138.384 197.379 138.384H196.298ZM209.14 146.929C209.163 147.358 209.278 147.742 209.485 148.079C209.692 148.416 209.991 148.681 210.382 148.872C210.781 149.064 211.256 149.16 211.808 149.16C212.307 149.16 212.744 149.099 213.119 148.976C213.503 148.853 213.825 148.704 214.085 148.527C214.354 148.343 214.553 148.167 214.683 147.998L215.891 149.792C215.676 150.061 215.389 150.31 215.028 150.54C214.676 150.762 214.223 150.939 213.671 151.069C213.127 151.207 212.445 151.276 211.624 151.276C210.589 151.276 209.681 151.073 208.899 150.666C208.117 150.26 207.507 149.674 207.07 148.907C206.633 148.14 206.415 147.228 206.415 146.17C206.415 145.25 206.61 144.422 207.001 143.686C207.392 142.942 207.96 142.356 208.703 141.926C209.455 141.497 210.355 141.282 211.406 141.282C212.395 141.282 213.25 141.474 213.97 141.857C214.699 142.233 215.262 142.785 215.661 143.513C216.059 144.242 216.259 145.131 216.259 146.181C216.259 146.243 216.255 146.369 216.247 146.561C216.247 146.745 216.24 146.868 216.224 146.929H209.14ZM213.522 145.123C213.514 144.878 213.437 144.614 213.292 144.33C213.154 144.046 212.935 143.805 212.636 143.605C212.337 143.406 211.939 143.306 211.44 143.306C210.942 143.306 210.532 143.402 210.21 143.594C209.895 143.786 209.658 144.023 209.497 144.307C209.336 144.583 209.244 144.855 209.221 145.123H213.522ZM210.014 140.408L209.117 139.178L212.751 136.084L214.212 137.913L210.014 140.408ZM221.14 155.784H218.242V141.558H221.175V143.088C221.267 142.866 221.466 142.613 221.773 142.329C222.079 142.045 222.478 141.8 222.969 141.593C223.467 141.386 224.034 141.282 224.671 141.282C225.568 141.282 226.35 141.501 227.017 141.938C227.684 142.375 228.197 142.973 228.558 143.732C228.926 144.483 229.11 145.334 229.11 146.285C229.11 147.236 228.918 148.09 228.535 148.849C228.151 149.601 227.618 150.195 226.936 150.632C226.254 151.061 225.46 151.276 224.556 151.276C223.873 151.276 223.287 151.153 222.796 150.908C222.305 150.663 221.922 150.387 221.646 150.08C221.37 149.773 221.201 149.532 221.14 149.355V155.784ZM226.246 146.285C226.246 145.756 226.131 145.292 225.901 144.893C225.679 144.487 225.38 144.173 225.004 143.95C224.628 143.72 224.211 143.605 223.751 143.605C223.268 143.605 222.831 143.72 222.44 143.95C222.049 144.18 221.738 144.499 221.508 144.905C221.286 145.304 221.175 145.764 221.175 146.285C221.175 146.806 221.286 147.27 221.508 147.676C221.738 148.075 222.049 148.389 222.44 148.619C222.831 148.842 223.268 148.953 223.751 148.953C224.211 148.953 224.628 148.842 225.004 148.619C225.38 148.397 225.679 148.087 225.901 147.688C226.131 147.282 226.246 146.814 226.246 146.285ZM238.429 151V149.355C238.36 149.524 238.184 149.762 237.9 150.068C237.616 150.375 237.233 150.655 236.75 150.908C236.275 151.153 235.715 151.276 235.071 151.276C234.166 151.276 233.365 151.061 232.667 150.632C231.97 150.195 231.422 149.601 231.023 148.849C230.632 148.09 230.436 147.236 230.436 146.285C230.436 145.334 230.632 144.483 231.023 143.732C231.422 142.973 231.97 142.375 232.667 141.938C233.365 141.501 234.166 141.282 235.071 141.282C235.7 141.282 236.244 141.39 236.704 141.604C237.172 141.811 237.547 142.057 237.831 142.34C238.122 142.616 238.31 142.866 238.394 143.088V141.558H241.292V151H238.429ZM233.3 146.285C233.3 146.814 233.419 147.282 233.656 147.688C233.894 148.087 234.208 148.397 234.599 148.619C234.99 148.842 235.416 148.953 235.876 148.953C236.359 148.953 236.788 148.842 237.164 148.619C237.54 148.389 237.835 148.075 238.049 147.676C238.272 147.27 238.383 146.806 238.383 146.285C238.383 145.764 238.272 145.304 238.049 144.905C237.835 144.499 237.54 144.18 237.164 143.95C236.788 143.72 236.359 143.605 235.876 143.605C235.416 143.605 234.99 143.72 234.599 143.95C234.208 144.173 233.894 144.487 233.656 144.893C233.419 145.292 233.3 145.756 233.3 146.285ZM246.416 151H243.495V141.558H246.416V143.088H246.358C246.412 142.904 246.558 142.67 246.795 142.386C247.041 142.103 247.378 141.85 247.807 141.627C248.237 141.397 248.754 141.282 249.36 141.282C249.797 141.282 250.192 141.348 250.544 141.478C250.905 141.601 251.161 141.723 251.315 141.846L250.165 144.238C250.065 144.115 249.877 143.989 249.601 143.858C249.333 143.728 248.996 143.663 248.589 143.663C248.106 143.663 247.704 143.797 247.382 144.065C247.06 144.326 246.818 144.648 246.657 145.031C246.496 145.407 246.416 145.76 246.416 146.089V151ZM251.825 141.558H253.527V137.683H256.425V141.558H258.656V143.985H256.425V147.4C256.425 147.853 256.498 148.205 256.643 148.458C256.789 148.704 257.019 148.826 257.333 148.826C257.571 148.826 257.766 148.78 257.92 148.688C258.073 148.589 258.165 148.52 258.196 148.481L259.231 150.574C259.185 150.62 259.035 150.701 258.782 150.816C258.537 150.931 258.219 151.035 257.828 151.127C257.444 151.226 257.011 151.276 256.528 151.276C255.662 151.276 254.945 151.027 254.378 150.528C253.81 150.022 253.527 149.24 253.527 148.182V143.985H251.825V141.558Z" fill="black"/>
<path d="M210.209 218.16C209.473 218.16 208.758 218.048 208.065 217.824C207.371 217.589 206.806 217.275 206.368 216.88L207.041 215.312C208.011 216.059 209.057 216.432 210.177 216.432C210.849 216.432 211.371 216.261 211.745 215.92C212.129 215.568 212.321 215.099 212.321 214.512C212.321 213.915 212.139 213.435 211.777 213.072C211.414 212.699 210.918 212.512 210.289 212.512C209.393 212.512 208.651 212.869 208.065 213.584H206.689V206.72H213.617V208.416H208.689V211.472C209.254 211.045 209.947 210.832 210.769 210.832C211.483 210.832 212.102 210.987 212.625 211.296C213.158 211.595 213.569 212.016 213.857 212.56C214.155 213.093 214.305 213.717 214.305 214.432C214.305 215.168 214.139 215.819 213.809 216.384C213.478 216.939 213.003 217.376 212.385 217.696C211.777 218.005 211.051 218.16 210.209 218.16ZM220.291 218V210.176H222.243V211.376C222.477 210.949 222.803 210.619 223.219 210.384C223.635 210.139 224.115 210.016 224.659 210.016C225.832 210.016 226.6 210.528 226.963 211.552C227.208 211.072 227.56 210.699 228.019 210.432C228.477 210.155 229 210.016 229.587 210.016C231.347 210.016 232.227 211.088 232.227 213.232V218H230.227V213.312C230.227 212.715 230.125 212.277 229.923 212C229.731 211.723 229.4 211.584 228.931 211.584C228.408 211.584 227.997 211.771 227.699 212.144C227.4 212.507 227.251 213.013 227.251 213.664V218H225.251V213.312C225.251 212.715 225.149 212.277 224.947 212C224.755 211.723 224.429 211.584 223.971 211.584C223.448 211.584 223.037 211.771 222.739 212.144C222.44 212.507 222.291 213.013 222.291 213.664V218H220.291ZM234.162 208.496V206.544H236.402V208.496H234.162ZM234.29 218V210.176H236.29V218H234.29ZM238.368 218V210.176H240.32V211.392C240.587 210.944 240.944 210.603 241.392 210.368C241.851 210.133 242.363 210.016 242.928 210.016C244.773 210.016 245.696 211.088 245.696 213.232V218H243.696V213.328C243.696 212.72 243.579 212.277 243.344 212C243.12 211.723 242.768 211.584 242.288 211.584C241.701 211.584 241.232 211.771 240.88 212.144C240.539 212.507 240.368 212.992 240.368 213.6V218H238.368Z" fill="black"/>
<path d="M206.76 400V398.304H209.304V391.056L207.336 392.24L206.536 390.736L209.896 388.72H211.352V398.304H213.736V400H206.76ZM219.409 400.16C218.076 400.16 217.057 399.659 216.353 398.656C215.649 397.643 215.297 396.203 215.297 394.336C215.297 392.448 215.649 391.013 216.353 390.032C217.057 389.051 218.076 388.56 219.409 388.56C220.753 388.56 221.772 389.051 222.465 390.032C223.169 391.013 223.521 392.443 223.521 394.32C223.521 396.197 223.169 397.643 222.465 398.656C221.761 399.659 220.743 400.16 219.409 400.16ZM219.409 398.48C220.135 398.48 220.668 398.149 221.009 397.488C221.361 396.816 221.537 395.76 221.537 394.32C221.537 392.891 221.361 391.856 221.009 391.216C220.668 390.565 220.135 390.24 219.409 390.24C218.695 390.24 218.161 390.565 217.809 391.216C217.457 391.856 217.281 392.891 217.281 394.32C217.281 395.76 217.457 396.816 217.809 397.488C218.161 398.149 218.695 398.48 219.409 398.48ZM229.588 400V392.176H231.54V393.376C231.774 392.949 232.1 392.619 232.516 392.384C232.932 392.139 233.412 392.016 233.956 392.016C235.129 392.016 235.897 392.528 236.26 393.552C236.505 393.072 236.857 392.699 237.316 392.432C237.774 392.155 238.297 392.016 238.884 392.016C240.644 392.016 241.524 393.088 241.524 395.232V400H239.524V395.312C239.524 394.715 239.422 394.277 239.22 394C239.028 393.723 238.697 393.584 238.228 393.584C237.705 393.584 237.294 393.771 236.996 394.144C236.697 394.507 236.548 395.013 236.548 395.664V400H234.548V395.312C234.548 394.715 234.446 394.277 234.244 394C234.052 393.723 233.726 393.584 233.268 393.584C232.745 393.584 232.334 393.771 232.036 394.144C231.737 394.507 231.588 395.013 231.588 395.664V400H229.588ZM243.459 390.496V388.544H245.699V390.496H243.459ZM243.587 400V392.176H245.587V400H243.587ZM247.665 400V392.176H249.617V393.392C249.884 392.944 250.241 392.603 250.689 392.368C251.148 392.133 251.66 392.016 252.225 392.016C254.07 392.016 254.993 393.088 254.993 395.232V400H252.993V395.328C252.993 394.72 252.876 394.277 252.641 394C252.417 393.723 252.065 393.584 251.585 393.584C250.998 393.584 250.529 393.771 250.177 394.144C249.836 394.507 249.665 394.992 249.665 395.6V400H247.665Z" fill="black"/>
<path d="M212.209 577.16C211.473 577.16 210.758 577.048 210.065 576.824C209.371 576.589 208.806 576.275 208.368 575.88L209.041 574.312C210.011 575.059 211.057 575.432 212.177 575.432C212.849 575.432 213.371 575.261 213.745 574.92C214.129 574.568 214.321 574.099 214.321 573.512C214.321 572.915 214.139 572.435 213.777 572.072C213.414 571.699 212.918 571.512 212.289 571.512C211.393 571.512 210.651 571.869 210.065 572.584H208.689V565.72H215.617V567.416H210.689V570.472C211.254 570.045 211.947 569.832 212.769 569.832C213.483 569.832 214.102 569.987 214.625 570.296C215.158 570.595 215.569 571.016 215.857 571.56C216.155 572.093 216.305 572.717 216.305 573.432C216.305 574.168 216.139 574.819 215.809 575.384C215.478 575.939 215.003 576.376 214.385 576.696C213.777 577.005 213.051 577.16 212.209 577.16ZM222.291 577V569.176H224.243V570.376C224.477 569.949 224.803 569.619 225.219 569.384C225.635 569.139 226.115 569.016 226.659 569.016C227.832 569.016 228.6 569.528 228.963 570.552C229.208 570.072 229.56 569.699 230.019 569.432C230.477 569.155 231 569.016 231.587 569.016C233.347 569.016 234.227 570.088 234.227 572.232V577H232.227V572.312C232.227 571.715 232.125 571.277 231.923 571C231.731 570.723 231.4 570.584 230.931 570.584C230.408 570.584 229.997 570.771 229.699 571.144C229.4 571.507 229.251 572.013 229.251 572.664V577H227.251V572.312C227.251 571.715 227.149 571.277 226.947 571C226.755 570.723 226.429 570.584 225.971 570.584C225.448 570.584 225.037 570.771 224.739 571.144C224.44 571.507 224.291 572.013 224.291 572.664V577H222.291ZM236.162 567.496V565.544H238.402V567.496H236.162ZM236.29 577V569.176H238.29V577H236.29ZM240.368 577V569.176H242.32V570.392C242.587 569.944 242.944 569.603 243.392 569.368C243.851 569.133 244.363 569.016 244.928 569.016C246.773 569.016 247.696 570.088 247.696 572.232V577H245.696V572.328C245.696 571.72 245.579 571.277 245.344 571C245.12 570.723 244.768 570.584 244.288 570.584C243.701 570.584 243.232 570.771 242.88 571.144C242.539 571.507 242.368 571.992 242.368 572.6V577H240.368Z" fill="black"/>
<path d="M198.564 271.544C199.477 271.544 200.27 271.647 200.945 271.854C201.627 272.054 202.168 272.268 202.566 272.498C202.973 272.728 203.218 272.878 203.302 272.947L201.899 275.281C201.777 275.182 201.566 275.044 201.267 274.867C200.975 274.683 200.623 274.523 200.209 274.384C199.795 274.239 199.346 274.166 198.863 274.166C198.166 274.166 197.606 274.3 197.184 274.568C196.77 274.829 196.563 275.209 196.563 275.707C196.563 276.044 196.674 276.347 196.897 276.615C197.119 276.876 197.445 277.121 197.874 277.351C198.311 277.581 198.844 277.823 199.473 278.076C200.025 278.291 200.55 278.54 201.048 278.823C201.554 279.107 202.003 279.441 202.394 279.824C202.792 280.207 203.107 280.652 203.337 281.158C203.574 281.664 203.693 282.243 203.693 282.894C203.693 283.623 203.544 284.259 203.245 284.803C202.953 285.348 202.547 285.804 202.026 286.172C201.512 286.54 200.922 286.816 200.255 287C199.588 287.184 198.886 287.276 198.15 287.276C197.154 287.276 196.257 287.161 195.459 286.931C194.67 286.693 194.029 286.44 193.539 286.172C193.048 285.904 192.761 285.731 192.676 285.654L194.148 283.228C194.24 283.297 194.413 283.408 194.666 283.561C194.926 283.715 195.241 283.872 195.609 284.033C195.984 284.194 196.391 284.332 196.828 284.447C197.272 284.562 197.725 284.619 198.185 284.619C199.013 284.619 199.638 284.447 200.059 284.102C200.481 283.757 200.692 283.308 200.692 282.756C200.692 282.342 200.558 281.978 200.289 281.664C200.021 281.35 199.641 281.062 199.151 280.801C198.668 280.533 198.089 280.261 197.414 279.985C196.74 279.701 196.111 279.372 195.528 278.996C194.953 278.613 194.489 278.145 194.137 277.593C193.784 277.033 193.608 276.347 193.608 275.534C193.608 274.729 193.834 274.028 194.286 273.43C194.746 272.832 195.352 272.368 196.103 272.038C196.862 271.709 197.683 271.544 198.564 271.544ZM205.116 277.558H206.818V273.683H209.716V277.558H211.947V279.985H209.716V283.4C209.716 283.853 209.789 284.205 209.934 284.458C210.08 284.704 210.31 284.826 210.624 284.826C210.862 284.826 211.057 284.78 211.211 284.688C211.364 284.589 211.456 284.52 211.487 284.481L212.522 286.574C212.476 286.62 212.326 286.701 212.073 286.816C211.828 286.931 211.51 287.035 211.119 287.127C210.735 287.226 210.302 287.276 209.819 287.276C208.953 287.276 208.236 287.027 207.669 286.528C207.101 286.022 206.818 285.24 206.818 284.182V279.985H205.116V277.558ZM221.413 287V285.355C221.344 285.524 221.168 285.762 220.884 286.068C220.601 286.375 220.217 286.655 219.734 286.908C219.259 287.153 218.699 287.276 218.055 287.276C217.151 287.276 216.349 287.061 215.652 286.632C214.954 286.195 214.406 285.601 214.007 284.849C213.616 284.09 213.421 283.236 213.421 282.285C213.421 281.334 213.616 280.483 214.007 279.732C214.406 278.973 214.954 278.375 215.652 277.938C216.349 277.501 217.151 277.282 218.055 277.282C218.684 277.282 219.228 277.39 219.688 277.604C220.156 277.811 220.532 278.057 220.815 278.34C221.107 278.616 221.294 278.866 221.379 279.088V277.558H224.277V287H221.413ZM216.284 282.285C216.284 282.814 216.403 283.282 216.641 283.688C216.878 284.087 217.193 284.397 217.584 284.619C217.975 284.842 218.4 284.953 218.86 284.953C219.343 284.953 219.773 284.842 220.148 284.619C220.524 284.389 220.819 284.075 221.034 283.676C221.256 283.27 221.367 282.806 221.367 282.285C221.367 281.764 221.256 281.304 221.034 280.905C220.819 280.499 220.524 280.18 220.148 279.95C219.773 279.72 219.343 279.605 218.86 279.605C218.4 279.605 217.975 279.72 217.584 279.95C217.193 280.173 216.878 280.487 216.641 280.893C216.403 281.292 216.284 281.756 216.284 282.285ZM225.87 277.558H227.572V273.683H230.47V277.558H232.701V279.985H230.47V283.4C230.47 283.853 230.543 284.205 230.688 284.458C230.834 284.704 231.064 284.826 231.378 284.826C231.616 284.826 231.811 284.78 231.965 284.688C232.118 284.589 232.21 284.52 232.241 284.481L233.276 286.574C233.23 286.62 233.08 286.701 232.827 286.816C232.582 286.931 232.264 287.035 231.873 287.127C231.489 287.226 231.056 287.276 230.573 287.276C229.707 287.276 228.99 287.027 228.423 286.528C227.855 286.022 227.572 285.24 227.572 284.182V279.985H225.87V277.558ZM234.899 287V277.558H237.809V287H234.899ZM236.394 275.121C235.911 275.121 235.501 274.952 235.164 274.614C234.834 274.277 234.669 273.875 234.669 273.407C234.669 272.939 234.838 272.533 235.175 272.188C235.513 271.843 235.919 271.67 236.394 271.67C236.709 271.67 236.996 271.751 237.257 271.912C237.517 272.065 237.728 272.272 237.889 272.533C238.05 272.794 238.131 273.085 238.131 273.407C238.131 273.875 237.958 274.277 237.613 274.614C237.276 274.952 236.87 275.121 236.394 275.121ZM245.1 287.276C244.096 287.276 243.199 287.061 242.409 286.632C241.627 286.203 241.014 285.616 240.569 284.872C240.125 284.121 239.902 283.266 239.902 282.308C239.902 281.35 240.125 280.495 240.569 279.743C241.014 278.984 241.627 278.386 242.409 277.949C243.199 277.505 244.096 277.282 245.1 277.282C246.112 277.282 247.005 277.505 247.78 277.949C248.554 278.386 249.16 278.984 249.597 279.743C250.034 280.495 250.252 281.35 250.252 282.308C250.252 283.266 250.034 284.121 249.597 284.872C249.16 285.616 248.554 286.203 247.78 286.632C247.005 287.061 246.112 287.276 245.1 287.276ZM245.1 284.849C245.583 284.849 246.001 284.742 246.354 284.527C246.714 284.305 246.99 284.002 247.182 283.619C247.381 283.228 247.481 282.787 247.481 282.296C247.481 281.806 247.381 281.365 247.182 280.974C246.99 280.583 246.714 280.276 246.354 280.054C246.001 279.824 245.583 279.709 245.1 279.709C244.617 279.709 244.196 279.824 243.835 280.054C243.483 280.276 243.207 280.583 243.007 280.974C242.808 281.365 242.708 281.806 242.708 282.296C242.708 282.787 242.808 283.228 243.007 283.619C243.207 284.002 243.483 284.305 243.835 284.527C244.196 284.742 244.617 284.849 245.1 284.849ZM258.239 277.282C258.883 277.282 259.511 277.417 260.125 277.685C260.738 277.946 261.24 278.363 261.631 278.938C262.03 279.513 262.229 280.265 262.229 281.193V287H259.297V281.698C259.297 280.924 259.113 280.349 258.745 279.973C258.384 279.598 257.909 279.41 257.319 279.41C256.935 279.41 256.567 279.517 256.215 279.732C255.87 279.939 255.586 280.23 255.364 280.606C255.149 280.974 255.042 281.396 255.042 281.871V287H252.121V277.558H255.042V279.065C255.126 278.804 255.318 278.536 255.617 278.26C255.916 277.984 256.295 277.754 256.755 277.57C257.215 277.378 257.71 277.282 258.239 277.282ZM272.268 275.443L269.773 276.799V274.051L273.717 271.82H275.143V287H272.268V275.443Z" fill="black"/>
<path d="M198.802 499.544C199.714 499.544 200.507 499.647 201.182 499.854C201.864 500.054 202.405 500.268 202.804 500.498C203.21 500.728 203.455 500.878 203.54 500.947L202.137 503.281C202.014 503.182 201.803 503.044 201.504 502.867C201.213 502.683 200.86 502.523 200.446 502.384C200.032 502.239 199.584 502.166 199.101 502.166C198.403 502.166 197.843 502.3 197.422 502.568C197.008 502.829 196.801 503.209 196.801 503.707C196.801 504.044 196.912 504.347 197.134 504.615C197.356 504.876 197.682 505.121 198.112 505.351C198.549 505.581 199.081 505.823 199.71 506.076C200.262 506.291 200.787 506.54 201.286 506.823C201.792 507.107 202.24 507.441 202.631 507.824C203.03 508.207 203.344 508.652 203.574 509.158C203.812 509.664 203.931 510.243 203.931 510.894C203.931 511.623 203.781 512.259 203.482 512.803C203.191 513.348 202.784 513.804 202.263 514.172C201.749 514.54 201.159 514.816 200.492 515C199.825 515.184 199.124 515.276 198.388 515.276C197.391 515.276 196.494 515.161 195.697 514.931C194.907 514.693 194.267 514.44 193.776 514.172C193.285 513.904 192.998 513.731 192.914 513.654L194.386 511.228C194.478 511.297 194.65 511.408 194.903 511.561C195.164 511.715 195.478 511.872 195.846 512.033C196.222 512.194 196.628 512.332 197.065 512.447C197.51 512.562 197.962 512.619 198.422 512.619C199.25 512.619 199.875 512.447 200.297 512.102C200.718 511.757 200.929 511.308 200.929 510.756C200.929 510.342 200.795 509.978 200.527 509.664C200.258 509.35 199.879 509.062 199.388 508.801C198.905 508.533 198.326 508.261 197.652 507.985C196.977 507.701 196.348 507.372 195.766 506.996C195.191 506.613 194.727 506.145 194.374 505.593C194.021 505.033 193.845 504.347 193.845 503.534C193.845 502.729 194.071 502.028 194.524 501.43C194.984 500.832 195.589 500.368 196.341 500.038C197.1 499.709 197.92 499.544 198.802 499.544ZM205.353 505.558H207.055V501.683H209.953V505.558H212.184V507.985H209.953V511.4C209.953 511.853 210.026 512.205 210.172 512.458C210.317 512.704 210.547 512.826 210.862 512.826C211.099 512.826 211.295 512.78 211.448 512.688C211.601 512.589 211.693 512.52 211.724 512.481L212.759 514.574C212.713 514.62 212.564 514.701 212.311 514.816C212.065 514.931 211.747 515.035 211.356 515.127C210.973 515.226 210.54 515.276 210.057 515.276C209.19 515.276 208.473 515.027 207.906 514.528C207.339 514.022 207.055 513.24 207.055 512.182V507.985H205.353V505.558ZM221.651 515V513.355C221.582 513.524 221.405 513.762 221.122 514.068C220.838 514.375 220.455 514.655 219.972 514.908C219.496 515.153 218.937 515.276 218.293 515.276C217.388 515.276 216.587 515.061 215.889 514.632C215.191 514.195 214.643 513.601 214.245 512.849C213.854 512.09 213.658 511.236 213.658 510.285C213.658 509.334 213.854 508.483 214.245 507.732C214.643 506.973 215.191 506.375 215.889 505.938C216.587 505.501 217.388 505.282 218.293 505.282C218.921 505.282 219.466 505.39 219.926 505.604C220.393 505.811 220.769 506.057 221.053 506.34C221.344 506.616 221.532 506.866 221.616 507.088V505.558H224.514V515H221.651ZM216.522 510.285C216.522 510.814 216.64 511.282 216.878 511.688C217.116 512.087 217.43 512.397 217.821 512.619C218.212 512.842 218.638 512.953 219.098 512.953C219.581 512.953 220.01 512.842 220.386 512.619C220.761 512.389 221.056 512.075 221.271 511.676C221.493 511.27 221.605 510.806 221.605 510.285C221.605 509.764 221.493 509.304 221.271 508.905C221.056 508.499 220.761 508.18 220.386 507.95C220.01 507.72 219.581 507.605 219.098 507.605C218.638 507.605 218.212 507.72 217.821 507.95C217.43 508.173 217.116 508.487 216.878 508.893C216.64 509.292 216.522 509.756 216.522 510.285ZM226.107 505.558H227.809V501.683H230.707V505.558H232.938V507.985H230.707V511.4C230.707 511.853 230.78 512.205 230.926 512.458C231.071 512.704 231.301 512.826 231.616 512.826C231.853 512.826 232.049 512.78 232.202 512.688C232.355 512.589 232.447 512.52 232.478 512.481L233.513 514.574C233.467 514.62 233.318 514.701 233.065 514.816C232.819 514.931 232.501 515.035 232.11 515.127C231.727 515.226 231.294 515.276 230.811 515.276C229.944 515.276 229.227 515.027 228.66 514.528C228.093 514.022 227.809 513.24 227.809 512.182V507.985H226.107V505.558ZM235.136 515V505.558H238.046V515H235.136ZM236.631 503.121C236.148 503.121 235.738 502.952 235.401 502.614C235.071 502.277 234.906 501.875 234.906 501.407C234.906 500.939 235.075 500.533 235.412 500.188C235.75 499.843 236.156 499.67 236.631 499.67C236.946 499.67 237.233 499.751 237.494 499.912C237.755 500.065 237.965 500.272 238.126 500.533C238.287 500.794 238.368 501.085 238.368 501.407C238.368 501.875 238.195 502.277 237.85 502.614C237.513 502.952 237.107 503.121 236.631 503.121ZM245.338 515.276C244.333 515.276 243.436 515.061 242.647 514.632C241.865 514.203 241.251 513.616 240.807 512.872C240.362 512.121 240.14 511.266 240.14 510.308C240.14 509.35 240.362 508.495 240.807 507.743C241.251 506.984 241.865 506.386 242.647 505.949C243.436 505.505 244.333 505.282 245.338 505.282C246.35 505.282 247.243 505.505 248.017 505.949C248.791 506.386 249.397 506.984 249.834 507.743C250.271 508.495 250.49 509.35 250.49 510.308C250.49 511.266 250.271 512.121 249.834 512.872C249.397 513.616 248.791 514.203 248.017 514.632C247.243 515.061 246.35 515.276 245.338 515.276ZM245.338 512.849C245.821 512.849 246.238 512.742 246.591 512.527C246.951 512.305 247.227 512.002 247.419 511.619C247.618 511.228 247.718 510.787 247.718 510.296C247.718 509.806 247.618 509.365 247.419 508.974C247.227 508.583 246.951 508.276 246.591 508.054C246.238 507.824 245.821 507.709 245.338 507.709C244.855 507.709 244.433 507.824 244.073 508.054C243.72 508.276 243.444 508.583 243.245 508.974C243.045 509.365 242.946 509.806 242.946 510.296C242.946 510.787 243.045 511.228 243.245 511.619C243.444 512.002 243.72 512.305 244.073 512.527C244.433 512.742 244.855 512.849 245.338 512.849ZM258.476 505.282C259.12 505.282 259.749 505.417 260.362 505.685C260.975 505.946 261.478 506.363 261.869 506.938C262.267 507.513 262.467 508.265 262.467 509.193V515H259.534V509.698C259.534 508.924 259.35 508.349 258.982 507.973C258.622 507.598 258.146 507.41 257.556 507.41C257.173 507.41 256.805 507.517 256.452 507.732C256.107 507.939 255.823 508.23 255.601 508.606C255.386 508.974 255.279 509.396 255.279 509.871V515H252.358V505.558H255.279V507.065C255.363 506.804 255.555 506.536 255.854 506.26C256.153 505.984 256.533 505.754 256.993 505.57C257.453 505.378 257.947 505.282 258.476 505.282ZM275.955 502.005C275.403 502.005 274.917 502.132 274.495 502.384C274.073 502.63 273.721 502.917 273.437 503.247C273.153 503.577 272.935 503.876 272.781 504.144C272.636 504.412 272.555 504.569 272.54 504.615L270.067 503.488C270.083 503.404 270.156 503.22 270.286 502.936C270.416 502.645 270.619 502.308 270.895 501.924C271.179 501.541 271.547 501.169 271.999 500.809C272.452 500.449 273.004 500.15 273.655 499.912C274.307 499.667 275.074 499.544 275.955 499.544C276.937 499.544 277.761 499.682 278.428 499.958C279.103 500.234 279.639 500.606 280.038 501.073C280.444 501.533 280.736 502.051 280.912 502.626C281.096 503.193 281.188 503.768 281.188 504.351C281.188 505.01 281.046 505.658 280.762 506.294C280.486 506.931 280.122 507.544 279.67 508.134C279.225 508.717 278.746 509.261 278.232 509.767C277.719 510.266 277.224 510.71 276.749 511.101C276.281 511.485 275.879 511.795 275.541 512.033C275.204 512.271 274.997 512.42 274.92 512.481H281.061V515H270.55V512.7C270.711 512.577 271.01 512.355 271.447 512.033C271.884 511.703 272.394 511.305 272.977 510.837C273.56 510.369 274.158 509.859 274.771 509.307C275.392 508.755 275.967 508.188 276.496 507.605C277.033 507.023 277.466 506.452 277.795 505.892C278.133 505.325 278.301 504.799 278.301 504.316C278.301 503.473 278.098 502.879 277.692 502.534C277.286 502.181 276.707 502.005 275.955 502.005Z" fill="black"/>
<path d="M198.012 635.82H200.899L206.741 651H203.682L202.497 647.722H196.425L195.218 651H192.147L198.012 635.82ZM197.368 645.181H201.554L199.473 639.293H199.438L197.368 645.181ZM210.833 651H207.912V641.558H210.833V643.088H210.776C210.829 642.904 210.975 642.67 211.213 642.386C211.458 642.103 211.795 641.85 212.225 641.627C212.654 641.397 213.172 641.282 213.777 641.282C214.214 641.282 214.609 641.348 214.962 641.478C215.322 641.601 215.579 641.723 215.732 641.846L214.582 644.238C214.483 644.115 214.295 643.989 214.019 643.858C213.75 643.728 213.413 643.663 213.007 643.663C212.524 643.663 212.121 643.797 211.799 644.065C211.477 644.326 211.236 644.648 211.075 645.031C210.914 645.407 210.833 645.76 210.833 646.089V651ZM219.548 651H216.627V641.558H219.548V643.088H219.491C219.544 642.904 219.69 642.67 219.928 642.386C220.173 642.103 220.51 641.85 220.94 641.627C221.369 641.397 221.886 641.282 222.492 641.282C222.929 641.282 223.324 641.348 223.677 641.478C224.037 641.601 224.294 641.723 224.447 641.846L223.297 644.238C223.197 644.115 223.01 643.989 222.734 643.858C222.465 643.728 222.128 643.663 221.722 643.663C221.239 643.663 220.836 643.797 220.514 644.065C220.192 644.326 219.951 644.648 219.79 645.031C219.629 645.407 219.548 645.76 219.548 646.089V651ZM225.698 651V641.558H228.608V651H225.698ZM227.193 639.121C226.71 639.121 226.3 638.952 225.963 638.614C225.633 638.277 225.468 637.875 225.468 637.407C225.468 636.939 225.637 636.533 225.974 636.188C226.312 635.843 226.718 635.67 227.193 635.67C227.508 635.67 227.795 635.751 228.056 635.912C228.317 636.065 228.527 636.272 228.688 636.533C228.849 636.794 228.93 637.085 228.93 637.407C228.93 637.875 228.757 638.277 228.412 638.614C228.075 638.952 227.669 639.121 227.193 639.121ZM230.38 641.558H233.508L236.095 648.332L238.683 641.558H241.799L237.809 651H234.382L230.38 641.558ZM245.567 646.929C245.59 647.358 245.705 647.742 245.912 648.079C246.119 648.416 246.418 648.681 246.809 648.872C247.208 649.064 247.683 649.16 248.235 649.16C248.734 649.16 249.171 649.099 249.546 648.976C249.93 648.853 250.252 648.704 250.512 648.527C250.781 648.343 250.98 648.167 251.11 647.998L252.318 649.792C252.103 650.061 251.816 650.31 251.455 650.54C251.103 650.762 250.65 650.939 250.098 651.069C249.554 651.207 248.872 651.276 248.051 651.276C247.016 651.276 246.108 651.073 245.326 650.666C244.544 650.26 243.934 649.674 243.497 648.907C243.06 648.14 242.842 647.228 242.842 646.17C242.842 645.25 243.037 644.422 243.428 643.686C243.819 642.942 244.387 642.356 245.13 641.926C245.882 641.497 246.783 641.282 247.833 641.282C248.822 641.282 249.677 641.474 250.397 641.857C251.126 642.233 251.689 642.785 252.088 643.513C252.487 644.242 252.686 645.131 252.686 646.181C252.686 646.243 252.682 646.369 252.674 646.561C252.674 646.745 252.667 646.868 252.651 646.929H245.567ZM249.949 645.123C249.941 644.878 249.865 644.614 249.719 644.33C249.581 644.046 249.362 643.805 249.063 643.605C248.764 643.406 248.366 643.306 247.867 643.306C247.369 643.306 246.959 643.402 246.637 643.594C246.323 643.786 246.085 644.023 245.924 644.307C245.763 644.583 245.671 644.855 245.648 645.123H249.949ZM246.441 640.408L245.544 639.178L249.178 636.084L250.639 637.913L246.441 640.408ZM256.843 646.929C256.866 647.358 256.981 647.742 257.188 648.079C257.395 648.416 257.694 648.681 258.085 648.872C258.483 649.064 258.959 649.16 259.511 649.16C260.009 649.16 260.446 649.099 260.822 648.976C261.205 648.853 261.527 648.704 261.788 648.527C262.056 648.343 262.255 648.167 262.386 647.998L263.593 649.792C263.379 650.061 263.091 650.31 262.731 650.54C262.378 650.762 261.926 650.939 261.374 651.069C260.829 651.207 260.147 651.276 259.327 651.276C258.292 651.276 257.383 651.073 256.601 650.666C255.819 650.26 255.21 649.674 254.773 648.907C254.336 648.14 254.117 647.228 254.117 646.17C254.117 645.25 254.313 644.422 254.704 643.686C255.095 642.942 255.662 642.356 256.406 641.926C257.157 641.497 258.058 641.282 259.108 641.282C260.097 641.282 260.952 641.474 261.673 641.857C262.401 642.233 262.965 642.785 263.363 643.513C263.762 644.242 263.961 645.131 263.961 646.181C263.961 646.243 263.957 646.369 263.95 646.561C263.95 646.745 263.942 646.868 263.927 646.929H256.843ZM261.224 645.123C261.217 644.878 261.14 644.614 260.994 644.33C260.856 644.046 260.638 643.805 260.339 643.605C260.04 643.406 259.641 643.306 259.143 643.306C258.644 643.306 258.234 643.402 257.912 643.594C257.598 643.786 257.36 644.023 257.199 644.307C257.038 644.583 256.946 644.855 256.923 645.123H261.224Z" fill="black"/>
<path d="M47 152.5V273.5" stroke="black" stroke-dasharray="5 5"/>
<path d="M47 289V502" stroke="black"/>
<path d="M47 517V637" stroke="black" stroke-dasharray="5 5"/>
<circle cx="47" cy="145" r="7.5" stroke="#FF8811" stroke-width="3"/>
<circle cx="47" cy="281" r="7.5" stroke="#FF8811" stroke-width="3"/>
<circle cx="47" cy="509" r="7.5" stroke="#FF8811" stroke-width="3"/>
<circle cx="47" cy="645" r="7.5" stroke="#FF8811" stroke-width="3"/>
<path d="M118.646 202.374C120.385 202.374 121.796 200.947 121.796 199.187C121.796 197.428 120.385 196 118.646 196C116.907 196 115.497 197.428 115.497 199.187C115.497 200.947 116.907 202.374 118.646 202.374ZM124.847 212.274L123.318 211.49L122.681 209.538C121.717 206.577 119.027 204.505 115.976 204.499C113.613 204.492 112.308 205.169 109.854 206.172C108.437 206.75 107.275 207.845 106.593 209.239L106.153 210.142C105.641 211.192 106.055 212.466 107.085 212.991C108.108 213.515 109.355 213.09 109.873 212.041L110.313 211.138C110.543 210.674 110.923 210.308 111.396 210.116L113.154 209.399L112.157 213.429C111.816 214.81 112.183 216.277 113.134 217.333L117.065 221.676C117.537 222.2 117.872 222.831 118.042 223.515L119.243 228.382C119.525 229.517 120.667 230.214 121.789 229.929C122.911 229.643 123.6 228.488 123.318 227.352L121.861 221.443C121.691 220.759 121.356 220.122 120.883 219.604L117.898 216.304L119.027 211.743L119.387 212.838C119.735 213.907 120.483 214.79 121.467 215.295L122.996 216.078C124.02 216.603 125.266 216.178 125.785 215.129C126.29 214.086 125.877 212.798 124.847 212.274ZM109.828 221.616C109.618 222.154 109.303 222.638 108.896 223.043L105.615 226.37C104.795 227.2 104.795 228.548 105.615 229.378C106.435 230.207 107.761 230.207 108.581 229.378L112.478 225.434C112.879 225.029 113.194 224.544 113.41 224.006L114.296 221.762C110.667 217.758 111.757 218.986 111.186 218.196L109.828 221.616Z" fill="#050516"/>
<path d="M118.646 566.374C120.385 566.374 121.796 564.947 121.796 563.187C121.796 561.428 120.385 560 118.646 560C116.907 560 115.497 561.428 115.497 563.187C115.497 564.947 116.907 566.374 118.646 566.374ZM124.847 576.274L123.318 575.49L122.681 573.538C121.717 570.577 119.027 568.505 115.976 568.499C113.613 568.492 112.308 569.169 109.854 570.172C108.437 570.75 107.275 571.845 106.593 573.239L106.153 574.142C105.641 575.192 106.055 576.466 107.085 576.991C108.108 577.515 109.355 577.09 109.873 576.041L110.313 575.138C110.543 574.674 110.923 574.308 111.396 574.116L113.154 573.399L112.157 577.429C111.816 578.81 112.183 580.277 113.134 581.333L117.065 585.676C117.537 586.2 117.872 586.831 118.042 587.515L119.243 592.382C119.525 593.517 120.667 594.214 121.789 593.929C122.911 593.643 123.6 592.488 123.318 591.352L121.861 585.443C121.691 584.759 121.356 584.122 120.883 583.604L117.898 580.304L119.027 575.743L119.387 576.838C119.735 577.907 120.483 578.79 121.467 579.295L122.996 580.078C124.02 580.603 125.266 580.178 125.785 579.129C126.29 578.086 125.877 576.798 124.847 576.274ZM109.828 585.616C109.618 586.154 109.303 586.638 108.896 587.043L105.615 590.37C104.795 591.2 104.795 592.548 105.615 593.378C106.435 594.207 107.761 594.207 108.581 593.378L112.478 589.434C112.879 589.029 113.194 588.544 113.41 588.006L114.296 585.762C110.667 581.758 111.757 582.986 111.186 582.196L109.828 585.616Z" fill="#050516"/>
<path d="M118.188 384.634C119.975 384.634 121.438 383.141 121.438 381.317C121.438 379.493 119.975 378 118.188 378C116.4 378 114.938 379.493 114.938 381.317C114.938 383.141 116.4 384.634 118.188 384.634ZM101.125 395.415C96.575 395.415 93 399.063 93 403.707C93 408.351 96.575 412 101.125 412C105.675 412 109.25 408.351 109.25 403.707C109.25 399.063 105.675 395.415 101.125 395.415ZM101.125 409.512C98.0375 409.512 95.4375 406.859 95.4375 403.707C95.4375 400.556 98.0375 397.902 101.125 397.902C104.212 397.902 106.812 400.556 106.812 403.707C106.812 406.859 104.212 409.512 101.125 409.512ZM110.55 392.927L114.45 388.946L115.75 390.273C117.862 392.429 120.625 393.756 124.038 393.756V390.439C121.6 390.439 119.65 389.444 118.188 387.951L115.1 384.8C114.288 384.137 113.475 383.805 112.5 383.805C111.525 383.805 110.713 384.137 110.225 384.8L105.675 389.444C105.025 390.107 104.7 390.937 104.7 391.766C104.7 392.761 105.025 393.59 105.675 394.088L110.875 398.732V407.024H114.125V396.741L110.55 392.927ZM123.875 395.415C119.325 395.415 115.75 399.063 115.75 403.707C115.75 408.351 119.325 412 123.875 412C128.425 412 132 408.351 132 403.707C132 399.063 128.425 395.415 123.875 395.415ZM123.875 409.512C120.788 409.512 118.188 406.859 118.188 403.707C118.188 400.556 120.788 397.902 123.875 397.902C126.963 397.902 129.562 400.556 129.562 403.707C129.562 406.859 126.963 409.512 123.875 409.512Z" fill="#050516"/>
<rect x="138" y="690" width="155" height="46" rx="23" fill="#FF8811"/>
<path d="M174.683 718.16C173.51 718.16 172.502 717.925 171.659 717.456C170.827 716.976 170.187 716.304 169.739 715.44C169.291 714.565 169.067 713.536 169.067 712.352C169.067 711.168 169.291 710.144 169.739 709.28C170.187 708.416 170.827 707.749 171.659 707.28C172.502 706.8 173.51 706.56 174.683 706.56C175.44 706.56 176.155 706.677 176.827 706.912C177.51 707.147 178.07 707.483 178.507 707.92L177.835 709.552C177.355 709.147 176.864 708.853 176.363 708.672C175.862 708.48 175.323 708.384 174.747 708.384C173.606 708.384 172.736 708.731 172.139 709.424C171.542 710.107 171.243 711.083 171.243 712.352C171.243 713.621 171.542 714.603 172.139 715.296C172.736 715.989 173.606 716.336 174.747 716.336C175.323 716.336 175.862 716.245 176.363 716.064C176.864 715.872 177.355 715.573 177.835 715.168L178.507 716.8C178.07 717.227 177.51 717.563 176.827 717.808C176.155 718.043 175.44 718.16 174.683 718.16ZM180.903 711.072L180.087 710.432C180.577 709.92 180.865 709.424 180.951 708.944H179.927V706.72H182.167V708.176C182.167 708.731 182.071 709.237 181.879 709.696C181.697 710.144 181.372 710.603 180.903 711.072ZM184.263 718V706.72H191.767V708.352H186.231V711.456H191.415V713.088H186.231V716.368H191.767V718H184.263ZM197.542 718.16C196.657 718.16 195.835 718.048 195.078 717.824C194.321 717.589 193.681 717.275 193.158 716.88L193.782 715.264C194.305 715.637 194.875 715.925 195.494 716.128C196.123 716.331 196.806 716.432 197.542 716.432C198.385 716.432 198.998 716.293 199.382 716.016C199.766 715.728 199.958 715.36 199.958 714.912C199.958 714.539 199.819 714.245 199.542 714.032C199.275 713.819 198.811 713.643 198.15 713.504L196.39 713.136C194.385 712.709 193.382 711.68 193.382 710.048C193.382 709.344 193.569 708.731 193.942 708.208C194.315 707.685 194.833 707.28 195.494 706.992C196.155 706.704 196.918 706.56 197.782 706.56C198.55 706.56 199.27 706.677 199.942 706.912C200.614 707.136 201.174 707.456 201.622 707.872L200.998 709.408C200.113 708.661 199.035 708.288 197.766 708.288C197.03 708.288 196.454 708.443 196.038 708.752C195.622 709.061 195.414 709.467 195.414 709.968C195.414 710.352 195.542 710.661 195.798 710.896C196.054 711.12 196.491 711.296 197.11 711.424L198.854 711.792C199.91 712.016 200.694 712.368 201.206 712.848C201.729 713.328 201.99 713.968 201.99 714.768C201.99 715.44 201.809 716.032 201.446 716.544C201.083 717.056 200.566 717.456 199.894 717.744C199.233 718.021 198.449 718.16 197.542 718.16ZM206.233 718V708.432H202.361V706.72H212.153V708.432H208.281V718H206.233ZM217.763 718V706.72H222.659C223.897 706.72 224.851 707.029 225.523 707.648C226.195 708.267 226.531 709.131 226.531 710.24C226.531 711.349 226.195 712.219 225.523 712.848C224.851 713.467 223.897 713.776 222.659 713.776H219.811V718H217.763ZM219.811 712.16H222.339C223.811 712.16 224.547 711.52 224.547 710.24C224.547 708.971 223.811 708.336 222.339 708.336H219.811V712.16ZM225.813 718L230.917 706.72H232.597L237.701 718H235.621L234.501 715.392H228.997L227.893 718H225.813ZM231.733 708.944L229.701 713.76H233.797L231.765 708.944H231.733ZM238.935 718V706.72H243.831C245.068 706.72 246.023 707.019 246.695 707.616C247.367 708.203 247.703 709.029 247.703 710.096C247.703 710.939 247.484 711.637 247.047 712.192C246.61 712.736 245.98 713.104 245.159 713.296C245.703 713.467 246.151 713.877 246.503 714.528L248.391 718H246.135L244.183 714.4C243.991 714.048 243.762 713.808 243.495 713.68C243.239 713.552 242.908 713.488 242.503 713.488H240.983V718H238.935ZM240.983 711.968H243.479C244.972 711.968 245.719 711.36 245.719 710.144C245.719 708.939 244.972 708.336 243.479 708.336H240.983V711.968ZM252.311 718V708.432H248.439V706.72H258.231V708.432H254.359V718H252.311ZM259.529 718V706.72H261.577V718H259.529Z" fill="#050516"/>
<rect x="201" y="800" width="26" height="26" transform="rotate(-90 201 800)" fill="white"/>
<path d="M214.5 811C227.478 811 238 800.478 238 787.5C238 774.522 227.478 764 214.5 764C201.522 764 191 774.522 191 787.5C191 800.478 201.522 811 214.5 811ZM204.178 786.975C204.345 786.806 204.544 786.672 204.763 786.58C204.982 786.489 205.217 786.441 205.454 786.44C205.692 786.439 205.927 786.485 206.147 786.575C206.366 786.665 206.566 786.797 206.735 786.964L212.692 792.876V777.784C212.692 777.304 212.883 776.844 213.222 776.505C213.561 776.166 214.021 775.976 214.5 775.976C214.979 775.976 215.439 776.166 215.778 776.505C216.117 776.844 216.308 777.304 216.308 777.784V792.876L222.265 786.964C222.434 786.797 222.634 786.665 222.854 786.575C223.074 786.485 223.309 786.439 223.546 786.44C223.784 786.441 224.019 786.489 224.238 786.581C224.457 786.673 224.656 786.807 224.823 786.976C224.99 787.144 225.123 787.344 225.213 787.564C225.302 787.784 225.348 788.02 225.347 788.257C225.346 788.495 225.298 788.73 225.206 788.949C225.115 789.168 224.98 789.366 224.812 789.534L215.773 798.503C215.435 798.839 214.977 799.028 214.5 799.028C214.023 799.028 213.565 798.839 213.227 798.503L204.188 789.534C204.019 789.366 203.885 789.168 203.793 788.948C203.701 788.729 203.653 788.494 203.652 788.256C203.651 788.019 203.697 787.783 203.788 787.563C203.878 787.343 204.01 787.143 204.178 786.975Z" fill="#219EBC"/>
</svg>
