<svg width="47" height="47" viewBox="0 0 47 47" fill="none" xmlns="http://www.w3.org/2000/svg">
<path d="M0 23.5C0 36.4781 10.5219 47 23.5 47C36.4781 47 47 36.4781 47 23.5C47 10.5219 36.4781 0 23.5 0C10.5219 0 0 10.5219 0 23.5ZM24.0254 13.1781C24.1939 13.3453 24.3279 13.544 24.4197 13.763C24.5114 13.982 24.5591 14.2169 24.5601 14.4543C24.561 14.6918 24.5152 14.9271 24.4252 15.1468C24.3352 15.3665 24.2028 15.5663 24.0355 15.7348L18.1244 21.6923H33.2163C33.6958 21.6923 34.1556 21.8828 34.4946 22.2218C34.8336 22.5608 35.024 23.0206 35.024 23.5C35.024 23.9794 34.8336 24.4392 34.4946 24.7782C34.1556 25.1172 33.6958 25.3077 33.2163 25.3077H18.1244L24.0355 31.2652C24.2027 31.4339 24.3351 31.6338 24.425 31.8537C24.5149 32.0735 24.5607 32.3089 24.5596 32.5465C24.5586 32.784 24.5108 33.019 24.4189 33.238C24.327 33.457 24.1929 33.6558 24.0242 33.8231C23.8555 33.9903 23.6556 34.1226 23.4357 34.2125C23.2159 34.3025 22.9805 34.3482 22.7429 34.3472C22.5054 34.3461 22.2704 34.2983 22.0514 34.2064C21.8324 34.1146 21.6336 33.9804 21.4663 33.8118L12.4968 24.7733C12.1608 24.4347 11.9723 23.977 11.9723 23.5C11.9723 23.023 12.1608 22.5653 12.4968 22.2267L21.4663 13.1882C21.6336 13.0193 21.8325 12.8851 22.0517 12.7931C22.2709 12.7012 22.5061 12.6534 22.7437 12.6524C22.9814 12.6515 23.217 12.6974 23.4369 12.7876C23.6568 12.8778 23.8568 13.0105 24.0254 13.1781Z" fill="#FF8811"/>
</svg>
